<?xml version="1.0" encoding="utf-8"?>
<!-- Generator: Adobe Illustrator 27.5.0, SVG Export Plug-In . SVG Version: 6.00 Build 0)  -->
<svg version="1.1" xmlns="http://www.w3.org/2000/svg" xmlns:xlink="http://www.w3.org/1999/xlink" x="0px" y="0px"
	 viewBox="0 0 750 500" style="enable-background:new 0 0 750 500;" xml:space="preserve">
<g id="BACKGROUND">
</g>
<g id="OBJECTS">
	<path d="M696,428l-7.644,3.495l-1.298-98.514c5.128-0.52,17.006-3.158,31.065-15.89c18.844-17.066,16.355-79.997,15.999-91.374
		c-0.356-11.377,1.067-40.532-8.889-41.954c-9.955-1.422-8.177,29.866-8.177,29.866s0.711,47.998-2.489,71.108
		c-2.614,18.878-21.116,24.231-27.808,25.559l-0.872-66.165c6.863-0.863,20.335-4.24,20.6-17.48
		c0.356-17.777,4.978-53.331-6.044-54.753c-11.022-1.422-6.4,39.11-7.466,45.865c-0.712,4.508-4.741,6.16-7.348,6.764l-1.283-97.427
		c0,0,3.555-42.665-8.533-44.798c-12.088-2.133-10.666,39.11-10.666,39.11v164.587c-9.171-4.271-17.321-22.081-17.066-52.192
		c0.356-41.954-3.555-54.753-12.088-51.909c-7.451,2.484-7.111,45.509-7.111,45.509s-2.844,35.554,9.244,58.309
		c8.315,15.651,20.33,18.182,27.021,18.237v138.153l-34.664,15.847v-22.817c3.467-0.029,9.692-1.34,14-9.449
		c6.263-11.789,4.789-30.21,4.789-30.21s0.176-22.292-3.684-23.579c-4.421-1.474-6.447,5.158-6.263,26.894
		c0.132,15.601-4.09,24.828-8.842,27.041v-76.04c0,0,0.737-21.368-5.526-20.263c-6.263,1.105-4.421,23.21-4.421,23.21l-0.936,50.068
		c-1.135-0.497-2.298-1.409-2.564-3.095c-0.553-3.5,1.842-24.5-3.868-23.763c-5.71,0.737-3.316,19.158-3.131,28.368
		c0.122,6.094,5.646,8.155,9.37,8.852l-0.127,6.784c-3.472-0.69-13.048-3.467-14.401-13.241
		c-1.658-11.973-1.289-36.842-1.289-36.842s0.921-16.21-4.237-15.473c-5.158,0.737-4.421,15.842-4.605,21.736
		c-0.184,5.895-1.474,38.499,8.289,47.341c7.227,6.545,13.334,7.939,16.024,8.224l-0.531,28.425L504,462l-88-10l-36,16
		l-91.061,3.418L260,464l-38-14l-0.624-0.05c-1.661-6.272-6.841-29.06-6.581-68.151c6.961-0.073,16.819-2.158,21.248-12.481
		c7.218-16.824,1.179-38.135-6.941-38.135s5.137,33.649-6.592,36.453c-2.796,0.668-5.274,1.044-7.443,1.238
		c0.124-3.484,0.288-7.069,0.502-10.771c3.609-62.25-2.707-70.101-9.924-70.101c-4.652,0-5.181,68.944-4.97,117.97
		c-2.42-0.153-5.27-0.534-8.563-1.321c-11.729-2.804-0.902-67.858-9.022-67.858c-8.12,0-11.729,52.716-4.511,69.541
		c4.628,10.789,15.186,12.58,22.17,12.48c0.092,12.881,0.22,23.428,0.302,29.513L172,446c0,0,0,0-22-8
		c-8.247-2.999-31.39-2.625-57.102-0.986l-1.376-81.505c6.211-0.689,20.019-3.946,36.318-18.707
		c22.227-20.13,19.291-94.359,18.872-107.779c-0.419-13.42,1.258-47.809-10.484-49.486c-11.742-1.678-9.646,35.227-9.646,35.227
		s0.839,56.615-2.936,83.874c-3.054,22.058-24.501,28.461-32.576,30.103l-0.261-15.444c8.475-1.632,20.82-6.367,21.095-20.11
		c0.419-20.969,5.871-62.906-7.129-64.583c-13-1.677-7.549,46.131-8.807,54.099c-0.584,3.699-3.066,5.77-5.558,6.928L88,146.841
		c0,0,4.194-50.325-10.065-52.841c-14.259-2.516-12.581,46.131-12.581,46.131v202.037c-10.817-5.037-20.431-26.045-20.13-61.562
		c0.419-49.486-4.194-64.583-14.259-61.228c-8.789,2.93-8.388,53.68-8.388,53.68s-3.355,41.937,10.904,68.777
		c9.807,18.461,23.98,21.446,31.872,21.511v75.776C31.149,442.107,0,446,0,446v54h750v-64L696,428z"/>
	<path d="M538.501,387.513c31.502,9.451,33.602-19.601,33.602-19.601c-3.07,7.676-12.493,5.814-17.344,4.256
		c8.08,2.413,11.744-1.806,11.744-1.806c-11.539,0.684-17.684-2.564-20.552-8.296c0.029,0.027,0.054,0.059,0.083,0.086
		c1.248,1.174,2.642,2.034,4.018,2.645c2.767,1.223,5.385,1.585,7.502,1.764c2.128,0.174,3.803,0.087,4.94,0.038
		c1.137-0.059,1.74-0.119,1.74-0.119s-0.607,0.027-1.743,0.025c-1.135-0.005-2.805-0.033-4.904-0.278
		c-2.085-0.259-4.649-0.727-7.26-2.011c-2.04-0.983-4.023-2.621-5.45-4.855c-5.717-18.976,14.383-57.742,6.576-79.654
		c-0.433-1.216-0.894-2.365-1.373-3.465c-1.409-4.235-3.649-8.07-6.593-10.973c-0.717-0.709-1.475-1.348-2.257-1.93
		c-11.987-11.051-26.879-7.083-26.879-7.083s-0.01,0.004-0.028,0.012c-3.299-6.87-8.444-13.244-16.072-18.563
		c-14.51-10.117-39.604-11.119-67.632-10.308l2.353-6.493l0.906-22.055c0.703-0.132,1.398-0.298,2.069-0.521l0.875-8.575
		c0,0,3.15-2.1,2.975-4.55c-0.175-2.45-3.85-3.325-3.85-3.325s3.675-4.55,2.1-5.075c-1.575-0.525-2.8-1.4-2.8-1.4l0.875-1.225
		l-2.975-4.55l-4.375-3.675l2.45-0.875c0,0-0.175-2.275-2.45-2.45c-0.099-0.008-0.183-0.027-0.277-0.038l1.152-1.362
		c0,0-6.65-14.876-15.926-16.976l-15.751-7.7l-0.7-3.325l-4.767,1.996l0.652-6.517c29.561-3.014,25.951-21.998,16.541-29.564
		c-3.696-2.972-7.518-4.987-11.507-6.264c-1.58-8.195-9.254-8.203-15.783-8.203c-5.874,0-10.504,5.583-12.519,8.492
		c-9.964,1.884-24.589,4.972-21.094,20.517c2.715,12.076,15.687,14.67,23.107,15.152c0.315,2.525,0.671,4.49,1.044,4.916
		c0.525,0.6,1.563,1.327,2.579,1.964l0.199,4.12l-4.004,1.441l-14.176,20.826l0.35,7.875l0.313,3.2l-1.625-1.494
		c0,0-0.181-0.024-0.481-0.051c-0.09-0.356-0.183-0.715-0.297-1.095c0.121-0.814,0.063-1.596-0.27-2.279
		c-0.8-1.637-2.964-2.363-6.421-2.169c-3.815,0.218-11.889,6.581-23.064,15.388c-7.467,5.885-16.433,12.95-26.212,19.733
		c-1.631-4.98,0.028-11.327-4.466-16.531c-3.354-3.883-6.705-5.29-9.374-5.669c3.296-1.104,3.515-3.314,3.515-3.314
		c-9.374,5.077-15.232-2.344-15.232-2.344l4.687,1.562c-12.108-10.545-20.7-8.202-20.7-8.202c4.296-2.343,13.279,0.781,13.279,0.781
		c-9.977-9.042-19.699-2.905-23.217-0.059c6.91-7.876,8.762-22.134,8.762-22.134c-7.749,2.855-11.811,10.696-13.855,16.747
		c-2.165-2.989-6.359-6.077-14.496-6.597c0,0,4.55,0.35,9.45,6.3c0,0-10.85-8.05-19.601-0.35l7.7-0.7c0,0-13.651,1.75-13.301,11.551
		c0.35,9.801-10.851,7.35-10.851,7.35s4.355,5.622,11.626,3.287c-16.507,19.567-39.865,55.555-28.777,64.266
		c11.547,9.073,19.852,1.088,22.885-2.757c3.488,0.916,8.561,1.802,15.187,1.802c8.208,0,18.789-1.37,31.615-5.714
		c1.263,5.12,2.291,10.592,4.167,16.469c4.618,14.471,14.65,27.313,16.998,30.195c-0.603,5.714-1.043,11.779-0.548,14.258
		c1.05,5.25,2.8,7,2.8,7s2.1,11.551,11.901,17.151c9.801,5.6,5.6,10.851,10.5,17.501c4.9,6.65,4.9,16.451,4.9,16.451
		s-16.451,27.301-18.551,36.752c-2.1,9.451,1.75,15.051,1.75,15.051s1.4,15.051-2.45,24.151c-3.85,9.1,3.15,13.301,3.15,13.301
		s-5.95,18.901-0.35,27.651c0,0,12.601-1.4,13.651-11.551c1.05-10.151-4.2-13.301-4.2-13.301l-0.7-3.5c0,0,3.85-2.8,3.15-8.75
		c-0.7-5.95,0-33.952,0-33.952s5.25-2.8,5.95-10.501c0.38-4.18,7.049-9.701,13.181-15.61c2.573,9.059,5.624,19.012,8.17,25.06
		c0,0-0.7,10.85,6.65,14.351c0,0,5.95,27.651,5.95,33.952c0,6.3-4.9,10.501-9.45,13.651c-4.55,3.15-5.95,10.851-5.95,10.851
		s11.901,3.85,22.051-0.7c0,0,2.45-3.5-0.7-8.05c-3.15-4.55,11.9-10.501,9.1-19.251c-2.8-8.75-11.201-28.352-10.151-37.802
		c1.05-9.451-2.8-15.401-2.8-15.401s-7-49.702-3.5-55.653c1.39-2.364,7.144-2.461,15.735-2.75l1.317,9.309l-6.202,0.792
		c0,0-4.2,2.45-3.85,7l11.251,0.682l0.3,2.118l13.301,1.05l-0.41-2.369l10.211,0.619l-0.625-20.214l12.298-4.177
		c2.842-0.831,5.24,0.546,8.175-0.589l17.019-5.108l-0.829-4.421c1.094-0.533,2.164-1.055,3.191-1.556
		c3.307,12.47,9.762,33.437,19.16,49.09c14.255,23.74-11.76,57.551-9.978,70.14c0,0-7.484,12.949-10.691,23.38
		c0,0,5.702,4.676,14.967,1.079c0,0,0.356-15.467,7.84-20.862c7.484-5.395,2.138-10.071,5.346-17.265
		c3.207-7.194,9.978-31.653,18.531-46.04c0,0-6.415-22.66-4.989-34.53c0.43-3.578,3.231-7.646,6.925-11.585
		c5.553,21.686,2.9,55.532,11.975,68.577c0,0,1.601,25.235-3.299,34.336c-4.9,9.1-0.161,13.2-0.161,13.2s-6.3,8.75-9.1,16.101
		c0,0,5.25,8.05,16.451,3.15l1.75-15.751c0,0,4.9-2.1,4.55-7.35c-0.35-5.25-1.75-30.451,2.45-41.302s5.95-14.001,4.55-26.951
		c-1.4-12.951,8.75-45.502,16.451-65.803c4.815-12.696,8.973-30.92,4.461-47.639c17.484,2.89,12.877,29.801,2.208,51.444
		c-4.436,8.998-7.393,21.823-6.769,34.242c-0.086,1.639-0.112,3.278-0.052,4.907c0.129,2.579,0.445,5.126,0.949,7.608
		c0.56,2.469,1.252,4.878,2.167,7.161c1.8,4.572,4.263,8.71,7.355,12.04c3.056,3.327,6.588,5.817,10.07,7.605
		c3.494,1.782,6.981,2.833,10.133,3.246c0.783,0.125,1.557,0.14,2.293,0.212c0.37,0.023,0.731,0.07,1.088,0.072
		c0.357-0.008,0.707-0.017,1.05-0.025c0.685-0.026,1.344-0.011,1.969-0.068c0.622-0.081,1.216-0.159,1.779-0.233
		c1.134-0.094,2.103-0.429,2.959-0.621c0.863-0.181,1.558-0.462,2.124-0.678c1.133-0.424,1.737-0.651,1.737-0.651
		s-0.614,0.196-1.766,0.563c-0.574,0.187-1.277,0.431-2.143,0.568c-0.862,0.144-1.828,0.437-2.954,0.49
		c-0.558,0.052-1.146,0.107-1.762,0.165c-0.617,0.034-1.267-0.006-1.94-0.005c-0.337-0.004-0.681-0.009-1.031-0.013
		c-0.35-0.014-0.704-0.075-1.066-0.111c-0.721-0.098-1.475-0.139-2.238-0.291c-3.067-0.524-6.421-1.677-9.787-3.468
		c-3.347-1.815-6.72-4.312-9.595-7.59c-2.878-3.239-5.17-7.322-6.899-11.743c-0.076-0.195-0.142-0.395-0.215-0.591
		C520.971,377.385,527.768,384.293,538.501,387.513z M552.33,371.287c-0.334-0.137-0.528-0.225-0.528-0.225
		C551.981,371.143,552.154,371.213,552.33,371.287z M243.937,219.88c1.964,1.885,3.557,3.826,4.869,5.831
		c-4.423,0.841-8.794,1.219-13.066,1.033C239.43,225.072,242.069,222.648,243.937,219.88z M241.941,166.607
		c-0.014,0.062-0.027,0.119-0.04,0.18c-2.367-0.197-4.623-0.042-6.776,0.383C237.891,166.236,240.204,166.266,241.941,166.607z
		 M208.59,243.432c0.355-0.507,0.545-0.826,0.545-0.826s7.341-8.002,24.29-14.894c5.214,0.474,10.582,0.08,16.017-0.989
		c2.396,3.97,3.8,8.182,4.953,12.668C231.816,247.057,216.362,245.393,208.59,243.432z M305.169,206.997
		c-2.615-1.235-4.074-2.852-4.919-4.708c9.891-6.845,18.951-13.984,26.493-19.927c10.599-8.353,18.97-14.95,22.431-15.148
		c2.023-0.118,4.581,0.053,5.329,1.506c-0.064-0.025-0.126-0.045-0.186-0.062c-3.528-0.984-13.088,7.166-29.687,21.65
		C318.689,195.493,312.071,201.266,305.169,206.997z M366.141,204.542l-0.373-0.044l-9.057,11.288l-10.632-7.744v-1.181l2.363,0.262
		l1.444-2.362c-1.969-5.775-15.094-7.613-16.538-4.725c-1.444,2.888,4.332,5.382,4.332,5.382l-4.069,6.169l0.394,5.119
		c0,0-2.231-4.463-4.988-3.806c-1.9,0.452-2.116,7.512-2.067,11.857c-2.26-0.577-4.465-1.215-6.595-1.933
		c1.262-5.708-5.458-9.631-5.458-9.631c4.296-0.781,8.202,5.468,8.202,5.468s3.125-6.64-13.279-10.155
		c-1.328-0.285-2.471-0.628-3.484-1.014c6.75-5.617,13.216-11.257,19.035-16.335c13.699-11.954,25.536-22.274,28.645-21.414
		c0.181,0.051,0.406,0.162,0.541,0.582c0.034,0.104,0.066,0.207,0.098,0.308c-0.06,0.3-0.152,0.61-0.264,0.924
		c-2.288,0.002-5.503,0.452-5.161,3.014c0,0-2.363,0.263-2.363,1.969s-2.231,0.525-1.444,2.625c0.787,2.1-3.807,2.363-0.525,5.382
		c1.778,1.636,4.829,5.389,8.566,8.362l-0.429,3.714c0,0,8.158,4.773,13.387,2.63L366.141,204.542z M425.553,161.335
		c-0.064-0.062-0.108-0.107-0.108-0.107L425.553,161.335z M408.951,212.242l8.269-6.957l-5.775-4.988l-5.644-1.181l-0.321,0.99
		l0.54-2.128l6.475-18.901l0.7,4.55l3.325,2.8l2.275-0.875l-1.05,2.625l3.5,1.75l1.575-0.875l-2.8,2.45l1.4,6.65
		c0,0,0.45,0.122,1.197,0.282l1.079,21.419l-6.825,5.425l-0.695,2.649c-2.231,0.094-4.471,0.192-6.719,0.29
		c0.754-1.263,1.733-3.535,2.251-7.313C412.626,214.211,408.951,212.242,408.951,212.242z"/>
</g>
</svg>
