<?xml version="1.0" encoding="utf-8"?>
<!-- Generator: Adobe Illustrator 27.5.0, SVG Export Plug-In . SVG Version: 6.00 Build 0)  -->
<svg version="1.1" xmlns="http://www.w3.org/2000/svg" xmlns:xlink="http://www.w3.org/1999/xlink" x="0px" y="0px"
	 viewBox="0 0 500 500" style="enable-background:new 0 0 500 500;" xml:space="preserve">
<g id="BACKGROUND">
	<rect id="XMLID_3_" style="fill:#FFFFFF;" width="500" height="500"/>
</g>
<g id="OBJECTS">
	<path id="XMLID_2_" style="fill:#231F20;" d="M500,408.465c0-0.646-32.056-0.666-34.364,0.851c-0.498,0.327-0.768,1.07-1.279,1.374
		c-1.168,0.696-2.985,0.376-4.321,0.906c-1.427,0.566-2.842,1.248-4.178,2.004c-2.234,1.265-3.925,2.156-6.576,2.11
		c-7.043-0.122-14.77,0.782-21.182-2.767c-1.294-0.717-1.949-1.917-3.009-2.707c-0.345-0.257-0.25-0.425-0.709-0.612
		c-1.412-0.576-3.526,0.473-4.741,1.043c-3.137,1.47-5.865,1.038-8.926-0.675c-2.432-1.361-4.49-3.255-7.075-4.386
		c-1.585-0.693-2.976-0.618-4.638-0.606c-2.345,0.017-4.462,0.001-6.671-0.518c-3.288-0.773-7.679-0.148-11.017-0.148
		c-3.415,0-6.608,0.105-10,0.441c-3.375,0.335-6.66,0.88-9.991,0.279c-0.814-0.147-1.659,0.113-2.472-0.137
		c-1.335-0.411-1.512-1.662-2.505-2.322c-1.847-1.227-5.179-1.082-7.33-1.877c-1.916-0.708-3.498-2.008-5.399-2.758
		c-2.174-0.858-4.054-0.805-6.298-1.107c-2.143-0.288-4.483-1.063-6.479-1.882c-6.605-2.71-14.397-1.984-21.322-3.826
		c-3.576-0.951-9.225-4.741-13.037-3.362c-2.242,0.811-3.383,4.574-4.979,5.932c-2.409,2.05-5.182,3.092-7.969,4.564
		c-20.653,10.908-46.778,10.185-69.409,10.185c-26.4,0-52.8,0-79.2,0c-38.388,0-76.775,0-115.163,0c-0.989,0-19.762,0-19.762,0
		C0,408.473,0,500,0,500h500C500,500,500,408.934,500,408.465z"/>
	<g id="XMLID_79_">
		<rect id="XMLID_17_" x="87.699" y="272.333" style="fill:#231F20;" width="106.391" height="60.667"/>
		<rect id="XMLID_70_" x="98.455" y="297" style="fill:#FFFFFF;" width="2.283" height="42.667"/>
		<rect id="XMLID_77_" x="188.634" y="297" style="fill:#FFFFFF;" width="2.283" height="42.667"/>
		<path id="XMLID_19_" style="fill:#FFFFFF;" d="M158.501,339.667h-23.289v-33.022c0-6.431,5.213-11.644,11.644-11.644l0,0
			c6.431,0,11.644,5.213,11.644,11.644V339.667z"/>
		<g id="XMLID_14_">
			<rect id="XMLID_8_" x="67.924" y="272.333" style="fill:#231F20;" width="19.775" height="80"/>
			<rect id="XMLID_9_" x="65.177" y="261.333" style="fill:#231F20;" width="25.269" height="12.333"/>
			<polygon id="XMLID_11_" style="fill:#231F20;" points="89.982,264 77.812,275.078 65.641,264 77.812,242.922 			"/>
			<path id="XMLID_13_" style="fill:#FFFFFF;" d="M80.924,287h-6.226v-6.364c0-1.64,1.33-2.97,2.97-2.97h0.286
				c1.64,0,2.97,1.33,2.97,2.97V287z"/>
			
				<line id="XMLID_15_" style="fill:none;stroke:#231F20;stroke-miterlimit:10;" x1="77.812" y1="245.746" x2="77.812" y2="222.667"/>
			<polygon id="XMLID_16_" style="fill:#231F20;" points="78.216,231.5 78.216,222.667 57.632,231.5 			"/>
		</g>
		<g id="XMLID_18_">
			<rect id="XMLID_28_" x="100.738" y="227.255" style="fill:#231F20;" width="19.775" height="80"/>
			<rect id="XMLID_27_" x="97.991" y="216.255" style="fill:#231F20;" width="25.269" height="12.333"/>
			<polygon id="XMLID_26_" style="fill:#231F20;" points="122.796,218.922 110.626,230 98.455,218.922 110.626,197.844 			"/>
			<path id="XMLID_21_" style="fill:#FFFFFF;" d="M113.739,241.922h-6.226v-6.364c0-1.64,1.33-2.97,2.97-2.97h0.286
				c1.64,0,2.97,1.33,2.97,2.97V241.922z"/>
		</g>
		<g id="XMLID_20_">
			<rect id="XMLID_63_" x="176.786" y="205.807" style="fill:#231F20;" width="12.99" height="52.549"/>
			<rect id="XMLID_62_" x="174.982" y="198.581" style="fill:#231F20;" width="16.598" height="8.101"/>
			<polygon id="XMLID_61_" style="fill:#231F20;" points="191.275,200.333 183.281,207.61 175.286,200.333 183.281,186.488 			"/>
			<path id="XMLID_58_" style="fill:#FFFFFF;" d="M185.325,215.441h-4.089v-4.18c0-1.077,0.873-1.951,1.951-1.951h0.188
				c1.077,0,1.951,0.873,1.951,1.951V215.441z"/>
		</g>
		<g id="XMLID_59_">
			<rect id="XMLID_68_" x="144.66" y="220.64" style="fill:#231F20;" width="12.99" height="52.549"/>
			<rect id="XMLID_67_" x="142.856" y="213.415" style="fill:#231F20;" width="16.598" height="8.101"/>
			<polygon id="XMLID_66_" style="fill:#231F20;" points="159.149,215.167 151.155,222.443 143.16,215.167 151.155,201.321 			"/>
			<path id="XMLID_60_" style="fill:#FFFFFF;" d="M153.199,230.274h-4.089v-4.18c0-1.077,0.873-1.951,1.951-1.951h0.188
				c1.077,0,1.951,0.873,1.951,1.951V230.274z"/>
		</g>
		<g id="XMLID_29_">
			<rect id="XMLID_37_" x="193.573" y="276.75" style="fill:#231F20;" width="19.775" height="80"/>
			<rect id="XMLID_36_" x="190.826" y="265.75" style="fill:#231F20;" width="25.269" height="12.333"/>
			<polygon id="XMLID_35_" style="fill:#231F20;" points="215.631,268.417 203.46,279.495 191.29,268.417 203.46,247.339 			"/>
			<path id="XMLID_32_" style="fill:#FFFFFF;" d="M206.573,291.417h-6.226v-6.364c0-1.64,1.33-2.97,2.97-2.97h0.286
				c1.64,0,2.97,1.33,2.97,2.97V291.417z"/>
			
				<line id="XMLID_31_" style="fill:none;stroke:#231F20;stroke-miterlimit:10;" x1="203.46" y1="250.162" x2="203.46" y2="227.083"/>
			<polygon id="XMLID_30_" style="fill:#231F20;" points="203.865,235.917 203.865,227.083 183.281,235.917 			"/>
		</g>
		<g id="XMLID_38_">
			<rect id="XMLID_46_" x="158.957" y="186.346" style="fill:#231F20;" width="14.992" height="60.65"/>
			<rect id="XMLID_45_" x="156.875" y="178.006" style="fill:#231F20;" width="19.157" height="9.35"/>
			<polygon id="XMLID_44_" style="fill:#231F20;" points="175.68,180.028 166.453,188.426 157.227,180.028 166.453,164.048 			"/>
			<path id="XMLID_41_" style="fill:#FFFFFF;" d="M168.813,197.465h-4.72v-4.824c0-1.243,1.008-2.251,2.251-2.251h0.217
				c1.243,0,2.251,1.008,2.251,2.251V197.465z"/>
			
				<line id="XMLID_40_" style="fill:none;stroke:#231F20;stroke-miterlimit:10;" x1="166.453" y1="166.189" x2="166.453" y2="148.692"/>
			<polygon id="XMLID_39_" style="fill:#231F20;" points="166.76,155.389 166.76,148.692 151.155,155.389 			"/>
		</g>
		<g id="XMLID_42_">
			<rect id="XMLID_55_" x="128.316" y="189.169" style="fill:#231F20;" width="14.992" height="60.65"/>
			<rect id="XMLID_53_" x="126.234" y="180.83" style="fill:#231F20;" width="19.157" height="9.35"/>
			<polygon id="XMLID_51_" style="fill:#231F20;" points="145.039,182.852 135.812,191.25 126.585,182.852 135.812,166.872 			"/>
			<path id="XMLID_48_" style="fill:#FFFFFF;" d="M138.172,200.288h-4.72v-4.824c0-1.243,1.008-2.251,2.251-2.251h0.217
				c1.243,0,2.251,1.008,2.251,2.251V200.288z"/>
			
				<line id="XMLID_47_" style="fill:none;stroke:#231F20;stroke-miterlimit:10;" x1="135.812" y1="169.012" x2="135.812" y2="151.516"/>
			<polygon id="XMLID_43_" style="fill:#231F20;" points="136.119,158.212 136.119,151.516 120.513,158.212 			"/>
		</g>
		<rect id="XMLID_56_" x="93.742" y="245.746" style="fill:#231F20;" width="98.568" height="29.332"/>
		<rect id="XMLID_57_" x="133.452" y="213.922" style="fill:#231F20;" width="35.361" height="39.578"/>
		<rect id="XMLID_4_" x="106.866" y="259.995" style="fill:#FFFFFF;" width="6.629" height="6.844"/>
		<rect id="XMLID_72_" x="123.943" y="259.995" style="fill:#FFFFFF;" width="6.629" height="6.844"/>
		<rect id="XMLID_73_" x="141.019" y="259.995" style="fill:#FFFFFF;" width="6.629" height="6.844"/>
		<rect id="XMLID_74_" x="158.095" y="259.995" style="fill:#FFFFFF;" width="6.629" height="6.844"/>
		<rect id="XMLID_75_" x="175.172" y="259.995" style="fill:#FFFFFF;" width="6.629" height="6.844"/>
		<rect id="XMLID_76_" x="93.742" y="241.922" style="fill:#231F20;" width="5.855" height="8.24"/>
		<rect id="XMLID_81_" x="123.307" y="241.922" style="fill:#231F20;" width="5.855" height="8.24"/>
	</g>
	<path id="XMLID_7_" style="fill:#231F20;" d="M153.498,323.966c0.593-0.284,1.217-0.55,1.887-0.788
		c6.161-2.191,14.929,1.577,21.209,2.216c4.289,0.437,8.549,0.509,12.877,0.617c7.809,0.197,14.617-0.311,21.514,3.308
		c4.15,2.178,8.084,5.758,9.687,10.105c0.561,1.522,0.746,3.168,1.433,4.648c2.026,4.369,7.998,5.687,11.644,8.55
		c1.733,1.361,3.034,3.047,4.881,4.298c2.929,1.984,5.646,2.72,8.931,3.732c1.682,0.518,2.565,0.971,3.452,2.371
		c0.695,1.097,0.614,0.111,0.651,1.956c0.027,1.339,0.123,2.624,0.304,3.96c0.245,1.805,0.563,3.554,1.034,5.315
		c0.262,0.98,0.492,3.779,1.297,4.643c1.18,1.268,2.16,0.379,3.503-0.135c2.099-0.803,4.066-1.127,6.32-1.108
		c3.361,0.029,6.74,0.075,10.101,0.021c3.155-0.051,6.233-0.69,9.404-0.669c1.099,0.007,2.03-0.331,2.604,0.675
		c0.538,0.943,0.18,2.684,0.469,3.755c0.472,1.755,1.732,5.458,3.486,6.533c1.359,0.833,3.243,0.275,4.763,0.491
		c1.634,0.232,3.215,0.94,4.702,1.598c2.232,0.987,4.18,2.38,6.217,3.673c6.616,4.199,13.528,8.114,21.007,10.783
		c15.401,5.496,33.6-1.655,50.104,3.698c4.09,1.327,4.532,3.138,7.506,4.736c3.93,2.112,4.889,2.46,10.101,3.473
		c9.532,1.851,18.336,6.196,27.273,9.766c-8.927,5.976-23.588,4.186-34.052,4.402c-6.562,0.136-12.508,2.559-18.849,2.509
		c-4.938-0.042-8.663-3.061-13.606-2.587c-5.628,0.54-12.249,2.909-18.448,3.413c-14.94,1.217-29.956,1.306-44.938,0.945
		c-28.973-0.698-57.883-3.212-86.879-3.103c-37.397,0.142-73.41,15.109-110.386,14.245c-22.162-0.518-43.561-11.756-66.923-11.491
		c-0.667-1.357-1.273-2.738-1.82-4.143c-0.844-2.169-20.426-7.498-24.763-11.14c-0.641-0.538-0.731-3.079-0.802-3.841
		c-0.158-1.709-0.049-3.443,0.525-5.08c0.64-1.827,1.963-3.036,2.98-4.62c0.543-0.845,0.711-1.879,1.297-2.689
		c1.538-2.126,5.47-2.979,8.007-3.278c2.462-0.29,5.078-0.021,7.559-0.024c1.277-0.002,2.97,0.275,4.204-0.128
		c-1.161-2.057-0.548-4.552-0.164-6.947c0.382-2.383,1.246-4.577,1.73-6.931c0.31-1.507,0.071-3.385,0.538-4.808
		c1.745-0.297,3.264-0.859,4.96-1.363c2.41-0.716,3.627-0.17,3.664-2.834c0.053-3.85-0.432-7.816,0.758-11.562
		c2.121-0.397,4.422,0.107,6.579-0.028c1.783-0.111,3.401-0.896,5.061-1.446c1.613-0.535,3.519-0.772,4.932-1.736
		c1.907-1.301,2.706-3.598,4.62-5.007c4.789-3.526,8.415-7.556,9.366-13.418c1.825-11.242-4.198-16.195,8.918-19.064
		c11.985-2.622,24.154,2.247,35.506,5.147c9.621,2.458,21.657,2.415,31.181-0.125C147.35,328.195,149.843,325.718,153.498,323.966z"
		/>
	<g id="XMLID_24_">
		<rect id="XMLID_22_" x="464.182" y="398.646" style="fill:#231F20;" width="1.714" height="12.64"/>
		<path id="XMLID_23_" style="fill:#231F20;" d="M465.253,404.644c0.008-0.059,0.017-0.118,0.025-0.178
			c0.69-0.242,1.499,0.223,2.123-0.224c0.328-0.235,0.471-0.665,0.855-0.894c0.249-0.079,0.455-0.218,0.618-0.417
			c0.01-0.109,0.024-0.217,0.041-0.325c0.349-0.542,0.995-0.677,1.06-1.385c0.069-0.747-0.239-1.11,0.613-1.338
			c-0.159-0.329-0.234-0.213-0.103-0.638c0.164-0.175,0.282-0.376,0.355-0.602c-0.032-0.171-0.022-0.341,0.028-0.51
			c0.081-0.553,0.337-0.963,0.001-1.471c-0.41-0.62-1.108-0.564-1.756-0.613c-0.033-0.346,0.029-0.817-0.317-1.02
			c-0.409-0.24-1.024,0.247-1.294,0.561c0.319-0.615,0.551-1.415-0.178-1.89c-0.26-0.17-0.715-0.213-1.025-0.218
			c-0.507-0.008-1.073,0.155-1.573,0.236c-0.41,0.067-0.812,0.286-1.247,0.235c-0.396-0.046-0.752-0.55-1.127-0.453
			c-0.56,0.144-0.895,2.412-1.824,1.253c-0.092-0.114-0.128-0.52-0.256-0.591c-0.181-0.101-0.242,0.073-0.374,0.09
			c-0.204,0.026-0.611,0.07-0.827,0.14c-0.037,0.431-0.173,0.729-0.24,1.144c-0.029,0.179-0.028,0.4-0.157,0.553
			c-0.221,0.263-0.293,0.061-0.497,0.187c-0.185,0.114-0.242,0.246-0.412,0.393c-0.216,0.187-0.476,0.164-0.715,0.257
			c-0.863,0.335-0.03,0.476,0.244,0.91c0.49,0.774-1.382,1.511-0.625,2.099c0.333,0.258,1.008,0.015,0.891,0.645
			c-0.075,0.404-0.762,0.436-0.87,0.791c0.562,0.242,1.012,0.405,1.08,1.082c0.035,0.351-0.136,0.521,0.179,0.701
			c0.086,0.049,0.519,0.048,0.654,0.086c0.23,0.066,0.449,0.163,0.672,0.249c0.204,0.079,1.231,0.302,0.923,0.507
			c0.482,0.409,1.729,0.4,1.664,1.257c0.535,0.222,1.048-0.316,1.641-0.145c0.012,0.059,0.024,0.118,0.037,0.178
			c-0.197-0.647,0.134-0.643,0.518-0.651c0.788-0.016,1.067-0.109,1.839-0.42"/>
	</g>
	<g id="XMLID_33_">
		<rect id="XMLID_49_" x="471.988" y="392.017" style="fill:#231F20;" width="2.667" height="19.667"/>
		<path id="XMLID_34_" style="fill:#231F20;" d="M473.654,401.35c0.013-0.092,0.026-0.184,0.038-0.276
			c1.074-0.377,2.332,0.347,3.304-0.349c0.511-0.366,0.733-1.035,1.331-1.392c0.388-0.123,0.708-0.339,0.961-0.648
			c0.016-0.169,0.037-0.337,0.064-0.505c0.542-0.844,1.548-1.054,1.649-2.155c0.107-1.162-0.372-1.728,0.954-2.082
			c-0.247-0.512-0.364-0.331-0.161-0.992c0.254-0.273,0.439-0.585,0.553-0.937c-0.049-0.266-0.035-0.531,0.044-0.794
			c0.127-0.86,0.524-1.499,0.002-2.29c-0.638-0.965-1.724-0.878-2.732-0.953c-0.052-0.538,0.045-1.271-0.493-1.587
			c-0.636-0.374-1.593,0.384-2.013,0.872c0.496-0.956,0.857-2.203-0.276-2.941c-0.405-0.264-1.112-0.332-1.594-0.339
			c-0.789-0.013-1.669,0.24-2.447,0.368c-0.639,0.105-1.263,0.445-1.941,0.366c-0.616-0.072-1.17-0.856-1.754-0.705
			c-0.871,0.225-1.392,3.753-2.839,1.949c-0.142-0.177-0.2-0.808-0.398-0.919c-0.282-0.157-0.376,0.114-0.582,0.14
			c-0.318,0.041-0.951,0.108-1.287,0.218c-0.058,0.671-0.27,1.133-0.374,1.78c-0.045,0.279-0.044,0.622-0.244,0.861
			c-0.343,0.409-0.456,0.095-0.774,0.291c-0.287,0.177-0.376,0.383-0.641,0.611c-0.336,0.29-0.741,0.255-1.113,0.4
			c-1.342,0.521-0.047,0.74,0.38,1.415c0.762,1.205-2.151,2.352-0.972,3.266c0.518,0.402,1.568,0.023,1.386,1.004
			c-0.117,0.629-1.186,0.678-1.354,1.231c0.875,0.377,1.575,0.629,1.681,1.683c0.055,0.547-0.212,0.811,0.278,1.091
			c0.133,0.076,0.808,0.074,1.017,0.134c0.358,0.103,0.699,0.253,1.045,0.387c0.317,0.123,1.915,0.47,1.436,0.788
			c0.751,0.636,2.69,0.623,2.589,1.956c0.832,0.346,1.631-0.491,2.554-0.225c0.019,0.092,0.038,0.184,0.057,0.276
			c-0.307-1.007,0.209-1,0.805-1.012c1.226-0.025,1.66-0.169,2.861-0.654"/>
	</g>
	<g id="XMLID_50_">
		<rect id="XMLID_91_" x="483.075" y="398.112" style="fill:#231F20;" width="1.714" height="12.64"/>
		<path id="XMLID_87_" style="fill:#231F20;" d="M484.147,404.111c0.008-0.059,0.016-0.118,0.025-0.178
			c0.69-0.242,1.499,0.223,2.123-0.224c0.328-0.235,0.471-0.665,0.855-0.894c0.249-0.079,0.455-0.218,0.618-0.417
			c0.01-0.109,0.024-0.217,0.041-0.325c0.349-0.542,0.995-0.677,1.06-1.385c0.069-0.746-0.239-1.11,0.613-1.338
			c-0.159-0.329-0.234-0.213-0.103-0.638c0.164-0.175,0.282-0.376,0.355-0.602c-0.032-0.171-0.022-0.341,0.028-0.51
			c0.082-0.553,0.337-0.963,0.001-1.471c-0.41-0.62-1.108-0.564-1.756-0.613c-0.033-0.346,0.029-0.817-0.317-1.02
			c-0.409-0.24-1.024,0.247-1.294,0.561c0.319-0.615,0.551-1.415-0.178-1.89c-0.26-0.17-0.715-0.213-1.025-0.218
			c-0.507-0.008-1.073,0.155-1.573,0.236c-0.411,0.067-0.812,0.286-1.247,0.235c-0.396-0.046-0.752-0.55-1.127-0.453
			c-0.56,0.144-0.895,2.412-1.824,1.253c-0.091-0.114-0.128-0.52-0.256-0.591c-0.181-0.101-0.242,0.073-0.374,0.09
			c-0.204,0.026-0.611,0.07-0.827,0.14c-0.037,0.431-0.173,0.728-0.24,1.144c-0.029,0.179-0.028,0.4-0.157,0.553
			c-0.221,0.263-0.293,0.061-0.498,0.187c-0.185,0.114-0.242,0.246-0.412,0.393c-0.216,0.187-0.476,0.164-0.715,0.257
			c-0.863,0.335-0.03,0.476,0.244,0.91c0.49,0.774-1.382,1.511-0.625,2.099c0.333,0.258,1.008,0.015,0.891,0.645
			c-0.075,0.404-0.762,0.436-0.87,0.791c0.562,0.242,1.012,0.405,1.08,1.082c0.035,0.351-0.137,0.521,0.179,0.701
			c0.086,0.049,0.519,0.048,0.654,0.086c0.23,0.066,0.449,0.163,0.672,0.249c0.204,0.079,1.231,0.302,0.923,0.507
			c0.482,0.409,1.729,0.4,1.664,1.257c0.535,0.222,1.048-0.316,1.641-0.145c0.012,0.059,0.024,0.118,0.037,0.178
			c-0.197-0.647,0.134-0.643,0.518-0.651c0.788-0.016,1.067-0.109,1.839-0.42"/>
	</g>
	<g id="XMLID_92_">
		<rect id="XMLID_94_" x="492.167" y="390.218" style="fill:#231F20;" width="2.667" height="19.667"/>
		<path id="XMLID_156_" style="fill:#231F20;" d="M500,386.189c-0.053-0.003-0.107-0.006-0.16-0.01
			c-0.052-0.538,0.045-1.271-0.493-1.587c-0.636-0.374-1.593,0.384-2.013,0.872c0.496-0.956,0.857-2.202-0.276-2.941
			c-0.405-0.264-1.112-0.332-1.594-0.339c-0.789-0.013-1.669,0.24-2.447,0.368c-0.639,0.105-1.263,0.445-1.941,0.366
			c-0.616-0.072-1.17-0.856-1.754-0.705c-0.871,0.225-1.392,3.753-2.839,1.949c-0.142-0.177-0.2-0.808-0.398-0.919
			c-0.282-0.157-0.376,0.114-0.581,0.14c-0.318,0.041-0.951,0.108-1.287,0.218c-0.058,0.671-0.27,1.133-0.374,1.78
			c-0.045,0.279-0.044,0.622-0.244,0.861c-0.343,0.409-0.456,0.095-0.774,0.291c-0.288,0.177-0.376,0.383-0.641,0.611
			c-0.336,0.29-0.741,0.255-1.113,0.4c-1.342,0.521-0.047,0.74,0.38,1.415c0.762,1.205-2.151,2.352-0.972,3.266
			c0.518,0.401,1.568,0.023,1.386,1.004c-0.117,0.629-1.186,0.678-1.354,1.231c0.875,0.377,1.575,0.629,1.681,1.683
			c0.055,0.547-0.212,0.811,0.278,1.091c0.133,0.076,0.808,0.074,1.017,0.134c0.358,0.103,0.699,0.253,1.045,0.387
			c0.317,0.123,1.915,0.47,1.436,0.788c0.751,0.636,2.69,0.623,2.59,1.956c0.83,0.345,1.626-0.485,2.546-0.226
			c-0.128-0.722,0.337-0.724,0.871-0.735c1.226-0.025,1.66-0.169,2.861-0.654l-0.435,0.29c0.942-0.076,1.96,0.337,2.777-0.249
			c0.511-0.366,0.733-1.035,1.331-1.392c0.388-0.123,0.708-0.339,0.962-0.648c0.016-0.169,0.037-0.337,0.064-0.505
			c0.135-0.209,0.298-0.379,0.468-0.534V386.189z"/>
	</g>
	<g id="XMLID_95_">
		<rect id="XMLID_97_" x="477.351" y="391.384" style="fill:#231F20;" width="2.667" height="19.667"/>
		<path id="XMLID_96_" style="fill:#231F20;" d="M479.017,400.718c0.013-0.092,0.026-0.184,0.039-0.276
			c1.074-0.377,2.332,0.347,3.304-0.349c0.511-0.366,0.733-1.035,1.331-1.392c0.388-0.123,0.708-0.339,0.961-0.648
			c0.016-0.169,0.037-0.337,0.064-0.505c0.542-0.844,1.548-1.054,1.649-2.154c0.107-1.162-0.372-1.728,0.954-2.082
			c-0.247-0.513-0.364-0.332-0.161-0.992c0.255-0.273,0.439-0.585,0.553-0.936c-0.049-0.266-0.035-0.531,0.044-0.794
			c0.127-0.86,0.524-1.499,0.002-2.289c-0.638-0.965-1.724-0.878-2.732-0.953c-0.052-0.538,0.045-1.271-0.493-1.587
			c-0.636-0.374-1.593,0.384-2.013,0.872c0.496-0.956,0.857-2.202-0.276-2.941c-0.405-0.264-1.112-0.332-1.594-0.339
			c-0.789-0.013-1.669,0.24-2.447,0.368c-0.639,0.105-1.263,0.445-1.941,0.366c-0.616-0.072-1.17-0.856-1.754-0.705
			c-0.871,0.225-1.392,3.753-2.839,1.949c-0.142-0.178-0.2-0.808-0.398-0.919c-0.282-0.157-0.376,0.114-0.582,0.14
			c-0.317,0.041-0.951,0.108-1.287,0.218c-0.058,0.671-0.27,1.133-0.374,1.78c-0.045,0.279-0.044,0.622-0.244,0.861
			c-0.343,0.409-0.456,0.095-0.774,0.291c-0.287,0.177-0.376,0.383-0.641,0.611c-0.336,0.29-0.741,0.255-1.113,0.4
			c-1.342,0.521-0.047,0.74,0.38,1.415c0.762,1.205-2.151,2.352-0.972,3.266c0.518,0.402,1.568,0.023,1.386,1.004
			c-0.117,0.629-1.186,0.678-1.354,1.231c0.875,0.377,1.575,0.629,1.681,1.683c0.055,0.547-0.212,0.811,0.278,1.091
			c0.133,0.076,0.808,0.074,1.017,0.134c0.358,0.103,0.699,0.253,1.045,0.387c0.317,0.123,1.915,0.47,1.436,0.788
			c0.751,0.636,2.69,0.623,2.59,1.956c0.832,0.346,1.631-0.491,2.554-0.225c0.019,0.092,0.038,0.184,0.057,0.276
			c-0.307-1.007,0.209-1,0.805-1.013c1.226-0.025,1.66-0.169,2.861-0.654"/>
	</g>
	<g id="XMLID_98_">
		<rect id="XMLID_100_" x="449.998" y="401.218" style="fill:#231F20;" width="2.667" height="19.667"/>
		<path id="XMLID_99_" style="fill:#231F20;" d="M451.665,410.551c0.013-0.092,0.026-0.184,0.039-0.276
			c1.074-0.377,2.332,0.347,3.304-0.349c0.511-0.366,0.733-1.035,1.331-1.392c0.388-0.123,0.708-0.339,0.961-0.648
			c0.016-0.169,0.037-0.337,0.064-0.505c0.542-0.844,1.548-1.054,1.649-2.155c0.107-1.162-0.372-1.728,0.954-2.083
			c-0.247-0.512-0.364-0.332-0.161-0.992c0.254-0.273,0.439-0.585,0.553-0.936c-0.049-0.266-0.035-0.531,0.044-0.794
			c0.127-0.86,0.524-1.499,0.002-2.289c-0.638-0.965-1.724-0.878-2.732-0.953c-0.052-0.538,0.045-1.271-0.493-1.587
			c-0.636-0.374-1.593,0.384-2.013,0.872c0.496-0.956,0.857-2.202-0.276-2.941c-0.405-0.264-1.112-0.332-1.594-0.339
			c-0.789-0.013-1.669,0.24-2.447,0.368c-0.639,0.105-1.263,0.445-1.941,0.366c-0.616-0.072-1.17-0.856-1.754-0.705
			c-0.871,0.225-1.393,3.753-2.839,1.949c-0.142-0.177-0.2-0.808-0.398-0.919c-0.282-0.157-0.376,0.114-0.581,0.14
			c-0.318,0.041-0.951,0.109-1.287,0.218c-0.058,0.671-0.27,1.133-0.374,1.78c-0.045,0.279-0.044,0.622-0.244,0.861
			c-0.343,0.409-0.456,0.095-0.774,0.291c-0.287,0.177-0.376,0.382-0.641,0.611c-0.336,0.29-0.741,0.255-1.113,0.4
			c-1.342,0.521-0.047,0.74,0.38,1.415c0.762,1.205-2.151,2.352-0.972,3.266c0.518,0.402,1.568,0.023,1.386,1.004
			c-0.117,0.629-1.186,0.678-1.354,1.231c0.875,0.377,1.575,0.629,1.681,1.683c0.055,0.547-0.212,0.811,0.278,1.091
			c0.133,0.076,0.807,0.074,1.017,0.134c0.358,0.103,0.699,0.253,1.045,0.387c0.317,0.123,1.915,0.47,1.436,0.788
			c0.751,0.636,2.69,0.623,2.589,1.956c0.832,0.346,1.631-0.491,2.554-0.225c0.019,0.092,0.038,0.184,0.057,0.276
			c-0.307-1.007,0.209-1,0.806-1.012c1.226-0.025,1.66-0.169,2.861-0.654"/>
	</g>
	<g id="XMLID_101_">
		<rect id="XMLID_103_" x="456.486" y="392.212" style="fill:#231F20;" width="2.667" height="23.489"/>
		<path id="XMLID_102_" style="fill:#231F20;" d="M458.153,403.359c0.013-0.11,0.026-0.22,0.039-0.33
			c1.074-0.451,2.332,0.415,3.304-0.417c0.511-0.437,0.733-1.236,1.331-1.662c0.388-0.146,0.708-0.404,0.961-0.774
			c0.016-0.202,0.037-0.403,0.064-0.603c0.542-1.008,1.548-1.259,1.649-2.573c0.107-1.387-0.372-2.064,0.954-2.487
			c-0.247-0.612-0.364-0.396-0.161-1.185c0.254-0.326,0.439-0.699,0.553-1.118c-0.049-0.318-0.035-0.634,0.044-0.948
			c0.127-1.027,0.524-1.79,0.002-2.734c-0.638-1.153-1.724-1.048-2.732-1.138c-0.052-0.642,0.045-1.518-0.493-1.896
			c-0.636-0.447-1.593,0.459-2.013,1.041c0.496-1.142,0.857-2.63-0.276-3.512c-0.405-0.315-1.112-0.396-1.594-0.405
			c-0.789-0.015-1.669,0.287-2.447,0.439c-0.639,0.125-1.263,0.531-1.941,0.437c-0.616-0.086-1.17-1.022-1.754-0.842
			c-0.871,0.268-1.392,4.483-2.839,2.328c-0.142-0.212-0.2-0.965-0.398-1.097c-0.282-0.187-0.376,0.136-0.582,0.167
			c-0.317,0.049-0.951,0.13-1.287,0.26c-0.058,0.801-0.27,1.354-0.374,2.126c-0.045,0.333-0.044,0.743-0.244,1.028
			c-0.343,0.488-0.456,0.113-0.774,0.348c-0.287,0.212-0.376,0.457-0.641,0.73c-0.336,0.347-0.741,0.305-1.113,0.477
			c-1.342,0.623-0.047,0.884,0.38,1.69c0.762,1.439-2.151,2.809-0.972,3.901c0.518,0.48,1.568,0.028,1.386,1.199
			c-0.117,0.752-1.186,0.809-1.354,1.471c0.875,0.45,1.575,0.752,1.681,2.01c0.055,0.653-0.212,0.969,0.278,1.303
			c0.133,0.091,0.808,0.089,1.017,0.16c0.358,0.123,0.699,0.302,1.045,0.463c0.317,0.147,1.915,0.561,1.436,0.941
			c0.751,0.759,2.69,0.744,2.59,2.336c0.832,0.413,1.631-0.587,2.554-0.268c0.019,0.11,0.038,0.22,0.057,0.33
			c-0.307-1.203,0.209-1.195,0.805-1.209c1.226-0.03,1.66-0.202,2.861-0.781"/>
	</g>
	<g id="XMLID_107_">
		<rect id="XMLID_109_" x="481.323" y="386.658" style="fill:#231F20;" width="2.667" height="23.489"/>
		<path id="XMLID_108_" style="fill:#231F20;" d="M482.99,397.806c0.013-0.11,0.026-0.22,0.039-0.33
			c1.074-0.451,2.332,0.415,3.304-0.417c0.511-0.437,0.733-1.236,1.331-1.662c0.388-0.147,0.708-0.405,0.961-0.774
			c0.016-0.202,0.037-0.403,0.064-0.603c0.542-1.008,1.548-1.259,1.649-2.573c0.107-1.387-0.372-2.064,0.954-2.487
			c-0.247-0.612-0.364-0.396-0.161-1.185c0.254-0.326,0.439-0.699,0.553-1.118c-0.049-0.318-0.035-0.634,0.044-0.948
			c0.127-1.027,0.524-1.79,0.002-2.734c-0.638-1.153-1.724-1.048-2.732-1.138c-0.052-0.642,0.045-1.518-0.493-1.896
			c-0.636-0.447-1.593,0.459-2.013,1.042c0.496-1.142,0.857-2.63-0.276-3.513c-0.405-0.315-1.112-0.396-1.594-0.405
			c-0.789-0.015-1.669,0.287-2.447,0.439c-0.639,0.125-1.263,0.531-1.941,0.437c-0.616-0.086-1.17-1.022-1.754-0.842
			c-0.871,0.268-1.392,4.483-2.839,2.328c-0.142-0.212-0.2-0.965-0.398-1.097c-0.282-0.188-0.376,0.136-0.581,0.168
			c-0.318,0.048-0.951,0.13-1.287,0.26c-0.058,0.801-0.27,1.354-0.374,2.126c-0.045,0.333-0.044,0.743-0.244,1.028
			c-0.343,0.488-0.456,0.114-0.774,0.348c-0.287,0.212-0.376,0.457-0.641,0.73c-0.336,0.347-0.741,0.305-1.113,0.477
			c-1.342,0.623-0.047,0.884,0.38,1.69c0.762,1.439-2.151,2.809-0.972,3.9c0.518,0.48,1.568,0.028,1.386,1.199
			c-0.117,0.752-1.186,0.809-1.354,1.471c0.875,0.45,1.575,0.752,1.681,2.01c0.055,0.653-0.212,0.969,0.278,1.303
			c0.133,0.091,0.808,0.089,1.017,0.16c0.358,0.123,0.699,0.302,1.045,0.463c0.317,0.147,1.915,0.561,1.436,0.941
			c0.751,0.759,2.69,0.744,2.59,2.336c0.832,0.413,1.631-0.587,2.554-0.269c0.019,0.11,0.038,0.22,0.057,0.33
			c-0.307-1.203,0.209-1.195,0.805-1.209c1.226-0.03,1.66-0.202,2.861-0.781"/>
	</g>
	<g id="XMLID_119_">
		<rect id="XMLID_121_" x="491.085" y="394.797" style="fill:#231F20;" width="2.667" height="23.489"/>
		<path id="XMLID_157_" style="fill:#231F20;" d="M500,390.09c-0.403-0.072-0.828-0.08-1.242-0.117
			c-0.052-0.642,0.045-1.518-0.493-1.896c-0.636-0.447-1.593,0.459-2.013,1.042c0.496-1.142,0.857-2.631-0.276-3.513
			c-0.405-0.315-1.112-0.396-1.594-0.405c-0.789-0.015-1.669,0.287-2.447,0.439c-0.639,0.125-1.263,0.531-1.941,0.437
			c-0.616-0.086-1.169-1.022-1.754-0.842c-0.871,0.268-1.393,4.483-2.839,2.327c-0.142-0.212-0.2-0.965-0.398-1.097
			c-0.282-0.187-0.376,0.136-0.582,0.168c-0.318,0.048-0.951,0.129-1.287,0.26c-0.058,0.801-0.27,1.354-0.374,2.126
			c-0.045,0.333-0.044,0.743-0.244,1.028c-0.343,0.488-0.456,0.113-0.774,0.348c-0.287,0.212-0.376,0.457-0.641,0.73
			c-0.336,0.347-0.741,0.305-1.113,0.478c-1.342,0.623-0.047,0.884,0.38,1.69c0.762,1.439-2.151,2.809-0.972,3.9
			c0.518,0.48,1.568,0.028,1.386,1.199c-0.117,0.752-1.186,0.809-1.354,1.471c0.875,0.45,1.575,0.752,1.681,2.01
			c0.055,0.653-0.212,0.969,0.278,1.303c0.133,0.091,0.808,0.089,1.017,0.16c0.358,0.123,0.699,0.302,1.045,0.463
			c0.317,0.147,1.915,0.561,1.436,0.941c0.751,0.759,2.69,0.744,2.59,2.336c0.83,0.412,1.626-0.58,2.546-0.27
			c-0.128-0.863,0.336-0.864,0.871-0.878c1.226-0.03,1.66-0.202,2.861-0.781l-0.435,0.346c0.942-0.09,1.96,0.402,2.777-0.297
			c0.511-0.438,0.733-1.236,1.331-1.662c0.388-0.146,0.708-0.404,0.961-0.774c0.016-0.202,0.037-0.403,0.064-0.603
			c0.465-0.864,1.265-1.176,1.55-2.073V390.09z"/>
	</g>
	<g id="XMLID_104_">
		<rect id="XMLID_106_" x="440.505" y="402.67" style="fill:#231F20;" width="2.018" height="17.777"/>
		<path id="XMLID_105_" style="fill:#231F20;" d="M441.766,411.107c0.01-0.083,0.019-0.167,0.029-0.25
			c0.813-0.341,1.765,0.314,2.5-0.316c0.387-0.331,0.555-0.936,1.007-1.258c0.293-0.111,0.536-0.306,0.728-0.586
			c0.012-0.153,0.028-0.305,0.048-0.456c0.41-0.763,1.172-0.953,1.248-1.947c0.081-1.05-0.282-1.562,0.722-1.882
			c-0.187-0.463-0.276-0.3-0.122-0.897c0.192-0.247,0.332-0.529,0.418-0.846c-0.037-0.241-0.026-0.48,0.033-0.717
			c0.096-0.777,0.397-1.355,0.001-2.069c-0.483-0.872-1.305-0.793-2.068-0.862c-0.039-0.486,0.034-1.149-0.373-1.435
			c-0.481-0.338-1.206,0.347-1.524,0.788c0.376-0.864,0.649-1.991-0.209-2.658c-0.307-0.238-0.841-0.3-1.207-0.307
			c-0.597-0.011-1.263,0.217-1.852,0.332c-0.483,0.095-0.956,0.402-1.469,0.331c-0.466-0.065-0.885-0.773-1.327-0.637
			c-0.659,0.203-1.054,3.393-2.148,1.762c-0.108-0.16-0.151-0.73-0.301-0.83c-0.213-0.142-0.284,0.103-0.44,0.127
			c-0.24,0.037-0.72,0.098-0.974,0.197c-0.044,0.606-0.204,1.024-0.283,1.609c-0.034,0.252-0.033,0.563-0.185,0.778
			c-0.26,0.369-0.345,0.086-0.586,0.263c-0.217,0.16-0.285,0.346-0.485,0.552c-0.255,0.262-0.561,0.231-0.842,0.361
			c-1.016,0.471-0.036,0.669,0.287,1.279c0.577,1.089-1.628,2.126-0.736,2.952c0.392,0.363,1.187,0.021,1.049,0.908
			c-0.088,0.569-0.898,0.613-1.025,1.113c0.662,0.341,1.192,0.569,1.272,1.521c0.042,0.494-0.161,0.733,0.211,0.987
			c0.101,0.069,0.611,0.067,0.77,0.121c0.271,0.093,0.529,0.229,0.791,0.35c0.24,0.111,1.449,0.424,1.087,0.712
			c0.568,0.575,2.036,0.563,1.96,1.768c0.63,0.313,1.234-0.444,1.933-0.203c0.014,0.083,0.029,0.167,0.043,0.25
			c-0.232-0.91,0.158-0.904,0.61-0.915c0.928-0.023,1.256-0.153,2.165-0.591"/>
	</g>
	<g id="XMLID_110_">
		<rect id="XMLID_112_" x="447.086" y="402.67" style="fill:#231F20;" width="2.018" height="17.777"/>
		<path id="XMLID_111_" style="fill:#231F20;" d="M448.348,411.107c0.01-0.083,0.02-0.167,0.029-0.25
			c0.813-0.341,1.765,0.314,2.5-0.316c0.387-0.331,0.555-0.936,1.007-1.258c0.293-0.111,0.536-0.306,0.728-0.586
			c0.012-0.153,0.028-0.305,0.048-0.456c0.41-0.763,1.172-0.953,1.248-1.947c0.081-1.05-0.282-1.562,0.722-1.882
			c-0.187-0.463-0.276-0.3-0.122-0.897c0.193-0.247,0.332-0.529,0.418-0.846c-0.037-0.241-0.026-0.48,0.033-0.717
			c0.096-0.777,0.397-1.355,0.001-2.069c-0.483-0.872-1.305-0.793-2.068-0.862c-0.039-0.486,0.034-1.149-0.373-1.435
			c-0.481-0.338-1.206,0.347-1.524,0.788c0.375-0.864,0.649-1.991-0.209-2.658c-0.307-0.238-0.842-0.3-1.207-0.307
			c-0.597-0.011-1.263,0.217-1.852,0.332c-0.483,0.095-0.956,0.402-1.469,0.331c-0.466-0.065-0.885-0.773-1.327-0.637
			c-0.659,0.203-1.054,3.393-2.148,1.762c-0.108-0.16-0.151-0.73-0.301-0.83c-0.213-0.142-0.284,0.103-0.44,0.127
			c-0.24,0.037-0.72,0.098-0.974,0.197c-0.044,0.606-0.204,1.024-0.283,1.609c-0.034,0.252-0.033,0.563-0.185,0.778
			c-0.26,0.369-0.345,0.086-0.586,0.263c-0.217,0.16-0.285,0.346-0.485,0.552c-0.255,0.262-0.561,0.231-0.842,0.361
			c-1.016,0.471-0.036,0.669,0.287,1.279c0.577,1.089-1.628,2.126-0.736,2.952c0.392,0.363,1.187,0.021,1.049,0.908
			c-0.088,0.569-0.898,0.613-1.025,1.113c0.662,0.341,1.192,0.569,1.272,1.521c0.042,0.494-0.161,0.733,0.21,0.987
			c0.101,0.069,0.611,0.067,0.77,0.121c0.271,0.093,0.529,0.229,0.791,0.35c0.24,0.111,1.45,0.424,1.087,0.712
			c0.568,0.575,2.036,0.563,1.96,1.768c0.63,0.313,1.234-0.444,1.933-0.203c0.014,0.083,0.029,0.167,0.043,0.25
			c-0.232-0.91,0.158-0.904,0.61-0.915c0.928-0.023,1.256-0.153,2.165-0.591"/>
	</g>
	<g id="XMLID_155_">
		<rect id="XMLID_161_" x="384.299" y="397.04" style="fill:#231F20;" width="1.156" height="10.184"/>
		<path id="XMLID_160_" style="fill:#231F20;" d="M385.021,401.873c0.006-0.048,0.011-0.095,0.017-0.143
			c0.466-0.195,1.011,0.18,1.432-0.181c0.221-0.19,0.318-0.536,0.577-0.721c0.168-0.064,0.307-0.175,0.417-0.336
			c0.007-0.088,0.016-0.175,0.028-0.262c0.235-0.437,0.671-0.546,0.715-1.116c0.046-0.602-0.161-0.895,0.413-1.078
			c-0.107-0.265-0.158-0.172-0.07-0.514c0.11-0.141,0.19-0.303,0.24-0.485c-0.021-0.138-0.015-0.275,0.019-0.411
			c0.055-0.445,0.227-0.776,0.001-1.186c-0.277-0.5-0.747-0.454-1.185-0.493c-0.022-0.279,0.02-0.658-0.214-0.822
			c-0.276-0.194-0.691,0.199-0.873,0.452c0.215-0.495,0.372-1.141-0.12-1.523c-0.176-0.137-0.482-0.172-0.691-0.176
			c-0.342-0.007-0.724,0.124-1.061,0.19c-0.277,0.054-0.548,0.23-0.842,0.19c-0.267-0.037-0.507-0.443-0.76-0.365
			c-0.378,0.116-0.604,1.944-1.231,1.009c-0.062-0.092-0.087-0.419-0.173-0.476c-0.122-0.081-0.163,0.059-0.252,0.073
			c-0.138,0.021-0.412,0.056-0.558,0.113c-0.025,0.348-0.117,0.587-0.162,0.922c-0.02,0.145-0.019,0.322-0.106,0.446
			c-0.149,0.212-0.198,0.049-0.336,0.151c-0.125,0.092-0.163,0.198-0.278,0.316c-0.146,0.15-0.321,0.132-0.483,0.207
			c-0.582,0.27-0.02,0.384,0.165,0.733c0.331,0.624-0.933,1.218-0.422,1.691c0.225,0.208,0.68,0.012,0.601,0.52
			c-0.051,0.326-0.514,0.351-0.587,0.638c0.379,0.195,0.683,0.326,0.729,0.871c0.024,0.283-0.092,0.42,0.121,0.565
			c0.058,0.039,0.35,0.038,0.441,0.069c0.155,0.053,0.303,0.131,0.453,0.201c0.137,0.064,0.83,0.243,0.622,0.408
			c0.326,0.329,1.167,0.323,1.123,1.013c0.361,0.179,0.707-0.255,1.107-0.117c0.008,0.048,0.016,0.096,0.025,0.143
			c-0.133-0.522,0.091-0.518,0.349-0.524c0.531-0.013,0.72-0.088,1.241-0.339"/>
	</g>
	<g id="XMLID_165_">
		<rect id="XMLID_167_" x="392.522" y="401.307" style="fill:#231F20;" width="1.156" height="10.184"/>
		<path id="XMLID_166_" style="fill:#231F20;" d="M393.245,406.14c0.006-0.048,0.011-0.095,0.017-0.143
			c0.466-0.195,1.011,0.18,1.432-0.181c0.221-0.19,0.318-0.536,0.577-0.721c0.168-0.064,0.307-0.175,0.417-0.336
			c0.007-0.087,0.016-0.175,0.028-0.261c0.235-0.437,0.671-0.546,0.715-1.116c0.046-0.602-0.161-0.895,0.414-1.078
			c-0.107-0.265-0.158-0.172-0.07-0.514c0.11-0.141,0.19-0.303,0.24-0.485c-0.021-0.138-0.015-0.275,0.019-0.411
			c0.055-0.445,0.227-0.776,0.001-1.186c-0.277-0.5-0.747-0.454-1.185-0.494c-0.022-0.278,0.02-0.658-0.214-0.822
			c-0.276-0.194-0.691,0.199-0.873,0.452c0.215-0.495,0.372-1.141-0.12-1.523c-0.176-0.137-0.482-0.172-0.691-0.176
			c-0.342-0.007-0.724,0.124-1.061,0.19c-0.277,0.054-0.548,0.23-0.842,0.19c-0.267-0.037-0.507-0.443-0.76-0.365
			c-0.378,0.116-0.604,1.944-1.231,1.009c-0.062-0.092-0.087-0.418-0.173-0.476c-0.122-0.081-0.163,0.059-0.252,0.073
			c-0.138,0.021-0.413,0.056-0.558,0.113c-0.025,0.348-0.117,0.587-0.162,0.922c-0.02,0.145-0.019,0.322-0.106,0.446
			c-0.149,0.212-0.198,0.049-0.336,0.151c-0.125,0.092-0.163,0.198-0.278,0.316c-0.146,0.15-0.321,0.132-0.483,0.207
			c-0.582,0.27-0.02,0.383,0.165,0.733c0.331,0.624-0.933,1.218-0.422,1.691c0.224,0.208,0.68,0.012,0.601,0.52
			c-0.051,0.326-0.514,0.351-0.587,0.638c0.379,0.195,0.683,0.326,0.729,0.871c0.024,0.283-0.092,0.42,0.121,0.565
			c0.058,0.039,0.35,0.038,0.441,0.069c0.155,0.053,0.303,0.131,0.453,0.201c0.137,0.064,0.83,0.243,0.622,0.408
			c0.326,0.329,1.167,0.323,1.123,1.013c0.361,0.179,0.707-0.254,1.107-0.116c0.008,0.048,0.016,0.095,0.025,0.143
			c-0.133-0.522,0.091-0.518,0.349-0.524c0.531-0.013,0.72-0.087,1.241-0.339"/>
	</g>
	<g id="XMLID_168_">
		<rect id="XMLID_170_" x="409.658" y="404.168" style="fill:#231F20;" width="1.156" height="10.184"/>
		<path id="XMLID_169_" style="fill:#231F20;" d="M410.381,409.001c0.006-0.048,0.011-0.095,0.017-0.143
			c0.466-0.195,1.011,0.18,1.432-0.181c0.222-0.19,0.318-0.536,0.577-0.721c0.168-0.063,0.307-0.175,0.417-0.336
			c0.007-0.088,0.016-0.175,0.028-0.262c0.235-0.437,0.671-0.546,0.715-1.116c0.046-0.602-0.161-0.895,0.414-1.078
			c-0.107-0.265-0.158-0.172-0.07-0.514c0.11-0.141,0.19-0.303,0.24-0.485c-0.021-0.138-0.015-0.275,0.019-0.411
			c0.055-0.445,0.227-0.776,0.001-1.186c-0.277-0.5-0.747-0.454-1.185-0.493c-0.022-0.279,0.02-0.658-0.214-0.822
			c-0.276-0.194-0.691,0.199-0.873,0.452c0.215-0.495,0.372-1.141-0.12-1.523c-0.176-0.137-0.482-0.172-0.691-0.176
			c-0.342-0.007-0.724,0.124-1.061,0.19c-0.277,0.054-0.548,0.23-0.841,0.19c-0.267-0.037-0.507-0.443-0.76-0.365
			c-0.378,0.116-0.604,1.944-1.231,1.009c-0.062-0.092-0.087-0.419-0.173-0.476c-0.122-0.081-0.163,0.059-0.252,0.073
			c-0.138,0.021-0.413,0.056-0.558,0.113c-0.025,0.347-0.117,0.587-0.162,0.922c-0.02,0.145-0.019,0.322-0.106,0.446
			c-0.149,0.211-0.198,0.049-0.336,0.151c-0.125,0.092-0.163,0.198-0.278,0.316c-0.146,0.15-0.321,0.132-0.482,0.207
			c-0.582,0.27-0.021,0.383,0.165,0.733c0.331,0.624-0.933,1.218-0.422,1.691c0.225,0.208,0.68,0.012,0.601,0.52
			c-0.051,0.326-0.514,0.351-0.587,0.638c0.379,0.195,0.683,0.326,0.729,0.871c0.024,0.283-0.092,0.42,0.121,0.565
			c0.058,0.04,0.35,0.038,0.441,0.07c0.155,0.053,0.303,0.131,0.453,0.201c0.137,0.064,0.83,0.243,0.622,0.408
			c0.326,0.329,1.167,0.323,1.123,1.013c0.361,0.179,0.707-0.254,1.107-0.116c0.008,0.048,0.016,0.095,0.025,0.143
			c-0.133-0.522,0.091-0.518,0.349-0.524c0.531-0.013,0.72-0.088,1.241-0.339"/>
	</g>
	<g id="XMLID_162_">
		<rect id="XMLID_164_" x="379.39" y="403.53" style="fill:#231F20;" width="1.156" height="10.184"/>
		<path id="XMLID_163_" style="fill:#231F20;" d="M380.113,408.364c0.005-0.048,0.011-0.095,0.017-0.143
			c0.466-0.195,1.011,0.18,1.432-0.181c0.221-0.19,0.318-0.536,0.577-0.721c0.168-0.064,0.307-0.175,0.417-0.336
			c0.007-0.088,0.016-0.175,0.028-0.262c0.235-0.437,0.671-0.546,0.715-1.116c0.046-0.602-0.161-0.895,0.414-1.078
			c-0.107-0.265-0.158-0.172-0.07-0.514c0.11-0.141,0.19-0.303,0.24-0.485c-0.021-0.138-0.015-0.275,0.019-0.411
			c0.055-0.445,0.227-0.776,0.001-1.186c-0.277-0.5-0.747-0.454-1.185-0.493c-0.022-0.279,0.02-0.658-0.214-0.822
			c-0.276-0.194-0.691,0.199-0.873,0.452c0.215-0.495,0.372-1.141-0.12-1.523c-0.176-0.137-0.482-0.172-0.691-0.176
			c-0.342-0.007-0.724,0.124-1.061,0.19c-0.277,0.054-0.548,0.23-0.842,0.19c-0.267-0.037-0.507-0.443-0.76-0.365
			c-0.378,0.116-0.604,1.944-1.231,1.009c-0.062-0.092-0.087-0.418-0.173-0.476c-0.122-0.081-0.163,0.059-0.252,0.073
			c-0.138,0.021-0.413,0.056-0.558,0.113c-0.025,0.348-0.117,0.587-0.162,0.922c-0.02,0.145-0.019,0.322-0.106,0.446
			c-0.149,0.212-0.198,0.049-0.336,0.151c-0.125,0.092-0.163,0.198-0.278,0.316c-0.146,0.15-0.321,0.132-0.482,0.207
			c-0.582,0.27-0.021,0.383,0.165,0.733c0.331,0.624-0.933,1.218-0.422,1.691c0.225,0.208,0.68,0.012,0.601,0.52
			c-0.051,0.326-0.514,0.351-0.587,0.638c0.379,0.195,0.683,0.326,0.729,0.871c0.024,0.283-0.092,0.42,0.121,0.565
			c0.058,0.039,0.35,0.038,0.441,0.069c0.155,0.053,0.303,0.131,0.453,0.201c0.137,0.064,0.83,0.243,0.622,0.408
			c0.326,0.329,1.166,0.323,1.123,1.013c0.361,0.179,0.707-0.254,1.107-0.116c0.008,0.048,0.016,0.095,0.025,0.143
			c-0.133-0.522,0.091-0.518,0.349-0.524c0.531-0.013,0.72-0.087,1.241-0.339"/>
	</g>
	<g id="XMLID_174_">
		<rect id="XMLID_176_" x="7.665" y="398.206" style="fill:#231F20;" width="1.156" height="10.184"/>
		<path id="XMLID_175_" style="fill:#231F20;" d="M8.388,403.039c0.006-0.048,0.011-0.095,0.017-0.143
			c0.466-0.195,1.011,0.18,1.432-0.181c0.221-0.19,0.318-0.536,0.577-0.721c0.168-0.063,0.307-0.175,0.417-0.336
			c0.007-0.088,0.016-0.175,0.028-0.262c0.235-0.437,0.671-0.546,0.715-1.116c0.046-0.602-0.161-0.895,0.413-1.078
			c-0.107-0.265-0.158-0.172-0.07-0.514c0.11-0.141,0.19-0.303,0.24-0.485c-0.021-0.138-0.015-0.275,0.019-0.411
			c0.055-0.445,0.227-0.776,0.001-1.186c-0.277-0.5-0.747-0.454-1.185-0.493c-0.022-0.279,0.019-0.658-0.214-0.822
			c-0.276-0.194-0.691,0.199-0.873,0.452c0.215-0.495,0.372-1.141-0.12-1.523c-0.176-0.137-0.482-0.172-0.691-0.176
			c-0.342-0.007-0.724,0.125-1.061,0.19c-0.277,0.054-0.548,0.23-0.841,0.19c-0.267-0.037-0.507-0.443-0.76-0.365
			c-0.378,0.116-0.604,1.944-1.231,1.009c-0.062-0.092-0.087-0.419-0.173-0.476c-0.122-0.081-0.163,0.059-0.252,0.073
			c-0.138,0.021-0.412,0.056-0.558,0.113c-0.025,0.347-0.117,0.587-0.162,0.922c-0.02,0.145-0.019,0.322-0.106,0.446
			c-0.149,0.211-0.198,0.049-0.336,0.151c-0.125,0.092-0.163,0.198-0.278,0.316c-0.146,0.15-0.321,0.132-0.483,0.207
			c-0.582,0.27-0.02,0.383,0.165,0.733c0.331,0.624-0.933,1.218-0.421,1.691c0.224,0.208,0.68,0.012,0.601,0.52
			c-0.051,0.326-0.514,0.351-0.587,0.638c0.379,0.195,0.683,0.326,0.729,0.871c0.024,0.283-0.092,0.42,0.121,0.565
			c0.058,0.04,0.35,0.038,0.441,0.07c0.155,0.053,0.303,0.131,0.453,0.201c0.137,0.064,0.83,0.243,0.622,0.408
			c0.326,0.329,1.167,0.323,1.123,1.013c0.361,0.179,0.707-0.254,1.107-0.116c0.008,0.048,0.016,0.095,0.025,0.143
			c-0.133-0.522,0.091-0.518,0.349-0.524c0.531-0.013,0.72-0.087,1.241-0.339"/>
	</g>
	<g id="XMLID_180_">
		<rect id="XMLID_182_" x="30.255" y="376.485" style="fill:#231F20;" width="1.156" height="10.184"/>
		<path id="XMLID_181_" style="fill:#231F20;" d="M30.978,381.319c0.006-0.048,0.011-0.095,0.017-0.143
			c0.466-0.195,1.011,0.18,1.432-0.181c0.222-0.19,0.318-0.536,0.577-0.721c0.168-0.064,0.307-0.175,0.417-0.336
			c0.007-0.087,0.016-0.175,0.028-0.262c0.235-0.437,0.671-0.546,0.715-1.116c0.046-0.602-0.161-0.895,0.413-1.078
			c-0.107-0.265-0.158-0.172-0.07-0.514c0.11-0.141,0.19-0.303,0.24-0.485c-0.021-0.138-0.015-0.275,0.019-0.411
			c0.055-0.445,0.227-0.776,0.001-1.186c-0.277-0.5-0.747-0.454-1.185-0.494c-0.022-0.279,0.02-0.658-0.214-0.822
			c-0.276-0.194-0.691,0.199-0.873,0.452c0.215-0.495,0.372-1.141-0.12-1.523c-0.176-0.137-0.482-0.172-0.691-0.176
			c-0.342-0.007-0.724,0.124-1.061,0.191c-0.277,0.054-0.548,0.23-0.841,0.189c-0.267-0.037-0.507-0.443-0.76-0.365
			c-0.378,0.116-0.604,1.944-1.231,1.009c-0.062-0.092-0.087-0.419-0.173-0.476c-0.122-0.081-0.163,0.059-0.252,0.073
			c-0.138,0.021-0.413,0.056-0.558,0.113c-0.025,0.348-0.117,0.587-0.162,0.922c-0.02,0.145-0.019,0.322-0.106,0.446
			c-0.149,0.212-0.198,0.049-0.336,0.151c-0.125,0.092-0.163,0.198-0.278,0.316c-0.146,0.15-0.321,0.132-0.483,0.207
			c-0.582,0.27-0.021,0.383,0.165,0.733c0.331,0.624-0.933,1.218-0.422,1.691c0.225,0.208,0.68,0.012,0.601,0.52
			c-0.051,0.326-0.514,0.351-0.587,0.638c0.379,0.195,0.683,0.326,0.729,0.871c0.024,0.283-0.092,0.42,0.121,0.565
			c0.058,0.039,0.35,0.038,0.441,0.07c0.155,0.053,0.303,0.131,0.453,0.201c0.137,0.064,0.83,0.243,0.622,0.408
			c0.326,0.329,1.167,0.323,1.123,1.013c0.361,0.179,0.707-0.254,1.107-0.116c0.008,0.048,0.016,0.095,0.025,0.143
			c-0.133-0.522,0.091-0.518,0.349-0.524c0.531-0.013,0.72-0.088,1.24-0.339"/>
	</g>
	<g id="XMLID_125_">
		<rect id="XMLID_127_" x="431.937" y="415.19" style="fill:#231F20;" width="2.018" height="17.777"/>
		<path id="XMLID_126_" style="fill:#231F20;" d="M433.198,423.627c0.01-0.083,0.02-0.167,0.029-0.25
			c0.813-0.341,1.765,0.314,2.5-0.316c0.387-0.331,0.555-0.936,1.007-1.258c0.293-0.111,0.536-0.306,0.728-0.586
			c0.012-0.153,0.028-0.305,0.048-0.456c0.41-0.763,1.172-0.953,1.248-1.948c0.081-1.05-0.282-1.562,0.722-1.882
			c-0.187-0.463-0.276-0.3-0.122-0.897c0.193-0.246,0.332-0.529,0.418-0.846c-0.037-0.241-0.026-0.48,0.033-0.717
			c0.096-0.777,0.397-1.355,0.001-2.069c-0.483-0.872-1.305-0.793-2.068-0.862c-0.039-0.486,0.034-1.149-0.373-1.435
			c-0.481-0.338-1.206,0.348-1.524,0.788c0.376-0.864,0.649-1.991-0.209-2.658c-0.306-0.238-0.841-0.3-1.207-0.307
			c-0.597-0.011-1.263,0.217-1.852,0.332c-0.483,0.095-0.956,0.402-1.469,0.331c-0.466-0.065-0.885-0.773-1.327-0.637
			c-0.659,0.203-1.054,3.393-2.148,1.762c-0.108-0.16-0.151-0.731-0.301-0.831c-0.213-0.142-0.284,0.103-0.44,0.127
			c-0.24,0.037-0.72,0.098-0.974,0.197c-0.044,0.607-0.204,1.025-0.283,1.609c-0.034,0.252-0.033,0.563-0.185,0.778
			c-0.26,0.369-0.345,0.086-0.586,0.263c-0.217,0.16-0.285,0.346-0.485,0.552c-0.255,0.262-0.561,0.231-0.842,0.361
			c-1.016,0.471-0.036,0.669,0.287,1.279c0.577,1.089-1.628,2.126-0.736,2.952c0.392,0.363,1.187,0.021,1.049,0.908
			c-0.088,0.569-0.898,0.613-1.025,1.113c0.662,0.341,1.192,0.569,1.272,1.521c0.042,0.494-0.161,0.733,0.21,0.987
			c0.101,0.069,0.611,0.067,0.77,0.121c0.271,0.093,0.529,0.229,0.791,0.35c0.24,0.111,1.45,0.424,1.087,0.712
			c0.568,0.575,2.036,0.563,1.96,1.768c0.63,0.313,1.234-0.444,1.933-0.203c0.014,0.083,0.029,0.167,0.043,0.25
			c-0.232-0.91,0.158-0.904,0.609-0.915c0.928-0.023,1.256-0.153,2.165-0.591"/>
	</g>
	<g id="XMLID_131_">
		<rect id="XMLID_133_" x="418.437" y="413.03" style="fill:#231F20;" width="2.018" height="17.777"/>
		<path id="XMLID_132_" style="fill:#231F20;" d="M419.698,421.466c0.01-0.083,0.02-0.167,0.029-0.25
			c0.813-0.341,1.765,0.314,2.5-0.316c0.387-0.331,0.555-0.936,1.007-1.258c0.293-0.111,0.536-0.306,0.728-0.586
			c0.012-0.153,0.028-0.305,0.048-0.457c0.41-0.763,1.172-0.953,1.248-1.947c0.081-1.05-0.282-1.562,0.722-1.882
			c-0.187-0.463-0.276-0.3-0.122-0.897c0.193-0.247,0.332-0.529,0.418-0.846c-0.037-0.241-0.026-0.48,0.033-0.717
			c0.096-0.777,0.397-1.355,0.001-2.069c-0.483-0.872-1.305-0.793-2.068-0.862c-0.039-0.486,0.034-1.149-0.373-1.435
			c-0.481-0.338-1.206,0.347-1.524,0.788c0.376-0.864,0.649-1.991-0.209-2.658c-0.306-0.239-0.841-0.3-1.207-0.307
			c-0.597-0.011-1.263,0.217-1.852,0.332c-0.483,0.095-0.956,0.402-1.469,0.331c-0.466-0.065-0.885-0.773-1.327-0.637
			c-0.659,0.203-1.054,3.393-2.148,1.761c-0.108-0.16-0.151-0.73-0.301-0.83c-0.213-0.142-0.284,0.103-0.44,0.127
			c-0.24,0.037-0.72,0.098-0.974,0.197c-0.044,0.607-0.204,1.025-0.283,1.609c-0.034,0.252-0.033,0.563-0.185,0.778
			c-0.26,0.369-0.345,0.086-0.586,0.263c-0.217,0.16-0.285,0.346-0.485,0.552c-0.255,0.262-0.561,0.231-0.842,0.361
			c-1.016,0.471-0.036,0.669,0.287,1.279c0.577,1.089-1.628,2.126-0.736,2.952c0.392,0.363,1.187,0.021,1.049,0.908
			c-0.088,0.569-0.898,0.612-1.025,1.113c0.662,0.341,1.192,0.569,1.272,1.521c0.042,0.494-0.161,0.733,0.21,0.986
			c0.101,0.069,0.611,0.067,0.77,0.121c0.271,0.093,0.529,0.229,0.791,0.35c0.24,0.111,1.45,0.424,1.087,0.712
			c0.568,0.575,2.036,0.563,1.96,1.768c0.63,0.313,1.234-0.444,1.933-0.203c0.014,0.083,0.029,0.167,0.043,0.25
			c-0.232-0.91,0.158-0.904,0.609-0.915c0.928-0.023,1.256-0.153,2.165-0.591"/>
	</g>
	<g id="XMLID_134_">
		<rect id="XMLID_136_" x="401.301" y="410.444" style="fill:#231F20;" width="2.018" height="17.777"/>
		<path id="XMLID_135_" style="fill:#231F20;" d="M402.563,418.88c0.01-0.083,0.02-0.167,0.029-0.25
			c0.813-0.341,1.765,0.314,2.5-0.316c0.387-0.331,0.555-0.936,1.007-1.258c0.294-0.111,0.536-0.306,0.728-0.586
			c0.012-0.153,0.028-0.305,0.048-0.457c0.41-0.763,1.172-0.953,1.248-1.947c0.081-1.05-0.282-1.562,0.722-1.882
			c-0.187-0.463-0.276-0.3-0.122-0.897c0.193-0.247,0.332-0.529,0.418-0.846c-0.037-0.241-0.026-0.48,0.033-0.717
			c0.096-0.777,0.397-1.355,0.001-2.069c-0.483-0.872-1.305-0.793-2.068-0.862c-0.039-0.486,0.034-1.149-0.373-1.435
			c-0.481-0.338-1.206,0.347-1.524,0.788c0.376-0.864,0.649-1.991-0.209-2.658c-0.307-0.238-0.842-0.3-1.207-0.307
			c-0.597-0.011-1.263,0.217-1.852,0.333c-0.483,0.095-0.956,0.402-1.469,0.331c-0.466-0.065-0.885-0.773-1.327-0.637
			c-0.659,0.203-1.054,3.393-2.148,1.761c-0.108-0.16-0.151-0.731-0.301-0.83c-0.213-0.142-0.284,0.103-0.44,0.127
			c-0.24,0.037-0.72,0.098-0.974,0.197c-0.044,0.607-0.204,1.025-0.283,1.609c-0.034,0.252-0.033,0.563-0.185,0.778
			c-0.26,0.369-0.345,0.086-0.586,0.263c-0.217,0.16-0.285,0.346-0.485,0.552c-0.255,0.262-0.56,0.231-0.842,0.361
			c-1.016,0.471-0.036,0.669,0.287,1.279c0.577,1.089-1.628,2.126-0.736,2.952c0.392,0.363,1.187,0.021,1.049,0.908
			c-0.088,0.569-0.898,0.613-1.025,1.113c0.662,0.341,1.192,0.569,1.272,1.521c0.042,0.494-0.161,0.733,0.21,0.987
			c0.101,0.069,0.611,0.067,0.77,0.121c0.271,0.093,0.529,0.229,0.791,0.35c0.24,0.111,1.449,0.424,1.086,0.712
			c0.568,0.575,2.036,0.563,1.96,1.768c0.63,0.313,1.234-0.444,1.933-0.203c0.014,0.083,0.029,0.167,0.043,0.25
			c-0.232-0.91,0.158-0.904,0.61-0.915c0.928-0.023,1.256-0.153,2.165-0.591"/>
	</g>
	<g id="XMLID_113_">
		<rect id="XMLID_115_" x="467.648" y="393.605" style="fill:#231F20;" width="2.018" height="17.777"/>
		<path id="XMLID_114_" style="fill:#231F20;" d="M468.91,402.041c0.01-0.083,0.019-0.167,0.029-0.25
			c0.813-0.341,1.765,0.314,2.5-0.316c0.387-0.331,0.555-0.936,1.007-1.258c0.294-0.111,0.536-0.306,0.728-0.586
			c0.012-0.153,0.028-0.305,0.048-0.457c0.41-0.763,1.172-0.953,1.248-1.947c0.081-1.05-0.282-1.562,0.722-1.882
			c-0.187-0.463-0.276-0.3-0.122-0.897c0.193-0.246,0.332-0.529,0.418-0.846c-0.037-0.24-0.026-0.48,0.033-0.717
			c0.096-0.777,0.397-1.355,0.001-2.069c-0.483-0.872-1.305-0.793-2.068-0.861c-0.039-0.486,0.034-1.149-0.373-1.435
			c-0.481-0.338-1.206,0.347-1.524,0.788c0.375-0.864,0.649-1.991-0.209-2.658c-0.307-0.238-0.842-0.3-1.207-0.307
			c-0.597-0.011-1.263,0.217-1.852,0.333c-0.483,0.095-0.956,0.402-1.469,0.331c-0.466-0.065-0.885-0.774-1.327-0.637
			c-0.659,0.203-1.054,3.393-2.148,1.762c-0.108-0.16-0.151-0.731-0.301-0.831c-0.213-0.142-0.284,0.103-0.44,0.127
			c-0.24,0.037-0.72,0.098-0.974,0.197c-0.044,0.607-0.204,1.025-0.283,1.609c-0.034,0.252-0.033,0.563-0.185,0.778
			c-0.26,0.369-0.345,0.086-0.586,0.263c-0.217,0.16-0.285,0.346-0.485,0.552c-0.255,0.262-0.561,0.231-0.842,0.361
			c-1.016,0.471-0.036,0.669,0.287,1.279c0.577,1.089-1.628,2.126-0.736,2.952c0.392,0.363,1.187,0.021,1.049,0.908
			c-0.088,0.569-0.898,0.612-1.025,1.113c0.662,0.341,1.192,0.569,1.272,1.521c0.042,0.494-0.161,0.733,0.211,0.987
			c0.101,0.069,0.611,0.067,0.77,0.121c0.271,0.093,0.529,0.229,0.791,0.35c0.24,0.111,1.45,0.424,1.087,0.712
			c0.568,0.575,2.036,0.563,1.96,1.768c0.63,0.313,1.234-0.444,1.933-0.203c0.014,0.083,0.029,0.167,0.043,0.25
			c-0.232-0.91,0.158-0.904,0.61-0.915c0.928-0.023,1.256-0.153,2.165-0.591"/>
	</g>
	<g id="XMLID_116_">
		<rect id="XMLID_118_" x="488.513" y="392.855" style="fill:#231F20;" width="2.018" height="17.777"/>
		<path id="XMLID_117_" style="fill:#231F20;" d="M489.774,401.292c0.01-0.083,0.02-0.167,0.029-0.25
			c0.813-0.341,1.765,0.314,2.5-0.316c0.387-0.331,0.555-0.936,1.007-1.258c0.293-0.111,0.536-0.306,0.728-0.586
			c0.012-0.153,0.028-0.305,0.048-0.456c0.41-0.763,1.171-0.953,1.248-1.947c0.081-1.05-0.282-1.562,0.722-1.882
			c-0.187-0.463-0.276-0.3-0.122-0.897c0.192-0.247,0.332-0.529,0.418-0.847c-0.037-0.241-0.026-0.48,0.033-0.717
			c0.096-0.777,0.397-1.355,0.001-2.07c-0.483-0.872-1.305-0.793-2.068-0.861c-0.039-0.486,0.034-1.149-0.373-1.435
			c-0.481-0.338-1.206,0.347-1.524,0.788c0.376-0.864,0.649-1.991-0.209-2.658c-0.307-0.239-0.841-0.3-1.207-0.307
			c-0.597-0.011-1.263,0.217-1.852,0.333c-0.483,0.095-0.956,0.402-1.469,0.331c-0.466-0.065-0.885-0.773-1.327-0.637
			c-0.659,0.203-1.054,3.393-2.148,1.762c-0.108-0.16-0.151-0.73-0.301-0.831c-0.213-0.142-0.284,0.103-0.44,0.127
			c-0.24,0.037-0.72,0.098-0.974,0.197c-0.044,0.606-0.204,1.024-0.283,1.609c-0.034,0.252-0.033,0.563-0.185,0.778
			c-0.26,0.369-0.345,0.086-0.586,0.263c-0.217,0.16-0.285,0.346-0.485,0.552c-0.255,0.262-0.56,0.231-0.842,0.361
			c-1.016,0.471-0.036,0.669,0.287,1.279c0.577,1.089-1.628,2.126-0.736,2.952c0.392,0.363,1.187,0.021,1.049,0.908
			c-0.088,0.569-0.898,0.613-1.025,1.113c0.662,0.341,1.192,0.569,1.272,1.521c0.042,0.494-0.161,0.733,0.21,0.987
			c0.101,0.069,0.611,0.067,0.77,0.121c0.271,0.093,0.529,0.229,0.791,0.35c0.24,0.111,1.45,0.425,1.087,0.712
			c0.568,0.575,2.036,0.563,1.96,1.768c0.63,0.313,1.234-0.444,1.933-0.203c0.014,0.083,0.029,0.167,0.043,0.25
			c-0.232-0.911,0.158-0.904,0.61-0.915c0.928-0.023,1.256-0.153,2.165-0.591"/>
	</g>
	<g id="XMLID_122_">
		<rect id="XMLID_124_" x="456.327" y="403.265" style="fill:#231F20;" width="2.018" height="17.777"/>
		<path id="XMLID_123_" style="fill:#231F20;" d="M457.589,411.701c0.01-0.083,0.02-0.167,0.029-0.25
			c0.813-0.341,1.765,0.314,2.5-0.316c0.387-0.331,0.555-0.936,1.007-1.258c0.293-0.111,0.536-0.306,0.728-0.586
			c0.012-0.153,0.028-0.305,0.048-0.457c0.41-0.763,1.172-0.953,1.248-1.947c0.081-1.05-0.282-1.562,0.722-1.882
			c-0.187-0.463-0.276-0.3-0.122-0.897c0.193-0.247,0.332-0.529,0.418-0.847c-0.037-0.24-0.026-0.48,0.033-0.717
			c0.096-0.777,0.397-1.355,0.001-2.069c-0.483-0.872-1.305-0.793-2.068-0.862c-0.039-0.486,0.034-1.149-0.373-1.435
			c-0.482-0.338-1.206,0.347-1.524,0.788c0.375-0.864,0.649-1.991-0.209-2.658c-0.307-0.239-0.841-0.3-1.207-0.307
			c-0.597-0.011-1.263,0.217-1.852,0.332c-0.483,0.095-0.956,0.402-1.469,0.331c-0.466-0.065-0.885-0.773-1.327-0.637
			c-0.659,0.203-1.054,3.393-2.148,1.761c-0.108-0.16-0.151-0.731-0.301-0.83c-0.213-0.142-0.284,0.103-0.44,0.127
			c-0.24,0.037-0.72,0.098-0.974,0.197c-0.044,0.607-0.204,1.024-0.283,1.609c-0.034,0.252-0.033,0.563-0.185,0.778
			c-0.26,0.369-0.345,0.086-0.586,0.263c-0.217,0.16-0.285,0.346-0.485,0.552c-0.255,0.262-0.56,0.231-0.842,0.361
			c-1.016,0.471-0.036,0.669,0.287,1.279c0.577,1.089-1.628,2.126-0.736,2.952c0.392,0.363,1.187,0.021,1.049,0.908
			c-0.088,0.569-0.898,0.612-1.025,1.113c0.662,0.341,1.192,0.569,1.272,1.521c0.042,0.494-0.161,0.733,0.21,0.987
			c0.101,0.069,0.611,0.067,0.77,0.121c0.271,0.093,0.529,0.229,0.791,0.35c0.24,0.111,1.449,0.424,1.086,0.712
			c0.568,0.575,2.036,0.563,1.96,1.768c0.63,0.313,1.234-0.444,1.933-0.203c0.014,0.083,0.029,0.167,0.043,0.25
			c-0.232-0.91,0.158-0.904,0.61-0.915c0.928-0.023,1.256-0.153,2.165-0.591"/>
	</g>
	<g id="XMLID_171_">
		<rect id="XMLID_173_" x="16.444" y="386.76" style="fill:#231F20;" width="2.018" height="17.777"/>
		<path id="XMLID_172_" style="fill:#231F20;" d="M17.705,395.196c0.01-0.083,0.019-0.167,0.029-0.25
			c0.813-0.341,1.765,0.314,2.5-0.316c0.387-0.331,0.555-0.936,1.007-1.258c0.294-0.111,0.536-0.306,0.728-0.586
			c0.012-0.153,0.028-0.305,0.048-0.456c0.41-0.763,1.172-0.953,1.248-1.947c0.081-1.05-0.282-1.562,0.722-1.882
			c-0.187-0.463-0.276-0.3-0.122-0.897c0.193-0.247,0.332-0.529,0.418-0.847c-0.037-0.241-0.026-0.48,0.033-0.717
			c0.096-0.777,0.397-1.355,0.001-2.069c-0.483-0.872-1.305-0.793-2.068-0.862c-0.039-0.486,0.034-1.149-0.373-1.435
			c-0.481-0.338-1.206,0.347-1.524,0.788c0.375-0.864,0.649-1.991-0.209-2.658c-0.307-0.239-0.841-0.3-1.207-0.307
			c-0.597-0.011-1.263,0.217-1.852,0.332c-0.483,0.095-0.956,0.402-1.469,0.331c-0.466-0.065-0.885-0.773-1.327-0.637
			c-0.659,0.203-1.054,3.393-2.148,1.762c-0.108-0.16-0.151-0.73-0.301-0.831c-0.213-0.142-0.284,0.103-0.44,0.127
			c-0.24,0.037-0.72,0.098-0.974,0.197c-0.044,0.607-0.204,1.025-0.283,1.609c-0.034,0.252-0.033,0.563-0.185,0.778
			c-0.26,0.369-0.345,0.086-0.586,0.263c-0.217,0.16-0.285,0.346-0.485,0.552c-0.255,0.262-0.561,0.231-0.842,0.361
			c-1.016,0.471-0.036,0.669,0.287,1.279c0.577,1.089-1.628,2.126-0.736,2.952c0.392,0.363,1.187,0.021,1.049,0.908
			c-0.088,0.569-0.898,0.612-1.025,1.113c0.662,0.341,1.192,0.569,1.272,1.521c0.042,0.494-0.161,0.733,0.21,0.987
			c0.101,0.069,0.611,0.067,0.77,0.121c0.271,0.093,0.529,0.229,0.791,0.35c0.24,0.111,1.449,0.424,1.087,0.712
			c0.568,0.575,2.036,0.563,1.96,1.768c0.63,0.313,1.234-0.444,1.933-0.203c0.014,0.083,0.029,0.167,0.043,0.25
			c-0.232-0.91,0.158-0.904,0.61-0.915c0.928-0.023,1.256-0.153,2.165-0.591"/>
	</g>
	<g id="XMLID_177_">
		<rect id="XMLID_179_" x="27.524" y="396.05" style="fill:#231F20;" width="2.018" height="17.777"/>
		<path id="XMLID_178_" style="fill:#231F20;" d="M28.785,404.486c0.01-0.083,0.019-0.167,0.029-0.25
			c0.813-0.341,1.765,0.314,2.5-0.316c0.387-0.331,0.555-0.936,1.007-1.258c0.293-0.111,0.536-0.306,0.728-0.586
			c0.012-0.153,0.028-0.305,0.048-0.456c0.41-0.763,1.172-0.953,1.248-1.948c0.081-1.05-0.282-1.562,0.722-1.882
			c-0.187-0.463-0.276-0.3-0.122-0.897c0.193-0.246,0.332-0.529,0.418-0.846c-0.037-0.241-0.026-0.48,0.033-0.717
			c0.096-0.777,0.397-1.355,0.001-2.069c-0.483-0.872-1.305-0.793-2.068-0.862c-0.039-0.486,0.034-1.149-0.373-1.435
			c-0.481-0.338-1.206,0.347-1.524,0.788c0.375-0.864,0.649-1.991-0.209-2.658c-0.307-0.238-0.841-0.3-1.207-0.307
			c-0.597-0.011-1.263,0.217-1.852,0.333c-0.483,0.095-0.956,0.402-1.469,0.331c-0.466-0.065-0.885-0.773-1.327-0.637
			c-0.659,0.203-1.054,3.393-2.148,1.762c-0.108-0.16-0.151-0.731-0.301-0.831c-0.213-0.142-0.284,0.103-0.44,0.127
			c-0.24,0.037-0.72,0.098-0.974,0.197c-0.044,0.607-0.204,1.025-0.283,1.609c-0.034,0.252-0.033,0.563-0.185,0.778
			c-0.26,0.369-0.345,0.086-0.586,0.263c-0.218,0.16-0.285,0.346-0.485,0.552c-0.255,0.262-0.56,0.231-0.842,0.361
			c-1.016,0.471-0.036,0.669,0.287,1.279c0.577,1.089-1.628,2.126-0.736,2.952c0.392,0.363,1.187,0.021,1.049,0.908
			c-0.088,0.569-0.898,0.613-1.025,1.113c0.662,0.341,1.192,0.569,1.272,1.521c0.042,0.494-0.161,0.733,0.21,0.987
			c0.101,0.069,0.611,0.067,0.77,0.121c0.271,0.093,0.529,0.229,0.791,0.35c0.24,0.111,1.449,0.424,1.087,0.712
			c0.568,0.575,2.036,0.563,1.96,1.768c0.63,0.313,1.234-0.444,1.933-0.203c0.014,0.083,0.029,0.167,0.043,0.25
			c-0.232-0.91,0.158-0.904,0.61-0.915c0.928-0.023,1.256-0.153,2.165-0.591"/>
	</g>
	<g id="XMLID_128_">
		<path id="XMLID_146_" style="fill:#231F20;" d="M500,391.286c-0.605,0.451-1.013,3.258-2.055,1.706
			c-0.108-0.16-0.151-0.731-0.301-0.831c-0.213-0.142-0.284,0.103-0.44,0.127c-0.24,0.037-0.72,0.098-0.974,0.197
			c-0.044,0.606-0.204,1.024-0.283,1.609c-0.034,0.252-0.033,0.563-0.185,0.778c-0.26,0.369-0.345,0.086-0.586,0.263
			c-0.217,0.16-0.285,0.346-0.485,0.552c-0.255,0.262-0.56,0.231-0.842,0.361c-1.016,0.471-0.036,0.669,0.287,1.279
			c0.577,1.089-1.628,2.126-0.736,2.952c0.392,0.363,1.187,0.021,1.049,0.908c-0.088,0.569-0.898,0.613-1.025,1.113
			c0.662,0.341,1.192,0.569,1.272,1.521c0.042,0.494-0.161,0.733,0.211,0.987c0.101,0.069,0.611,0.067,0.77,0.121
			c0.271,0.093,0.529,0.229,0.791,0.35c0.24,0.111,1.449,0.424,1.086,0.712c0.568,0.575,2.036,0.563,1.96,1.768
			c0.163,0.081,0.324,0.089,0.486,0.062V391.286z"/>
	</g>
	<g id="XMLID_144_">
		<path id="XMLID_25_" style="fill:#231F20;" d="M390.651,217.541c2.001-0.828,3.91-1.882,5.575-3.729
			c3.173-3.52,6.549-4.774,11.085-6.153c4.885-1.486,10.417-0.447,14.952-3.147c1.805-1.075,3.122-3.281,2.484-5.282
			c-0.613-1.922-9.442-1.677-11.002-1.807c-5.18-0.432-10.202-3.025-15.364-0.454c0.104,0.868,0.208,1.736,0.312,2.604
			c0.023,0.194,0.044,0.405-0.054,0.574c-0.112,0.194-0.344,0.278-0.557,0.347c-1.709,0.553-3.602,0.973-5.153,1.838
			c-1.658,0.924-3.144,2.256-4.75,3.28c-5.85,3.729-13.415,3.29-20.189,1.788c-7.489-1.661-12.753-3.444-20.153-1.948
			c-11.04,2.233-21.686,6.038-32.121,10.217c-9.792,3.922-21.342,10.51-32.041,10.851c-5.194,0.166-10.582-1.446-14.291-5.086
			c-1.503-1.475-2.695-3.235-3.803-5.026c-1.992-3.221-3.8-6.839-3.449-10.61c-0.767,4.722-1.337,9.869,1.034,14.025
			c1.484,2.601,3.945,4.472,6.34,6.269c2.576,1.933,5.207,3.896,8.253,4.941c5.569,1.912,10.341-0.788,15.851-1.164
			c7.488-0.512,14.332-4.433,21.627-5.391c7.53-0.989,14.548,4.192,21.5,6.595c10.437,3.608,22.149,2.91,32.289-1.339
			c5.429-2.275,9.152-6.33,14.103-9.116C385.587,219.234,388.188,218.559,390.651,217.541z"/>
		<path id="XMLID_129_" style="fill:#231F20;" d="M353.752,215.387c5.303-0.866,8.646,2.309,13.499,1.39
			c-6.747-10.734-10.616-19.605-5.398-32.313c0.987-2.404,2.502-6.187,4.566-7.873c2.284-1.866,5.849-1.342,8.728-1.264
			c-1.735-2.579-5.012-4.027-8.087-3.575c-0.261,0.038-0.532,0.089-0.786,0.014c-1.387-0.409-1.983-3.167-2.726-4.26
			c-1.271-1.867-2.98-3.476-4.507-5.138c-3.336-3.629-6.7-7.235-10.152-10.754c-6.728-6.859-13.795-13.419-21.522-19.147
			c-8.756-6.492-18.368-11.935-26.161-19.556c2.053,0.965,2.95,3.356,3.567,5.539c1.504,5.324,2.488,11.032,0.965,16.35
			c-1.522,5.318-6.163,10.074-11.695,10.145c4.529,0.273,8.868,2.791,11.352,6.589c6.604,10.098-1.995,24.761-11.444,29.717
			c6.51-1.963,13.708-1.55,19.951,1.145c5.069,2.189,9.917,6.812,9.369,12.307c-0.521,5.219-5.47,8.631-8.85,12.641
			c3.761-2.366,8.4-2.895,12.841-2.731c3.572,0.132,7.296,0.742,10.147,2.898c2.851,2.156,4.5,6.23,2.943,9.447
			C344.838,216.636,349.311,216.112,353.752,215.387z"/>
		<path id="XMLID_142_" style="fill:#231F20;" d="M364.718,209.766c3.854,1.682,4.704,5.188,8.285,6.644
			c0.12-9.921,1.342-17.396,10.166-23.536c1.669-1.161,4.271-3.006,6.344-3.238c2.293-0.257,4.415,1.6,6.275,2.873
			c-0.046-2.432-1.586-4.775-3.8-5.783c-0.188-0.086-0.388-0.167-0.523-0.324c-0.739-0.858,0.041-2.924,0.016-3.958
			c-0.043-1.767-0.484-3.55-0.783-5.291c-0.653-3.802-1.334-7.6-2.11-11.38c-1.512-7.366-3.374-14.678-6.023-21.724
			c-3.001-7.985-7.011-15.643-8.9-23.961c0.94,1.506,0.515,3.459-0.006,5.156c-1.271,4.138-3.047,8.309-6.305,11.159
			c-3.258,2.85-8.328,4.007-11.995,1.706c2.862,2.102,4.646,5.599,4.667,9.15c0.056,9.442-11.822,15.432-20.137,14.68
			c5.113,1.472,9.671,4.799,12.63,9.221c2.404,3.591,3.629,8.688,0.936,12.068c-2.558,3.21-7.26,3.353-11.184,4.554
			c3.477,0.041,6.752,1.662,9.601,3.655c2.292,1.603,4.482,3.585,5.441,6.212c0.959,2.627,0.314,6.006-2.075,7.46
			C358.327,206.804,361.491,208.358,364.718,209.766z"/>
		<path id="XMLID_93_" style="fill:#231F20;" d="M409.563,198.533c-3.073,3.391-7.547,3.286-10.627,0.2
			c-0.398-0.399-3.034-4.588-3.147-4.564c1.299-0.271,2.641,0.039,3.932,0.347c1.559,0.373,3.118,0.745,4.677,1.118
			c1.629,0.389,3.277,0.785,4.767,1.551c0.34,0.175,0.718,0.453,0.683,0.834C409.829,198.217,409.697,198.385,409.563,198.533z"/>
		<g id="XMLID_138_">
			<path id="XMLID_130_" style="fill:#231F20;" d="M346.703,227.977c-1.923,3.548-5.787,5.551-9.538,7.037
				c-1.954,0.774-3.985,1.475-6.087,1.504c-3.053,0.042-5.982-1.333-9.035-1.362c-6.516-0.063-12.447,5.933-18.763,4.332
				c3.677-2.327,7.354-4.655,11.031-6.982c1.952-1.235,4.03-2.511,6.34-2.57c2.171-0.056,4.428,0.971,6.447,0.172
				c5.252-2.077,5.12-8.962,9.018-12.204C342.423,212.656,350.565,220.85,346.703,227.977z"/>
			<path id="XMLID_137_" style="fill:#231F20;" d="M306.999,242.281c-1.134,0.691-2.332,1.276-3.574,1.744
				c0.59-0.582,1.058-1.287,1.364-2.058c-0.918,0.829-2.18,1.265-3.414,1.178c0.939-0.605,1.763-1.388,2.414-2.296
				c-1.137,0.384-2.331,0.598-3.53,0.634c1.803-0.542,2.609-2.664,4.182-3.698c0.586-0.385,2.406-1.188,3.115-0.726
				C308.576,237.722,307.213,241.127,306.999,242.281z"/>
		</g>
		<g id="XMLID_139_">
			<path id="XMLID_141_" style="fill:#231F20;" d="M354.716,230.968c-1.706,3.149-5.136,4.927-8.466,6.246
				c-1.734,0.687-3.537,1.309-5.402,1.335c-2.709,0.038-5.31-1.183-8.019-1.209c-5.783-0.056-11.048,5.266-16.654,3.845
				c3.264-2.066,6.527-4.131,9.791-6.197c1.732-1.096,3.577-2.229,5.627-2.281c1.927-0.049,3.93,0.862,5.722,0.153
				c4.661-1.844,4.544-7.954,8.004-10.832C350.917,217.37,358.144,224.642,354.716,230.968z"/>
			<path id="XMLID_140_" style="fill:#231F20;" d="M319.477,243.664c-1.006,0.613-2.07,1.132-3.173,1.548
				c0.524-0.516,0.939-1.143,1.21-1.826c-0.814,0.736-1.935,1.123-3.03,1.046c0.834-0.537,1.565-1.232,2.143-2.038
				c-1.009,0.341-2.069,0.531-3.133,0.563c1.6-0.481,2.316-2.364,3.712-3.282c0.521-0.342,2.136-1.054,2.765-0.645
				C320.875,239.617,319.666,242.64,319.477,243.664z"/>
		</g>
		<g id="XMLID_145_">
			<path id="XMLID_148_" style="fill:#231F20;" d="M370.818,223.519c0.036,0.069,0.069,0.139,0.101,0.209
				c0.806,1.804,0.237,3.758-0.943,5.234c-1.401,1.751-3.138,1.532-5.092,2.408c-4.141,1.855-6.15,7.376-10.613,8.2
				c1.65-2.543,3.299-5.085,4.949-7.627c0.876-1.349,1.82-2.761,3.264-3.471c1.186-0.583,1.747-0.651,2.636-1.644
				c0.997-1.114,2.001-2.239,2.737-3.54c0.152-0.269,0.299-0.553,0.541-0.746c0.42-0.335,1.051-0.309,1.517-0.04
				C370.313,222.732,370.605,223.108,370.818,223.519z"/>
			<path id="XMLID_147_" style="fill:#231F20;" d="M357.438,240.256c-0.516,0.767-1.104,1.486-1.754,2.143
				c0.204-0.54,0.295-1.122,0.264-1.699c-0.339,0.792-1.011,1.435-1.818,1.739c0.419-0.656,0.712-1.391,0.86-2.155
				c-0.608,0.574-1.301,1.057-2.049,1.428c0.983-0.868,0.876-2.445,1.571-3.557c0.259-0.415,1.177-1.452,1.76-1.366
				C357.109,236.912,357.237,239.464,357.438,240.256z"/>
		</g>
		<g id="XMLID_149_">
			<path id="XMLID_151_" style="fill:#231F20;" d="M376.688,222.085c0.036,0.069,0.069,0.139,0.101,0.209
				c0.806,1.803,0.237,3.758-0.943,5.234c-1.401,1.751-3.138,1.532-5.092,2.408c-4.141,1.855-6.15,7.376-10.613,8.2
				c1.65-2.542,3.299-5.085,4.949-7.627c0.876-1.349,1.82-2.761,3.264-3.471c1.186-0.583,1.747-0.651,2.635-1.644
				c0.997-1.114,2.001-2.239,2.737-3.54c0.152-0.269,0.299-0.553,0.541-0.747c0.42-0.335,1.051-0.309,1.517-0.04
				C376.183,221.297,376.475,221.673,376.688,222.085z"/>
			<path id="XMLID_150_" style="fill:#231F20;" d="M363.307,238.821c-0.516,0.767-1.104,1.486-1.754,2.143
				c0.204-0.54,0.295-1.122,0.264-1.699c-0.339,0.792-1.011,1.435-1.818,1.739c0.419-0.656,0.712-1.391,0.86-2.155
				c-0.608,0.574-1.301,1.057-2.049,1.428c0.983-0.868,0.876-2.445,1.571-3.557c0.259-0.414,1.177-1.452,1.76-1.366
				C362.978,235.478,363.106,238.029,363.307,238.821z"/>
		</g>
		<path id="XMLID_120_" style="fill:#231F20;" d="M379.09,210.915c4.097-1.378,8.127-2.957,12.069-4.73
			c1.971-0.886,3.921-1.821,5.846-2.803c1.412-0.72,3.593-1.503,4.459-2.937c-3.149-0.799-6.134-2.117-9.315-2.767
			c0.737,0.744,1.377,1.585,1.898,2.494c-2.799,0.783-5.804,0.819-8.621,0.102c1.167,0.95,2.334,1.901,3.502,2.851
			c-3.384,0.823-6.938,0.941-10.37,0.347c0.742,0.923,1.485,1.846,2.227,2.768c-4.77,0.649-9.416-2.302-14.22-1.985
			c1.221,1.574,2.268,3.29,3.648,4.726c1.379,1.436,3.185,2.602,5.175,2.68C376.654,211.709,377.891,211.318,379.09,210.915z"/>
		<path id="XMLID_143_" style="fill:#231F20;" d="M339.1,202.297c-1.688-0.97-5.631-1.547-7.31-0.183
			c-1.161,0.944-0.777,5.618,1.107,5.389c-2.866,0.348-5.817,0.371-8.704,0.541c0.55,0.716,1.29,1.286,2.123,1.634
			c-4.481,1.717-9.345,2.423-14.129,2.05c1.422,0.851,2.904,1.602,4.431,2.245c-5.185,1.427-10.63,2.862-15.873,1.664
			c1.226,1.072,2.452,2.144,3.678,3.216c-4.215,1.109-8.573,1.675-12.932,1.68c0.741,0.78,1.287,1.744,1.574,2.781
			c-2.683,0.69-5.49,0.893-8.244,0.597c0.288,0.812,0.575,1.625,0.863,2.437c-4.25-0.042-8.455-1.876-11.376-4.963
			c0.487,0.962,0.974,1.925,1.46,2.887c-3.189-1.764-5.971-4.26-8.069-7.239c1.651,1.41,1.573,3.994,2.725,5.834
			c1.118,1.785,3.232,2.641,5.233,3.297c2.59,0.849,5.253,1.553,7.975,1.694c4.847,0.25,9.588-1.289,14.2-2.801
			c6.739-2.209,13.499-4.405,20.44-5.856c3.384-0.707,6.832-1.244,10.047-2.518c3.537-1.402,6.743-3.679,10.453-4.525
			c2.252-0.513,4.777-0.546,6.529-2.052c0.136-0.117,0.273-0.256,0.295-0.434c0.025-0.202-0.105-0.387-0.228-0.549
			c-0.574-0.754-1.147-1.507-1.721-2.261C342.337,205.142,340.975,203.375,339.1,202.297z"/>
	</g>
	<path id="XMLID_5_" style="fill:#231F20;" d="M235.901,179.104c-0.772-0.754-4.22-0.8-5.327-1.01
		c-1.573-0.299-2.82-0.747-4.042,0.597c0.841-2.528-4.942-8.022-7.506-7.297c3.445-0.974,7.457,1.494,8.14,5.009
		C230.282,175.855,233.637,176.893,235.901,179.104z"/>
	<path id="XMLID_152_" style="fill:#231F20;" d="M261.827,116.254c-0.982-0.448-4.242,0.676-5.355,0.853
		c-1.582,0.251-2.906,0.252-3.602,1.93c-0.064-2.663-7.365-5.875-9.533-4.325c2.912-2.083,7.522-1.118,9.355,1.958
		C255.44,115.099,258.947,114.939,261.827,116.254z"/>
	<path id="XMLID_154_" style="fill:#231F20;" d="M221.782,142.833c-0.296-0.289-1.617-0.306-2.041-0.387
		c-0.603-0.115-1.08-0.286-1.549,0.229c0.322-0.968-1.893-3.073-2.875-2.795c1.32-0.373,2.856,0.572,3.118,1.919
		C219.63,141.589,220.914,141.986,221.782,142.833z"/>
	<path id="XMLID_153_" style="fill:#231F20;" d="M226.348,102.371c-0.652-0.637-3.565-0.676-4.5-0.853
		c-1.329-0.253-2.382-0.631-3.414,0.504c0.71-2.135-4.174-6.775-6.34-6.163c2.91-0.823,6.298,1.262,6.875,4.231
		C221.603,99.627,224.436,100.503,226.348,102.371z"/>
	<path id="XMLID_158_" style="fill:#231F20;" d="M175.535,98.834c-0.615-0.601-3.362-0.637-4.244-0.805
		c-1.253-0.238-2.246-0.595-3.22,0.476c0.67-2.014-3.937-6.39-5.979-5.813c2.744-0.776,5.94,1.19,6.484,3.99
		C171.059,96.246,173.731,97.072,175.535,98.834z"/>
	<path id="XMLID_159_" style="fill:#231F20;" d="M239.402,170.785c-0.201-0.331-1.395-0.656-1.761-0.829
		c-0.52-0.245-0.913-0.512-1.458-0.155c0.519-0.803-0.999-3.231-1.955-3.209c1.285-0.03,2.458,1.188,2.38,2.47
		C237.74,169.152,238.813,169.813,239.402,170.785z"/>
</g>
<g id="DESIGNED_BY_FREEPIK">
	<g id="XMLID_1_">
		<g id="XMLID_279_">
			<g id="XMLID_493_">
				<g id="XMLID_529_">
					<path id="XMLID_550_" style="fill:#FFFFFF;" d="M181.073,474.014c-0.246,0-0.434,0.085-0.567,0.255
						c-0.133,0.17-0.199,0.421-0.199,0.754v2.392c-0.305-0.331-0.617-0.578-0.938-0.739c-0.321-0.159-0.715-0.24-1.181-0.24
						c-0.807,0-1.458,0.283-1.953,0.848c-0.495,0.566-0.742,1.356-0.742,2.369c0,0.478,0.063,0.923,0.187,1.335
						c0.125,0.412,0.307,0.77,0.549,1.074c0.241,0.305,0.527,0.539,0.857,0.704c0.331,0.164,0.69,0.246,1.078,0.246
						c0.293,0,0.563-0.04,0.81-0.122c0.247-0.081,0.477-0.2,0.689-0.356c0.212-0.156,0.426-0.359,0.644-0.608v0.161
						c0,0.297,0.072,0.525,0.216,0.686c0.145,0.16,0.328,0.24,0.549,0.24c0.226,0,0.41-0.078,0.552-0.231
						c0.143-0.154,0.214-0.386,0.214-0.694v-7.147c0-0.305-0.066-0.535-0.199-0.691
						C181.507,474.092,181.319,474.014,181.073,474.014z M180.008,480.856c-0.14,0.306-0.328,0.534-0.564,0.682
						c-0.236,0.149-0.496,0.223-0.781,0.223c-0.281,0-0.54-0.079-0.778-0.236c-0.237-0.156-0.424-0.388-0.561-0.697
						c-0.136-0.309-0.205-0.682-0.205-1.122c0-0.416,0.064-0.781,0.193-1.096c0.128-0.315,0.309-0.556,0.543-0.724
						c0.234-0.168,0.499-0.252,0.796-0.252c0.285,0,0.547,0.082,0.786,0.245c0.24,0.165,0.429,0.402,0.57,0.712
						c0.141,0.311,0.21,0.682,0.21,1.114C180.218,480.165,180.148,480.549,180.008,480.856z"/>
					<path id="XMLID_547_" style="fill:#FFFFFF;" d="M188.44,479.936c0.233-0.122,0.35-0.385,0.35-0.793
						c0-0.438-0.113-0.87-0.338-1.294c-0.225-0.423-0.565-0.769-1.019-1.035c-0.453-0.268-0.996-0.4-1.629-0.4
						c-0.487,0-0.93,0.078-1.33,0.234c-0.4,0.157-0.736,0.381-1.01,0.674c-0.273,0.293-0.48,0.644-0.623,1.054
						c-0.143,0.409-0.213,0.853-0.213,1.332c0,1.017,0.289,1.823,0.866,2.416c0.578,0.593,1.387,0.891,2.428,0.891
						c0.455,0,0.858-0.059,1.208-0.178c0.351-0.119,0.641-0.268,0.873-0.448c0.231-0.18,0.404-0.368,0.52-0.564
						c0.114-0.197,0.172-0.367,0.172-0.513c0-0.167-0.052-0.294-0.155-0.386c-0.102-0.091-0.237-0.137-0.403-0.137
						c-0.155,0-0.274,0.036-0.357,0.107c-0.202,0.19-0.366,0.341-0.493,0.452c-0.127,0.111-0.265,0.215-0.415,0.312
						c-0.151,0.098-0.306,0.168-0.466,0.214c-0.161,0.045-0.338,0.067-0.531,0.067c-0.289,0-0.553-0.07-0.793-0.213
						c-0.239-0.142-0.432-0.354-0.576-0.635c-0.145-0.281-0.219-0.605-0.223-0.973h3.17
						C187.878,480.117,188.206,480.056,188.44,479.936z M184.284,479.197c0.056-0.546,0.213-0.959,0.472-1.238
						c0.259-0.279,0.59-0.418,0.994-0.418c0.424,0,0.764,0.137,1.024,0.412c0.259,0.275,0.409,0.69,0.448,1.244H184.284z"/>
					<path id="XMLID_546_" style="fill:#FFFFFF;" d="M193.868,479.499c-0.319-0.17-0.729-0.316-1.231-0.44
						c-0.424-0.103-0.756-0.19-0.997-0.261c-0.242-0.071-0.434-0.161-0.576-0.27c-0.142-0.109-0.213-0.248-0.213-0.419
						c0-0.186,0.097-0.341,0.291-0.465c0.194-0.126,0.437-0.187,0.73-0.187c0.285,0,0.511,0.047,0.677,0.142
						c0.167,0.095,0.31,0.222,0.433,0.38c0.15,0.19,0.284,0.332,0.401,0.427c0.117,0.096,0.258,0.143,0.424,0.143
						c0.23,0,0.407-0.061,0.532-0.178c0.124-0.119,0.186-0.272,0.186-0.457c0-0.171-0.058-0.345-0.175-0.523
						c-0.117-0.178-0.287-0.34-0.51-0.486c-0.223-0.146-0.503-0.264-0.837-0.35c-0.334-0.088-0.711-0.131-1.131-0.131
						c-0.534,0-0.99,0.086-1.367,0.259c-0.379,0.172-0.664,0.403-0.859,0.691c-0.194,0.289-0.291,0.596-0.291,0.92
						c0,0.364,0.105,0.671,0.315,0.921c0.21,0.249,0.49,0.45,0.84,0.602c0.35,0.152,0.804,0.298,1.362,0.436
						c0.495,0.119,0.85,0.244,1.066,0.375c0.216,0.131,0.324,0.337,0.324,0.623c0,0.186-0.104,0.351-0.311,0.496
						c-0.208,0.144-0.474,0.217-0.798,0.217c-0.4,0-0.716-0.071-0.947-0.214c-0.232-0.143-0.431-0.358-0.597-0.648
						c-0.082-0.15-0.17-0.267-0.261-0.35c-0.091-0.083-0.221-0.124-0.391-0.124c-0.194,0-0.355,0.063-0.481,0.19
						c-0.127,0.126-0.19,0.278-0.19,0.457c0,0.27,0.099,0.537,0.297,0.805c0.198,0.266,0.505,0.49,0.92,0.667
						c0.416,0.178,0.914,0.267,1.496,0.267c0.609,0,1.127-0.082,1.552-0.246c0.426-0.164,0.747-0.406,0.965-0.725
						c0.218-0.319,0.327-0.702,0.327-1.149c0-0.297-0.082-0.56-0.246-0.792C194.427,479.87,194.186,479.668,193.868,479.499z"/>
					<path id="XMLID_545_" style="fill:#FFFFFF;" d="M196.476,476.424c-0.238,0-0.431,0.081-0.579,0.243
						c-0.149,0.162-0.222,0.404-0.222,0.724v4.636c0,0.317,0.074,0.56,0.222,0.73c0.148,0.17,0.341,0.255,0.579,0.255
						c0.238,0,0.433-0.083,0.588-0.249c0.154-0.166,0.232-0.412,0.232-0.737v-4.683c0-0.289-0.077-0.515-0.232-0.677
						C196.909,476.505,196.714,476.424,196.476,476.424z"/>
					<path id="XMLID_544_" style="fill:#FFFFFF;" d="M196.494,474.085c-0.217,0-0.409,0.074-0.573,0.223
						c-0.164,0.149-0.246,0.337-0.246,0.567c0,0.254,0.08,0.45,0.24,0.588c0.16,0.139,0.353,0.208,0.579,0.208
						c0.218,0,0.406-0.071,0.564-0.211c0.158-0.14,0.238-0.335,0.238-0.585c0-0.258-0.081-0.453-0.244-0.588
						C196.889,474.152,196.703,474.085,196.494,474.085z"/>
					<path id="XMLID_541_" style="fill:#FFFFFF;" d="M203.617,476.424c-0.218,0-0.396,0.078-0.535,0.231
						c-0.139,0.155-0.208,0.372-0.208,0.653v0.22c-0.289-0.376-0.602-0.652-0.938-0.829c-0.337-0.175-0.735-0.264-1.193-0.264
						c-0.384,0-0.736,0.068-1.057,0.204c-0.32,0.137-0.603,0.339-0.849,0.609c-0.245,0.269-0.434,0.599-0.567,0.992
						c-0.132,0.391-0.198,0.831-0.198,1.318c0,0.653,0.108,1.228,0.326,1.727c0.217,0.499,0.529,0.886,0.934,1.163
						c0.406,0.277,0.88,0.416,1.422,0.416c0.451,0,0.84-0.091,1.166-0.273c0.327-0.182,0.614-0.447,0.864-0.796
						c-0.008,0.531-0.02,0.915-0.035,1.155c-0.016,0.24-0.07,0.465-0.163,0.673c-0.093,0.21-0.255,0.374-0.487,0.49
						c-0.232,0.117-0.557,0.175-0.977,0.175c-0.205,0-0.388-0.02-0.546-0.056c-0.158-0.038-0.294-0.095-0.407-0.172
						c-0.112-0.077-0.216-0.17-0.309-0.28c-0.093-0.108-0.183-0.217-0.27-0.324c-0.178-0.209-0.386-0.314-0.624-0.314
						c-0.189,0-0.352,0.062-0.486,0.187c-0.135,0.124-0.202,0.286-0.202,0.483c0,0.261,0.119,0.516,0.357,0.763
						c0.238,0.247,0.576,0.449,1.015,0.605c0.439,0.156,0.938,0.234,1.496,0.234c0.61,0,1.119-0.061,1.529-0.184
						c0.409-0.122,0.741-0.311,0.994-0.563c0.254-0.253,0.438-0.574,0.552-0.961c0.115-0.388,0.173-0.851,0.173-1.39v-4.707
						c0-0.384-0.052-0.678-0.155-0.882C204.137,476.526,203.929,476.424,203.617,476.424z M202.59,480.79
						c-0.151,0.29-0.345,0.508-0.585,0.653c-0.239,0.144-0.493,0.217-0.762,0.217c-0.455,0-0.826-0.168-1.113-0.505
						c-0.287-0.336-0.43-0.833-0.43-1.49c0-0.649,0.139-1.15,0.418-1.501c0.279-0.352,0.649-0.529,1.113-0.529
						c0.475,0,0.858,0.184,1.149,0.552c0.291,0.367,0.436,0.883,0.436,1.543C202.815,480.146,202.74,480.499,202.59,480.79z"/>
					<path id="XMLID_540_" style="fill:#FFFFFF;" d="M210.97,477.492c-0.165-0.339-0.417-0.603-0.753-0.789
						c-0.337-0.186-0.718-0.28-1.146-0.28c-0.439,0-0.828,0.089-1.166,0.264c-0.339,0.176-0.65,0.452-0.935,0.828v-0.196
						c0-0.193-0.035-0.358-0.104-0.493c-0.069-0.134-0.162-0.234-0.276-0.302c-0.115-0.068-0.244-0.101-0.387-0.101
						c-0.233,0-0.417,0.076-0.552,0.228c-0.135,0.152-0.202,0.383-0.202,0.692v4.683c0,0.317,0.075,0.56,0.225,0.73
						c0.151,0.17,0.342,0.255,0.576,0.255c0.241,0,0.438-0.082,0.59-0.246c0.152-0.164,0.228-0.411,0.228-0.74v-2.03
						c0-0.661,0.04-1.111,0.119-1.353c0.111-0.3,0.285-0.537,0.522-0.71c0.237-0.172,0.501-0.258,0.789-0.258
						c0.444,0,0.739,0.142,0.888,0.425c0.148,0.283,0.223,0.692,0.223,1.226v2.701c0,0.317,0.075,0.56,0.226,0.73
						c0.15,0.17,0.346,0.255,0.588,0.255c0.237,0,0.43-0.083,0.578-0.249c0.149-0.166,0.223-0.412,0.223-0.737v-3.015
						c0-0.356-0.016-0.649-0.048-0.879C211.147,477.905,211.078,477.69,210.97,477.492z"/>
					<path id="XMLID_537_" style="fill:#FFFFFF;" d="M217.815,479.936c0.234-0.122,0.35-0.385,0.35-0.793
						c0-0.438-0.113-0.87-0.338-1.294c-0.226-0.423-0.565-0.769-1.019-1.035c-0.453-0.268-0.996-0.4-1.629-0.4
						c-0.487,0-0.93,0.078-1.33,0.234c-0.4,0.157-0.736,0.381-1.009,0.674c-0.273,0.293-0.481,0.644-0.624,1.054
						c-0.142,0.409-0.214,0.853-0.214,1.332c0,1.017,0.289,1.823,0.866,2.416c0.578,0.593,1.388,0.891,2.428,0.891
						c0.455,0,0.858-0.059,1.208-0.178c0.35-0.119,0.641-0.268,0.872-0.448c0.232-0.18,0.405-0.368,0.52-0.564
						c0.115-0.197,0.172-0.367,0.172-0.513c0-0.167-0.051-0.294-0.154-0.386c-0.103-0.091-0.238-0.137-0.404-0.137
						c-0.154,0-0.273,0.036-0.356,0.107c-0.202,0.19-0.366,0.341-0.492,0.452c-0.128,0.111-0.266,0.215-0.416,0.312
						c-0.151,0.098-0.306,0.168-0.466,0.214c-0.161,0.045-0.338,0.067-0.532,0.067c-0.289,0-0.553-0.07-0.792-0.213
						c-0.24-0.142-0.432-0.354-0.576-0.635c-0.145-0.281-0.218-0.605-0.223-0.973h3.169
						C217.253,480.117,217.581,480.056,217.815,479.936z M213.659,479.197c0.055-0.546,0.212-0.959,0.471-1.238
						c0.259-0.279,0.591-0.418,0.995-0.418c0.423,0,0.765,0.137,1.024,0.412c0.259,0.275,0.409,0.69,0.448,1.244H213.659z"/>
					<path id="XMLID_534_" style="fill:#FFFFFF;" d="M224.201,474.014c-0.245,0-0.435,0.085-0.567,0.255
						c-0.133,0.17-0.199,0.421-0.199,0.754v2.392c-0.304-0.331-0.617-0.578-0.938-0.739c-0.32-0.159-0.714-0.24-1.181-0.24
						c-0.807,0-1.458,0.283-1.953,0.848c-0.495,0.566-0.742,1.356-0.742,2.369c0,0.478,0.062,0.923,0.187,1.335
						c0.124,0.412,0.307,0.77,0.549,1.074c0.242,0.305,0.527,0.539,0.858,0.704c0.33,0.164,0.689,0.246,1.077,0.246
						c0.293,0,0.563-0.04,0.81-0.122c0.247-0.081,0.477-0.2,0.688-0.356c0.212-0.156,0.426-0.359,0.644-0.608v0.161
						c0,0.297,0.072,0.525,0.217,0.686c0.145,0.16,0.328,0.24,0.549,0.24c0.226,0,0.41-0.078,0.552-0.231
						c0.143-0.154,0.214-0.386,0.214-0.694v-7.147c0-0.305-0.066-0.535-0.199-0.691
						C224.635,474.092,224.446,474.014,224.201,474.014z M223.135,480.856c-0.14,0.306-0.328,0.534-0.564,0.682
						c-0.235,0.149-0.495,0.223-0.781,0.223c-0.281,0-0.54-0.079-0.777-0.236c-0.238-0.156-0.425-0.388-0.562-0.697
						c-0.137-0.309-0.204-0.682-0.204-1.122c0-0.416,0.064-0.781,0.193-1.096c0.129-0.315,0.31-0.556,0.543-0.724
						c0.233-0.168,0.499-0.252,0.795-0.252c0.285,0,0.547,0.082,0.787,0.245c0.24,0.165,0.43,0.402,0.57,0.712
						c0.141,0.311,0.211,0.682,0.211,1.114C223.346,480.165,223.276,480.549,223.135,480.856z"/>
					<path id="XMLID_531_" style="fill:#FFFFFF;" d="M233.582,476.818c-0.406-0.255-0.878-0.382-1.416-0.382
						c-0.467,0-0.859,0.084-1.176,0.252c-0.317,0.168-0.627,0.411-0.932,0.727v-2.475c0-0.297-0.067-0.525-0.202-0.686
						c-0.135-0.16-0.326-0.24-0.576-0.24c-0.237,0-0.423,0.084-0.555,0.252c-0.132,0.168-0.198,0.416-0.198,0.745v7.077
						c0,0.305,0.068,0.535,0.205,0.692c0.136,0.156,0.32,0.234,0.549,0.234c0.226,0,0.412-0.078,0.558-0.234
						c0.146-0.157,0.22-0.388,0.22-0.692v-0.161c0.178,0.206,0.322,0.361,0.431,0.463c0.109,0.103,0.241,0.203,0.395,0.3
						c0.154,0.098,0.341,0.175,0.561,0.234c0.219,0.06,0.454,0.089,0.703,0.089c0.407,0,0.78-0.082,1.119-0.246
						c0.338-0.164,0.626-0.397,0.864-0.698c0.237-0.3,0.418-0.656,0.543-1.065c0.124-0.41,0.187-0.859,0.187-1.35
						c0-0.665-0.112-1.241-0.336-1.725C234.302,477.444,233.987,477.075,233.582,476.818z M232.792,481.23
						c-0.294,0.355-0.646,0.532-1.053,0.532c-0.479,0-0.866-0.174-1.161-0.521c-0.295-0.346-0.442-0.841-0.442-1.486
						c0-0.44,0.069-0.819,0.208-1.137c0.139-0.319,0.329-0.562,0.57-0.73c0.241-0.168,0.517-0.252,0.825-0.252
						c0.301,0,0.564,0.084,0.79,0.252c0.225,0.168,0.399,0.406,0.522,0.715c0.123,0.308,0.184,0.677,0.184,1.104
						C233.235,480.368,233.087,480.875,232.792,481.23z"/>
					<path id="XMLID_530_" style="fill:#FFFFFF;" d="M240.527,476.522c-0.113-0.066-0.23-0.098-0.353-0.098
						c-0.17,0-0.302,0.03-0.395,0.09c-0.093,0.059-0.181,0.173-0.264,0.344c-0.083,0.17-0.176,0.407-0.279,0.706l-1.3,3.71
						l-1.371-3.989c-0.091-0.277-0.195-0.489-0.314-0.638c-0.119-0.148-0.296-0.223-0.529-0.223c-0.135,0-0.264,0.035-0.389,0.107
						c-0.124,0.071-0.222,0.166-0.294,0.285c-0.071,0.118-0.107,0.247-0.107,0.385c0,0.131,0.062,0.341,0.184,0.629l1.995,5.022
						l-0.148,0.363c-0.111,0.265-0.209,0.466-0.294,0.602c-0.085,0.137-0.181,0.233-0.288,0.288
						c-0.107,0.056-0.254,0.084-0.44,0.084c-0.075,0-0.164-0.012-0.267-0.035c-0.083-0.024-0.168-0.037-0.256-0.037
						c-0.221,0-0.388,0.051-0.501,0.152c-0.113,0.101-0.169,0.245-0.169,0.43c0,0.273,0.118,0.461,0.356,0.565
						c0.237,0.103,0.593,0.154,1.068,0.154c0.487,0,0.874-0.074,1.161-0.223c0.287-0.148,0.517-0.361,0.691-0.638
						c0.174-0.277,0.352-0.659,0.535-1.145l2.113-5.533c0.051-0.142,0.094-0.283,0.13-0.421c0.036-0.139,0.061-0.246,0.077-0.321
						c0-0.123-0.031-0.239-0.092-0.35C240.727,476.675,240.64,476.587,240.527,476.522z"/>
				</g>
				<g id="XMLID_508_">
					<path id="XMLID_528_" style="fill:#FFFFFF;" d="M262.932,474.01c-0.534,0-0.954,0.068-1.26,0.204
						c-0.307,0.137-0.527,0.354-0.654,0.653c-0.129,0.3-0.192,0.702-0.192,1.211v0.487h-0.386c-0.543,0-0.815,0.192-0.815,0.582
						c0,0.174,0.066,0.317,0.196,0.424c0.132,0.111,0.316,0.164,0.559,0.164h0.446v4.294c0,0.319,0.075,0.563,0.228,0.73
						c0.154,0.17,0.344,0.254,0.574,0.254c0.243,0,0.438-0.084,0.589-0.254c0.156-0.167,0.231-0.411,0.231-0.73v-4.294h0.395
						c0.291,0,0.517-0.035,0.681-0.107c0.166-0.071,0.245-0.241,0.245-0.503c0-0.374-0.306-0.56-0.926-0.56h-0.395v-0.386
						c0-0.322,0.043-0.568,0.122-0.74c0.087-0.172,0.273-0.259,0.566-0.259c0.107,0,0.241,0.014,0.389,0.035
						c0.156,0.026,0.267,0.037,0.33,0.037c0.134,0,0.252-0.054,0.348-0.16c0.101-0.107,0.15-0.236,0.15-0.385
						C264.352,474.239,263.882,474.01,262.932,474.01z"/>
					<path id="XMLID_527_" style="fill:#FFFFFF;" d="M268.093,476.676c-0.32-0.171-0.648-0.255-0.991-0.255
						c-0.342,0-0.611,0.084-0.819,0.255c-0.203,0.171-0.4,0.421-0.593,0.755c-0.014-0.334-0.08-0.584-0.198-0.755
						c-0.119-0.171-0.313-0.255-0.583-0.255c-0.526,0-0.788,0.364-0.788,1.093v4.514c0,0.323,0.077,0.569,0.225,0.734
						c0.15,0.168,0.341,0.25,0.579,0.25c0.237,0,0.432-0.08,0.586-0.247c0.151-0.163,0.234-0.41,0.234-0.737v-1.355
						c0-0.487,0.014-0.9,0.045-1.238c0.034-0.337,0.09-0.631,0.17-0.878c0.083-0.243,0.201-0.426,0.353-0.554
						c0.15-0.122,0.345-0.186,0.582-0.186c0.172,0,0.374,0.037,0.602,0.108c0.226,0.073,0.371,0.112,0.433,0.112
						c0.158,0,0.304-0.064,0.441-0.195c0.135-0.126,0.204-0.292,0.204-0.488C268.575,477.074,268.415,476.847,268.093,476.676z"/>
					<path id="XMLID_524_" style="fill:#FFFFFF;" d="M274.18,479.934c0.233-0.122,0.351-0.386,0.351-0.791
						c0-0.441-0.113-0.871-0.339-1.296c-0.222-0.424-0.566-0.77-1.018-1.034c-0.453-0.27-0.997-0.403-1.629-0.403
						c-0.488,0-0.931,0.078-1.33,0.234c-0.402,0.156-0.736,0.38-1.008,0.674c-0.276,0.295-0.484,0.643-0.624,1.055
						c-0.144,0.41-0.217,0.855-0.217,1.334c0,1.016,0.292,1.823,0.87,2.418c0.577,0.593,1.385,0.889,2.429,0.889
						c0.453,0,0.858-0.06,1.207-0.179c0.349-0.117,0.64-0.268,0.874-0.446c0.233-0.181,0.405-0.368,0.522-0.566
						c0.112-0.195,0.167-0.365,0.167-0.512c0-0.167-0.048-0.294-0.152-0.386c-0.105-0.092-0.238-0.138-0.406-0.138
						c-0.153,0-0.271,0.038-0.355,0.109c-0.202,0.189-0.367,0.34-0.494,0.449c-0.128,0.113-0.264,0.217-0.415,0.313
						c-0.15,0.097-0.307,0.17-0.466,0.213c-0.16,0.049-0.337,0.069-0.531,0.069c-0.29,0-0.552-0.07-0.793-0.212
						c-0.24-0.144-0.431-0.357-0.578-0.635c-0.144-0.28-0.216-0.607-0.221-0.974h3.171
						C273.619,480.115,273.947,480.055,274.18,479.934z M270.024,479.194c0.054-0.546,0.213-0.957,0.472-1.236
						c0.259-0.281,0.591-0.418,0.995-0.418c0.426,0,0.764,0.136,1.025,0.413c0.26,0.273,0.407,0.688,0.446,1.241H270.024z"/>
					<path id="XMLID_521_" style="fill:#FFFFFF;" d="M279.919,476.813c-0.46-0.27-1.003-0.403-1.633-0.403
						c-0.487,0-0.932,0.078-1.331,0.234c-0.401,0.156-0.737,0.38-1.009,0.674c-0.273,0.295-0.481,0.643-0.622,1.055
						c-0.145,0.41-0.217,0.855-0.217,1.334c0,1.016,0.291,1.823,0.868,2.418c0.58,0.593,1.387,0.889,2.429,0.889
						c0.454,0,0.861-0.06,1.209-0.179c0.347-0.117,0.641-0.268,0.872-0.446c0.234-0.181,0.408-0.368,0.519-0.566
						c0.117-0.195,0.171-0.365,0.171-0.512c0-0.167-0.047-0.294-0.15-0.386c-0.104-0.092-0.239-0.138-0.406-0.138
						c-0.151,0-0.271,0.038-0.355,0.109c-0.203,0.189-0.368,0.34-0.493,0.449c-0.128,0.113-0.264,0.217-0.415,0.313
						c-0.153,0.097-0.307,0.17-0.469,0.213c-0.158,0.049-0.336,0.069-0.528,0.069c-0.291,0-0.555-0.07-0.795-0.212
						c-0.239-0.144-0.431-0.357-0.576-0.635c-0.143-0.28-0.218-0.607-0.222-0.974h3.171c0.422,0,0.75-0.06,0.984-0.181
						c0.231-0.122,0.351-0.386,0.351-0.791c0-0.441-0.116-0.871-0.341-1.296C280.71,477.423,280.369,477.077,279.919,476.813z
						 M276.767,479.194c0.053-0.546,0.211-0.957,0.469-1.236c0.261-0.281,0.592-0.418,0.996-0.418c0.426,0,0.764,0.136,1.027,0.413
						c0.257,0.273,0.407,0.688,0.447,1.241H276.767z"/>
					<path id="XMLID_518_" style="fill:#FFFFFF;" d="M286.934,476.818c-0.42-0.256-0.883-0.386-1.38-0.386
						c-0.415,0-0.79,0.089-1.114,0.267c-0.331,0.176-0.649,0.452-0.953,0.828v-0.194c0-0.297-0.071-0.519-0.218-0.678
						c-0.143-0.156-0.329-0.234-0.56-0.234c-0.233,0-0.419,0.078-0.553,0.228c-0.134,0.155-0.2,0.383-0.2,0.692v6.996
						c0,0.355,0.051,0.62,0.146,0.807c0.102,0.183,0.301,0.275,0.607,0.275c0.518,0,0.778-0.359,0.778-1.069v-2.433
						c0.287,0.358,0.587,0.633,0.901,0.816c0.313,0.187,0.704,0.279,1.166,0.279c0.385,0,0.741-0.076,1.08-0.227
						c0.334-0.153,0.622-0.372,0.868-0.654c0.245-0.283,0.441-0.632,0.58-1.05c0.14-0.419,0.21-0.878,0.21-1.376
						c0-0.677-0.123-1.261-0.366-1.758C287.682,477.453,287.353,477.077,286.934,476.818z M286.457,480.822
						c-0.137,0.313-0.32,0.546-0.552,0.704c-0.229,0.154-0.48,0.233-0.748,0.233c-0.454,0-0.828-0.178-1.133-0.537
						c-0.307-0.358-0.46-0.862-0.46-1.504c0-0.686,0.154-1.204,0.462-1.558c0.306-0.35,0.684-0.527,1.13-0.527
						c0.281,0,0.541,0.084,0.77,0.248c0.229,0.163,0.411,0.397,0.541,0.705c0.13,0.306,0.197,0.674,0.197,1.102
						C286.665,480.13,286.595,480.508,286.457,480.822z"/>
					<path id="XMLID_517_" style="fill:#FFFFFF;" d="M289.908,476.421c-0.238,0-0.428,0.079-0.58,0.245
						c-0.146,0.162-0.222,0.403-0.222,0.721v4.642c0,0.313,0.076,0.556,0.222,0.729c0.152,0.17,0.342,0.254,0.58,0.254
						c0.238,0,0.432-0.082,0.588-0.25c0.154-0.165,0.231-0.41,0.231-0.732v-4.689c0-0.286-0.077-0.513-0.231-0.675
						C290.34,476.5,290.146,476.421,289.908,476.421z"/>
					<path id="XMLID_516_" style="fill:#FFFFFF;" d="M289.925,474.081c-0.217,0-0.408,0.076-0.571,0.222
						c-0.166,0.15-0.248,0.339-0.248,0.569c0,0.253,0.08,0.446,0.242,0.585c0.159,0.138,0.35,0.209,0.577,0.209
						c0.22,0,0.408-0.071,0.566-0.21c0.157-0.14,0.236-0.335,0.236-0.585c0-0.258-0.082-0.455-0.244-0.591
						C290.322,474.147,290.137,474.081,289.925,474.081z"/>
					<path id="XMLID_515_" style="fill:#FFFFFF;" d="M297.267,481.451l-1.662-2.614l0.861-0.789
						c0.438-0.396,0.659-0.714,0.659-0.951c0-0.192-0.068-0.355-0.2-0.483c-0.139-0.128-0.306-0.193-0.51-0.193
						c-0.169,0-0.313,0.043-0.431,0.13c-0.121,0.086-0.29,0.251-0.517,0.487l-1.823,1.914v-3.933c0-0.33-0.074-0.582-0.221-0.751
						c-0.148-0.172-0.344-0.257-0.593-0.257c-0.255,0-0.456,0.092-0.596,0.283c-0.135,0.189-0.207,0.463-0.207,0.821v6.915
						c0,0.323,0.073,0.569,0.215,0.734c0.141,0.168,0.339,0.25,0.588,0.25c0.213,0,0.406-0.084,0.566-0.254
						c0.165-0.167,0.248-0.406,0.248-0.718v-1.291l0.88-0.83l1.428,2.354c0.181,0.278,0.33,0.472,0.436,0.58
						c0.106,0.109,0.261,0.16,0.458,0.16c0.226,0,0.413-0.073,0.554-0.221c0.141-0.151,0.213-0.352,0.213-0.61
						c0-0.089-0.029-0.189-0.081-0.289C297.479,481.791,297.388,481.647,297.267,481.451z"/>
					<path id="XMLID_514_" style="fill:#FFFFFF;" d="M299.459,481.225c-0.25,0-0.458,0.087-0.63,0.262
						c-0.17,0.173-0.256,0.381-0.256,0.622c0,0.287,0.09,0.51,0.268,0.665c0.179,0.159,0.389,0.238,0.634,0.238
						c0.237,0,0.444-0.079,0.624-0.241c0.174-0.158,0.264-0.38,0.264-0.662c0-0.243-0.089-0.454-0.264-0.626
						C299.919,481.312,299.708,481.225,299.459,481.225z"/>
					<path id="XMLID_513_" style="fill:#FFFFFF;" d="M306.846,480.298c-0.167,0-0.308,0.054-0.422,0.156
						c-0.113,0.104-0.219,0.245-0.318,0.427c-0.178,0.31-0.382,0.538-0.617,0.689c-0.231,0.15-0.51,0.225-0.835,0.225
						c-0.239,0-0.462-0.045-0.665-0.141c-0.201-0.093-0.372-0.229-0.516-0.409c-0.144-0.18-0.252-0.398-0.325-0.653
						c-0.075-0.255-0.114-0.537-0.114-0.842c0-0.646,0.147-1.161,0.44-1.534c0.293-0.375,0.682-0.561,1.158-0.561
						c0.333,0,0.607,0.074,0.821,0.226c0.219,0.148,0.424,0.375,0.622,0.674c0.109,0.158,0.209,0.269,0.299,0.339
						c0.09,0.068,0.201,0.104,0.338,0.104c0.202,0,0.377-0.068,0.524-0.203c0.144-0.135,0.214-0.3,0.214-0.492
						c0-0.192-0.063-0.397-0.192-0.617c-0.128-0.218-0.314-0.424-0.556-0.62c-0.245-0.192-0.54-0.352-0.891-0.474
						c-0.353-0.123-0.737-0.184-1.158-0.184c-0.674,0-1.259,0.138-1.746,0.419c-0.486,0.279-0.859,0.674-1.113,1.184
						c-0.259,0.511-0.387,1.098-0.387,1.765c0,0.981,0.281,1.765,0.841,2.35c0.562,0.582,1.345,0.876,2.349,0.876
						c0.469,0,0.894-0.065,1.269-0.192c0.377-0.126,0.688-0.295,0.934-0.502c0.248-0.208,0.434-0.425,0.554-0.656
						c0.121-0.229,0.182-0.446,0.182-0.646c0-0.169-0.066-0.331-0.198-0.481C307.209,480.375,307.044,480.298,306.846,480.298z"/>
					<path id="XMLID_510_" style="fill:#FFFFFF;" d="M313.659,477.334c-0.288-0.29-0.629-0.517-1.027-0.674
						c-0.4-0.16-0.847-0.239-1.337-0.239c-0.482,0-0.923,0.078-1.326,0.234c-0.398,0.158-0.737,0.38-1.019,0.669
						c-0.281,0.288-0.498,0.637-0.649,1.046c-0.147,0.408-0.224,0.857-0.224,1.349c0,0.485,0.076,0.93,0.219,1.332
						c0.152,0.402,0.369,0.75,0.657,1.048c0.284,0.292,0.627,0.521,1.016,0.676c0.392,0.159,0.835,0.239,1.326,0.239
						c0.493,0,0.937-0.08,1.337-0.234c0.394-0.157,0.735-0.382,1.02-0.675c0.286-0.291,0.502-0.642,0.656-1.049
						c0.146-0.409,0.222-0.856,0.222-1.337c0-0.489-0.075-0.932-0.221-1.339C314.161,477.977,313.945,477.631,313.659,477.334z
						 M312.466,481.251c-0.289,0.372-0.681,0.557-1.171,0.557c-0.323,0-0.604-0.086-0.845-0.253c-0.24-0.168-0.423-0.41-0.553-0.729
						c-0.129-0.316-0.193-0.684-0.193-1.108c0-0.428,0.066-0.803,0.197-1.124c0.13-0.322,0.314-0.564,0.556-0.728
						c0.242-0.164,0.522-0.246,0.839-0.246c0.49,0,0.882,0.182,1.171,0.555c0.29,0.367,0.436,0.881,0.436,1.543
						C312.903,480.369,312.756,480.881,312.466,481.251z"/>
					<path id="XMLID_509_" style="fill:#FFFFFF;" d="M323.583,476.694c-0.32-0.173-0.705-0.262-1.146-0.262
						c-0.381,0-0.726,0.081-1.039,0.241c-0.313,0.161-0.607,0.408-0.881,0.738c-0.192-0.326-0.431-0.572-0.725-0.735
						c-0.292-0.162-0.641-0.244-1.049-0.244c-0.394,0-0.748,0.079-1.07,0.241c-0.319,0.156-0.62,0.403-0.903,0.738v-0.153
						c0-0.261-0.074-0.466-0.221-0.615c-0.15-0.145-0.335-0.222-0.557-0.222c-0.227,0-0.413,0.078-0.556,0.239
						c-0.14,0.157-0.209,0.389-0.209,0.695v4.637c0,0.336,0.078,0.591,0.235,0.765c0.156,0.171,0.357,0.258,0.604,0.258
						c0.248,0,0.447-0.087,0.603-0.258c0.15-0.173,0.226-0.428,0.226-0.765v-2.189c0-0.684,0.087-1.207,0.254-1.567
						c0.169-0.369,0.516-0.551,1.048-0.551c0.264,0,0.459,0.073,0.582,0.22c0.122,0.142,0.198,0.331,0.227,0.552
						c0.027,0.226,0.04,0.544,0.04,0.953v2.582c0,0.342,0.078,0.594,0.233,0.767c0.148,0.17,0.349,0.255,0.594,0.255
						c0.254,0,0.455-0.085,0.611-0.255c0.156-0.173,0.231-0.425,0.231-0.767v-2.154c0-0.694,0.062-1.178,0.178-1.452
						c0.109-0.21,0.259-0.384,0.45-0.508c0.192-0.126,0.395-0.192,0.609-0.192c0.264,0,0.463,0.073,0.596,0.215
						c0.129,0.142,0.21,0.318,0.239,0.529c0.029,0.209,0.043,0.487,0.043,0.836v2.726c0,0.336,0.079,0.591,0.235,0.765
						c0.157,0.171,0.356,0.258,0.603,0.258c0.253,0,0.458-0.085,0.612-0.255c0.153-0.173,0.229-0.425,0.229-0.767v-3.164
						c0-0.629-0.068-1.09-0.206-1.385C324.141,477.119,323.902,476.868,323.583,476.694z"/>
				</g>
				<g id="XMLID_494_">
					<path id="XMLID_507_" style="fill:#FFFFFF;" d="M245.272,479.326c-0.001-0.003-0.001-0.006-0.001-0.011
						C245.271,479.319,245.271,479.322,245.272,479.326z"/>
					<path id="XMLID_506_" style="fill:#FFFFFF;" d="M245.354,479.844c0.001,0,0.001,0,0.001,0
						c-0.031-0.148-0.055-0.294-0.074-0.439C245.3,479.551,245.324,479.698,245.354,479.844z"/>
					<path id="XMLID_505_" style="fill:#FFFFFF;" d="M245.89,481.348c-0.004-0.006-0.007-0.013-0.011-0.021
						C245.883,481.334,245.886,481.341,245.89,481.348z"/>
					<path id="XMLID_504_" style="fill:#FFFFFF;" d="M245.839,481.248c-0.014-0.027-0.027-0.056-0.041-0.084
						C245.811,481.193,245.825,481.22,245.839,481.248z"/>
					<path id="XMLID_503_" style="fill:#FFFFFF;" d="M245.504,480.423c0.079,0.25,0.175,0.493,0.286,0.724
						c-0.113-0.236-0.206-0.479-0.283-0.724H245.504z"/>
					<path id="XMLID_502_" style="fill:#FFFFFF;" d="M250.736,472.562l-0.076-0.259c0.299-0.063,0.524-0.329,0.524-0.646
						c0-0.364-0.296-0.658-0.661-0.658c-0.364,0-0.66,0.295-0.66,0.658c0,0.317,0.224,0.583,0.523,0.646l0.084,0.289
						c-1.021,0.14-1.834,0.539-1.834,0.539l0.144,0.441c0.618-0.206,1.154-0.331,1.64-0.383c0.476-0.051,0.834-0.073,1.127-0.073
						c0.313,0,0.544,0.025,0.809,0.07l0.075-0.477C252.43,472.708,251.698,472.483,250.736,472.562z"/>
					<path id="XMLID_501_" style="fill:#FFFFFF;" d="M245.452,475.069c-0.017,0.024-0.497,0.465-0.876,1.28
						c-0.016-0.026-0.035-0.05-0.056-0.074c-0.114-0.124-0.272-0.187-0.474-0.184c-0.003,0-0.006,0-0.009,0
						c-0.125,0-0.21-0.042-0.267-0.092c0.056-0.071,0.089-0.16,0.089-0.258c0-0.23-0.187-0.418-0.418-0.418
						c-0.23,0-0.418,0.188-0.418,0.418c0,0.231,0.187,0.418,0.418,0.418c0.036,0,0.071-0.006,0.104-0.013
						c0.103,0.114,0.266,0.214,0.505,0.209c0.123-0.001,0.213,0.03,0.273,0.097c0.069,0.076,0.093,0.185,0.1,0.267
						c-0.001,0.001-0.001,0.003-0.002,0.003c-0.272,0.743-0.194,1.669-0.194,1.669l0.661,0.026c0.013-0.337,0.062-0.926,0.232-1.394
						c0.329-0.906,0.741-1.472,0.758-1.496l0.004-0.005c0.024-0.031,0.047-0.06,0.071-0.089l-0.196-0.141L245.452,475.069z"/>
					<path id="XMLID_500_" style="fill:#FFFFFF;" d="M257.295,473.668c-0.23,0-0.418,0.187-0.418,0.418
						c0,0.036,0.006,0.07,0.015,0.103c-0.115,0.104-0.214,0.267-0.211,0.507c0.002,0.123-0.03,0.212-0.096,0.273
						c-0.053,0.047-0.12,0.072-0.185,0.088c-0.492-0.689-1.097-1.109-1.097-1.109l-0.474,0.508c0.358,0.326,0.725,0.734,1.08,1.244
						c0.246,0.352,0.499,0.806,0.71,1.259l0.64-0.304c0,0-0.292-0.722-0.704-1.37c0.071-0.025,0.143-0.064,0.207-0.12
						c0.125-0.113,0.187-0.273,0.183-0.473c-0.001-0.13,0.042-0.218,0.093-0.276c0.071,0.054,0.16,0.089,0.258,0.089
						c0.232,0,0.419-0.187,0.419-0.418C257.714,473.854,257.527,473.668,257.295,473.668z"/>
					<path id="XMLID_499_" style="fill:#FFFFFF;" d="M255.634,479.419c-0.881,0.429-2.33,0.996-4.238,1.262
						c-0.749,0.104-1.475,0.142-2.143,0.142c-0.869,0-1.637-0.065-2.227-0.139c-0.673-0.085-1.198-0.189-1.52-0.261
						c0.077,0.245,0.171,0.488,0.283,0.724c0.002,0.006,0.005,0.013,0.008,0.017c0.013,0.027,0.027,0.056,0.041,0.084
						c0.013,0.027,0.027,0.054,0.041,0.079c0.004,0.007,0.007,0.015,0.011,0.021c0.189,0.357,0.417,0.684,0.675,0.968
						c0.9,0.984,1.817,1.14,1.826,1.141l0.014,0.002l0.013,0.005c0.008,0.003,0.821,0.265,2.057,0.265
						c1.216,0,2.409-0.245,3.546-0.729c0.842-0.431,1.639-1.085,2.034-1.669c0.305-0.452,0.526-0.933,0.656-1.434
						c0.07-0.266,0.124-0.692,0.092-1.141C256.556,478.923,256.164,479.161,255.634,479.419z"/>
					<path id="XMLID_495_" style="fill:#FFFFFF;" d="M252.322,473.536c-0.265-0.043-0.477-0.068-0.777-0.068
						c-0.28,0-0.626,0.022-1.09,0.071c-0.464,0.048-0.982,0.17-1.583,0.372c-0.842,0.282-1.605,0.724-2.204,1.28l-0.02,0.019
						c-0.089,0.082-0.274,0.254-0.488,0.526c-0.026,0.037-0.408,0.578-0.71,1.408c-0.226,0.622-0.216,1.527-0.216,1.538v0.002
						c0,0.212,0.012,0.423,0.035,0.632c0,0.005,0,0.008,0.001,0.011c0.002,0.027,0.007,0.053,0.009,0.079
						c0.019,0.145,0.043,0.291,0.074,0.439c0.438,0.111,3.049,0.72,5.968,0.314c1.829-0.255,3.218-0.795,4.062-1.204
						c0.701-0.34,1.151-0.648,1.325-0.774c-0.173-0.643-0.651-1.65-1.089-2.279C254.368,474.109,253.016,473.65,252.322,473.536z
						 M248.678,478.795c-0.972,0-1.76-0.787-1.76-1.759c0-0.972,0.788-1.761,1.76-1.761c0.973,0,1.761,0.789,1.761,1.761
						C250.439,478.008,249.651,478.795,248.678,478.795z M253.829,477.498c-0.601,0-1.089-0.489-1.089-1.09
						c0-0.601,0.488-1.09,1.089-1.09c0.601,0,1.09,0.488,1.09,1.09C254.919,477.009,254.43,477.498,253.829,477.498z"/>
				</g>
			</g>
		</g>
	</g>
</g>
</svg>
