<?xml version="1.0" encoding="utf-8"?>
<!-- Generator: Adobe Illustrator 27.5.0, SVG Export Plug-In . SVG Version: 6.00 Build 0)  -->
<svg version="1.1" xmlns="http://www.w3.org/2000/svg" xmlns:xlink="http://www.w3.org/1999/xlink" x="0px" y="0px"
	 viewBox="0 0 500 500" style="enable-background:new 0 0 500 500;" xml:space="preserve">
<g id="BACKGROUND">
</g>
<g id="OBJECTS">
	<g>
		<polygon style="fill:#1D1D1B;" points="116.268,128.748 125.832,127.114 119.343,134.328 123.852,142.919 114.987,138.977 
			108.21,145.92 109.219,136.27 100.521,131.97 110.011,129.948 111.413,120.348 		"/>
		<polygon style="fill:#1D1D1B;" points="154.801,315.172 162.765,309.63 159.956,318.917 167.687,324.779 157.987,324.977 
			154.801,334.142 151.616,324.977 141.915,324.779 149.647,318.917 146.837,309.63 		"/>
		<polygon style="fill:#1D1D1B;" points="431.999,298.565 439.963,293.023 437.153,302.31 444.885,308.172 435.185,308.369 
			431.999,317.534 428.813,308.369 419.113,308.172 426.845,302.31 424.035,293.023 		"/>
		<polygon style="fill:#1D1D1B;" points="373.486,209.281 376.374,200.018 379.854,209.075 389.556,208.959 382.018,215.067 
			385.126,224.258 376.987,218.977 369.206,224.773 371.714,215.4 363.797,209.792 		"/>
		<polygon style="fill:#1D1D1B;" points="389.692,96.521 394.871,96.76 390.661,99.785 392.034,104.785 387.856,101.715 
			383.525,104.566 385.153,99.643 381.104,96.406 386.288,96.433 388.116,91.581 		"/>
		<polygon style="fill:#1D1D1B;" points="436.852,183.046 442.031,183.285 437.82,186.31 439.193,191.31 435.015,188.24 
			430.685,191.091 432.313,186.168 428.263,182.931 433.448,182.958 435.276,178.106 		"/>
		<polygon style="fill:#1D1D1B;" points="403.518,179.046 408.698,179.285 404.487,182.31 405.86,187.31 401.682,184.24 
			397.351,187.091 398.98,182.168 394.93,178.931 400.115,178.958 401.942,174.106 		"/>
		<polygon style="fill:#1D1D1B;" points="402.185,265.713 407.364,265.952 403.153,268.977 404.527,273.976 400.348,270.906 
			396.018,273.758 397.646,268.835 393.597,265.597 398.781,265.625 400.609,260.773 		"/>
		<polygon style="fill:#1D1D1B;" points="75.518,315.046 80.698,315.285 76.487,318.31 77.86,323.31 73.682,320.24 69.351,323.091 
			70.98,318.168 66.93,314.931 72.115,314.958 73.942,310.106 		"/>
		<polygon style="fill:#1D1D1B;" points="428.593,82.013 437.141,82.407 430.191,87.4 432.458,95.652 425.561,90.585 
			418.414,95.291 421.101,87.166 414.417,81.823 422.975,81.868 425.992,73.86 		"/>
		<polygon style="fill:#1D1D1B;" points="64.85,162.931 73.361,163.824 66.131,168.403 67.913,176.773 61.323,171.313 
			53.913,175.593 57.071,167.639 50.709,161.915 59.25,162.459 62.729,154.641 		"/>
		<polygon style="fill:#1D1D1B;" points="431.259,158.013 439.808,158.407 432.858,163.4 435.125,171.652 428.228,166.585 
			421.08,171.291 423.768,163.166 417.084,157.823 425.642,157.868 428.658,149.86 		"/>
		<polygon style="fill:#1D1D1B;" points="95.926,325.346 104.475,325.74 97.525,330.733 99.791,338.986 92.895,333.919 
			85.747,338.625 88.435,330.5 81.75,325.156 90.308,325.202 93.325,317.193 		"/>
		<polygon style="fill:#1D1D1B;" points="90.891,197.363 96.933,197.642 92.021,201.171 93.623,207.003 88.749,203.422 
			83.697,206.747 85.597,201.005 80.872,197.229 86.921,197.261 89.053,191.601 		"/>
		<polygon style="fill:#1D1D1B;" points="104.825,250.739 110.867,251.018 105.955,254.546 107.557,260.379 102.683,256.797 
			97.631,260.123 99.531,254.381 94.807,250.605 100.855,250.637 102.987,244.977 		"/>
		<polygon style="fill:#1D1D1B;" points="121.293,217.979 125.217,210.374 126.856,218.774 135.302,220.156 127.82,224.31 
			129.116,232.769 122.852,226.937 115.208,230.783 118.819,223.025 112.798,216.943 		"/>
		<polygon style="fill:#1D1D1B;" points="449.452,96.763 450.911,93.936 451.52,97.058 454.66,97.572 451.878,99.116 452.36,102.26 
			450.032,100.093 447.19,101.522 448.533,98.638 446.295,96.378 		"/>
		<polygon style="fill:#1D1D1B;" points="418.082,189.551 419.541,186.724 420.15,189.846 423.289,190.359 420.508,191.904 
			420.99,195.048 418.662,192.88 415.82,194.31 417.162,191.426 414.925,189.165 		"/>
		<polygon style="fill:#1D1D1B;" points="411.153,240.977 412.612,238.15 413.221,241.272 416.361,241.786 413.58,243.33 
			414.061,246.474 411.733,244.306 408.891,245.736 410.234,242.852 407.996,240.591 		"/>
		<polygon style="fill:#1D1D1B;" points="88.082,299.551 89.541,296.724 90.15,299.846 93.289,300.359 90.508,301.904 
			90.99,305.048 88.662,302.88 85.82,304.31 87.162,301.426 84.925,299.165 		"/>
		<polygon style="fill:#1D1D1B;" points="427.82,260.31 429.279,257.483 429.888,260.605 433.027,261.119 430.246,262.663 
			430.728,265.807 428.4,263.64 425.558,265.069 426.9,262.185 424.662,259.925 		"/>
		<polygon style="fill:#1D1D1B;" points="399.416,111.551 400.874,108.724 401.483,111.846 404.623,112.359 401.842,113.904 
			402.323,117.048 399.995,114.88 397.153,116.31 398.496,113.426 396.258,111.165 		"/>
		<polygon style="fill:#1D1D1B;" points="78.061,218.624 79.519,215.797 80.129,218.919 83.268,219.432 80.487,220.977 
			80.968,224.121 78.64,221.953 75.799,223.383 77.141,220.499 74.903,218.238 		"/>
		<polygon style="fill:#1D1D1B;" points="135.039,146.986 137.56,145.046 136.786,148.132 139.409,149.93 136.236,150.147 
			135.336,153.198 134.149,150.247 130.969,150.333 133.41,148.293 132.344,145.296 		"/>
		<polygon style="fill:#1D1D1B;" points="118.574,343.647 120.033,340.82 120.642,343.942 123.781,344.456 121,346 121.481,349.144 
			119.153,346.977 116.312,348.406 117.654,345.522 115.416,343.262 		"/>
		<polygon style="fill:#1D1D1B;" points="113.871,321.616 115.164,319.11 115.704,321.877 118.487,322.333 116.022,323.701 
			116.448,326.488 114.385,324.567 111.866,325.834 113.056,323.278 111.073,321.274 		"/>
		<polygon style="fill:#1D1D1B;" points="128.419,284.015 129.878,281.188 130.487,284.31 133.626,284.824 130.845,286.368 
			131.327,289.512 128.998,287.345 126.157,288.774 127.499,285.89 125.261,283.629 		"/>
		<polygon style="fill:#1D1D1B;" points="446.061,142.624 447.519,139.797 448.129,142.919 451.268,143.432 448.487,144.977 
			448.968,148.121 446.64,145.953 443.799,147.383 445.141,144.499 442.903,142.238 		"/>
		<polygon style="fill:#1D1D1B;" points="99.421,213.296 100.463,211.277 100.898,213.507 103.14,213.874 101.153,214.977 
			101.497,217.222 99.835,215.674 97.805,216.695 98.764,214.635 97.166,213.021 		"/>
		<polygon style="fill:#1D1D1B;" points="432.902,247.229 433.88,245.334 434.289,247.427 436.394,247.772 434.529,248.807 
			434.852,250.915 433.291,249.462 431.386,250.42 432.286,248.487 430.785,246.971 		"/>
		<polygon style="fill:#1D1D1B;" points="390.537,280.624 391.515,278.728 391.924,280.822 394.029,281.166 392.164,282.202 
			392.487,284.31 390.926,282.857 389.02,283.815 389.92,281.881 388.42,280.365 		"/>
		<polygon style="fill:#1D1D1B;" points="95.957,125.13 97.758,123.745 97.205,125.948 99.078,127.233 96.812,127.387 
			96.169,129.567 95.322,127.459 93.051,127.521 94.794,126.063 94.033,123.923 		"/>
		<polygon style="fill:#1D1D1B;" points="157.435,215.066 158.476,213.047 158.911,215.276 161.153,215.643 159.167,216.746 
			159.511,218.992 157.849,217.444 155.819,218.465 156.778,216.405 155.179,214.79 		"/>
		<polygon style="fill:#1D1D1B;" points="171.677,286.766 172.718,284.747 173.153,286.977 175.395,287.344 173.409,288.446 
			173.753,290.692 172.091,289.144 170.061,290.165 171.02,288.105 169.421,286.491 		"/>
		<polygon style="fill:#1D1D1B;" points="180.74,299.265 181.781,297.246 182.216,299.476 184.458,299.843 182.472,300.946 
			182.816,303.191 181.153,301.643 179.124,302.664 180.083,300.605 178.484,298.99 		"/>
	</g>
	<path style="fill:#1D1D1B;" d="M400.183,42.488c-73.986,30.181-110.034,94.78-119.719,114.786c-1.04,0.273-1.879,0.433-2.44,0.371
		c-2.335-0.256-2.415-6.681-1.89-13.172c4.706-1.561,11.117-5.418,14.894-14.931c8.207,0.634,20.927-33.303,20.927-33.303
		c-8.879,4.923-14.23,9.938-17.445,14.382c0.013-9.427-3.418-15.663-10.465-19.642c0.1-0.021,0.199-0.047,0.302-0.062
		c0.209-0.04,0.421-0.08,0.636-0.121c0.215-0.013,0.433-0.025,0.654-0.038c0.44-0.056,0.88,0.023,1.324,0.055
		c0.875,0.167,1.74,0.462,2.527,0.992c0.789,0.519,1.54,1.146,2.249,1.858c0.718,0.692,1.407,1.448,2.095,2.188
		c0.695,0.735,1.318,1.483,2.142,2.219c0.807,0.7,1.737,1.353,2.926,1.618c0.585,0.128,1.224,0.153,1.821,0.02
		c0.596-0.129,1.127-0.381,1.568-0.671c0.882-0.594,1.426-1.293,1.853-1.903c0.415-0.618,0.7-1.176,0.915-1.642
		c0.214-0.466,0.355-0.84,0.449-1.104c0.091-0.282,0.14-0.432,0.14-0.432l-2.367,1.068l-0.813-1.859c0,0-0.021,0.097-0.06,0.28
		c-0.048,0.197-0.127,0.496-0.253,0.864c-0.126,0.367-0.3,0.806-0.54,1.259c-0.242,0.443-0.557,0.907-0.934,1.221
		c-0.382,0.31-0.761,0.485-1.33,0.424c-0.566-0.046-1.284-0.391-1.975-0.889c-0.675-0.481-1.419-1.194-2.185-1.861
		c-0.763-0.673-1.537-1.369-2.372-2.028c-0.816-0.669-1.717-1.29-2.677-1.789c-0.959-0.514-2.047-0.78-3.078-0.862
		c-0.362,0.006-0.715,0.009-1.061,0.037c4.637-1.395,11.15-4.679,14.131-12.372c0,0-2.535,0.393-5.782,1.51
		c0.418-2.152,0.564-4.675,0.315-7.665c0,0-2.11,0.863-4.8,2.485c0.781-1.389,1.464-2.834,2.025-4.328
		c0.422-1.085,0.749-2.206,1.029-3.338c0.274-1.133,0.479-2.285,0.596-3.448c0.139-1.161,0.148-2.335,0.118-3.506
		c-0.052-1.172-0.207-2.339-0.456-3.49c-0.253-1.15-0.631-2.276-1.139-3.349c-0.512-1.069-1.168-2.09-2.038-2.941
		c-0.906-0.917-1.987-1.388-3.114-1.805c-1.122-0.42-2.335-0.609-3.537-0.579c-1.204,0.025-2.398,0.278-3.514,0.714
		c-0.265,0.105-0.524,0.219-0.78,0.34c-0.37-0.257-0.74-0.512-1.126-0.749c-1.017-0.606-2.087-1.139-3.226-1.512
		c-1.133-0.379-2.339-0.609-3.56-0.554c-1.216,0.042-2.442,0.373-3.49,1.005c-1.056,0.619-1.938,1.481-2.663,2.431l-0.519,0.731
		l-0.462,0.775c-0.299,0.529-0.538,1.012-0.788,1.582c-0.481,1.091-0.8,2.242-1.019,3.404c-0.184,1.167-0.305,2.346-0.278,3.523
		c-0.005,1.177,0.109,2.347,0.267,3.507c0.175,1.158,0.396,2.307,0.691,3.437c0.283,1.133,0.625,2.249,1.004,3.351
		c0.384,1.1,0.795,2.19,1.261,3.257c0.095,0.221,0.208,0.433,0.307,0.653c-3.415-4.043-7.075-6.741-7.075-6.741
		c-0.991,3.19-1.376,5.965-1.322,8.378c-2.594-1.515-4.608-2.301-4.608-2.301c1.119,7.327,5.791,11.796,9.793,14.345
		c-0.073-0.016-0.145-0.033-0.218-0.05c-1.025-0.143-2.144-0.119-3.191,0.175c-1.046,0.279-2.059,0.691-3.001,1.167
		c-0.958,0.463-1.864,0.975-2.755,1.467c-0.892,0.486-1.773,1.021-2.536,1.344c-0.782,0.337-1.558,0.518-2.121,0.44
		c-0.569-0.063-0.901-0.316-1.206-0.701c-0.299-0.388-0.506-0.91-0.647-1.394c-0.136-0.494-0.211-0.96-0.255-1.346
		c-0.044-0.387-0.056-0.696-0.06-0.899c0.001-0.187,0.002-0.286,0.002-0.286l-1.196,1.639l-2.08-1.555c0,0,0.015,0.157,0.043,0.452
		c0.034,0.278,0.09,0.674,0.199,1.175c0.11,0.501,0.268,1.107,0.538,1.801c0.285,0.688,0.665,1.488,1.397,2.259
		c0.368,0.379,0.832,0.739,1.386,0.994c0.554,0.26,1.183,0.374,1.782,0.375c1.218-0.001,2.267-0.437,3.207-0.946
		c0.964-0.539,1.734-1.135,2.572-1.702c0.832-0.574,1.668-1.162,2.519-1.683c0.847-0.541,1.715-0.992,2.598-1.327
		c0.883-0.347,1.792-0.448,2.682-0.421c0.44,0.065,0.887,0.083,1.304,0.233c0.212,0.06,0.422,0.12,0.63,0.179
		c0.201,0.086,0.399,0.172,0.594,0.256c0.4,0.153,0.769,0.352,1.12,0.561c0.323,0.18,0.636,0.356,0.922,0.556
		c-7.514,2.278-12.165,7.368-14.297,16.056c-1.823-5.464-5.985-12.4-14.854-20.249c0,0,5.223,36.955,13.585,37.073
		c0.76,10.604,5.41,16.511,9.689,19.728c-0.88,6.729-2.373,13.534-4.806,13.268c-0.034-0.004-0.072-0.012-0.107-0.018
		c-4.848-20.822-25.816-92.682-92.187-138.628c0,0,34.669,27.925,11.661,65.765c-16.473,27.092-6.639,48.066,12.303,52.353
		c-10.07,6.352-16.561,15.757-8.373,27.92c8.91,13.234,22.859,15.806,36.502,14.062c-5.296,9.537-13.219,22.54-19.006,26.46
		c0,0-8.8,8.249-20.106,15.346c-11.306,7.097-67.004,51.007-33.187,26.635c0,0-24.239,21.035,1.449,2.791
		c0,0-19.91,17.561,1.544,1.924c0,0-20.248,16.646,6.211-0.636c0,0-6.329,17.732,4.139-1.74c0,0,31.905-14.931,48.739-28.441
		c12.339-9.903,23.473-23.934,28.544-30.726c0.133,1.705,0.59,3.536,1.419,5.493c0,0,4.506,17.289,8.191,23.79
		c-0.014,0.002-0.028,0.005-0.042,0.007c-1.857,0.331-3.702,0.713-5.524,1.183c-1.827,0.449-3.629,0.992-5.422,1.557
		c-1.786,0.589-3.548,1.249-5.289,1.958c-1.738,0.717-3.449,1.498-5.139,2.321l-2.505,1.294l-2.453,1.39
		c-1.609,0.971-3.211,1.955-4.735,3.056l-1.156,0.806l-1.118,0.857c-0.738,0.581-1.508,1.12-2.212,1.743l-2.148,1.82l-2.056,1.922
		c-0.7,0.625-1.325,1.327-1.981,1.996c-0.647,0.678-1.303,1.347-1.898,2.072l-1.827,2.132l-1.709,2.226
		c-0.585,0.729-1.11,1.503-1.634,2.277c-0.521,0.775-1.07,1.531-1.555,2.328c-0.938,1.614-1.952,3.18-2.771,4.855l-1.28,2.479
		l-1.147,2.541c-0.806,1.672-1.4,3.444-2.082,5.165c-0.624,1.743-1.125,3.523-1.693,5.283c0.705-1.708,1.346-3.447,2.104-5.131
		c0.795-1.665,1.468-3.375,2.369-4.985l1.28-2.442l1.406-2.369c0.901-1.6,1.991-3.081,3-4.606c0.524-0.75,1.098-1.465,1.636-2.203
		c0.544-0.735,1.088-1.468,1.69-2.156l1.758-2.099l1.868-2c0.607-0.68,1.274-1.303,1.93-1.935c0.663-0.624,1.284-1.291,1.985-1.875
		l2.05-1.803l2.135-1.699c0.698-0.583,1.462-1.081,2.192-1.621l1.106-0.796l1.142-0.745c1.509-1.012,3.075-1.936,4.645-2.846
		l2.394-1.299l2.443-1.205c0.88-0.408,1.765-0.802,2.656-1.183c-1.384,0.95-2.739,1.941-4.052,2.982
		c-1.547,1.254-3.063,2.545-4.503,3.915c-0.741,0.664-1.438,1.371-2.132,2.081c-0.697,0.707-1.404,1.403-2.056,2.151
		c-0.663,0.737-1.334,1.468-1.976,2.221l-1.88,2.299c-0.643,0.753-1.2,1.572-1.803,2.355c-0.588,0.794-1.199,1.571-1.742,2.397
		c-1.122,1.625-2.244,3.249-3.253,4.944c-1.064,1.66-2.005,3.392-2.973,5.105c-0.973,1.711-1.814,3.491-2.726,5.23
		c-0.835,1.779-1.64,3.571-2.443,5.36c-0.739,1.818-1.504,3.623-2.22,5.447l-2.022,5.515l-1.784,5.591l2.22-5.425l2.337-5.365
		c0.818-1.769,1.684-3.516,2.522-5.272l2.728-5.158c0.975-1.681,1.88-3.401,2.911-5.045c1.025-1.647,2.022-3.31,3.137-4.895
		c0.552-0.795,1.066-1.617,1.635-2.399l1.712-2.342c0.556-0.791,1.177-1.532,1.775-2.29c0.613-0.746,1.18-1.529,1.83-2.243
		l1.899-2.181l1.977-2.105c0.646-0.714,1.344-1.376,2.031-2.047c0.685-0.675,1.371-1.347,2.099-1.974
		c1.415-1.299,2.9-2.514,4.409-3.692c0.117-0.09,0.238-0.172,0.356-0.261c-0.547,0.475-1.094,0.961-1.635,1.463
		c-2.046,1.996-4.121,4.119-5.944,6.509c-0.459,0.595-0.919,1.192-1.38,1.791c-0.45,0.607-0.863,1.243-1.298,1.865
		c-0.886,1.236-1.672,2.541-2.463,3.843c-0.798,1.299-1.457,2.673-2.188,4c-0.646,1.369-1.336,2.712-1.92,4.088
		c-0.596,1.371-1.175,2.736-1.657,4.117c-0.526,1.366-0.971,2.739-1.41,4.089c-0.443,1.348-0.815,2.693-1.179,4.007
		c-0.315,1.328-0.672,2.613-0.928,3.885c-0.585,2.528-0.971,4.95-1.296,7.185c-0.317,2.237-0.526,4.295-0.652,6.123
		c-0.152,1.825-0.183,3.423-0.214,4.735c-0.031,2.628,0.086,4.123,0.086,4.123s0.038-0.372,0.111-1.07
		c0.072-0.697,0.224-1.715,0.395-3.007c0.378-2.583,0.989-6.256,1.961-10.597c0.503-2.167,1.078-4.504,1.773-6.948
		c0.684-2.447,1.521-4.989,2.44-7.593c0.001-0.003,0.002-0.005,0.003-0.008c-0.583,4.917-0.083,9.644,1.275,14.098
		c0.771,2.775,1.935,5.558,3.623,8.24c6.586,11.294,18.679,20.034,31.464,24.388c-0.562,15.752,2.508,30.008,5.847,40.558
		c-6.121,6.375-11.672,11.037-16.365,14.432c4.653-7.264,8.733-19.837-1.138-36.45c0,0-3.508,9.031-3.107,19.225
		c-1.303-2.23-3.183-4.657-5.885-7.172c0,0-1.491,9.803,5.575,19c-1.794-1.514-4.615-3.244-8.88-4.318
		c0,0,1.463,10.149,11.799,10.774c0.046,0.003,0.083,0.007,0.128,0.01c-1.04,0.721-2.035,1.382-2.976,1.977
		c-2.933-2.733-6.778-5.466-8.873-3.479c-3.69,3.499-9.412,7.791-9.412,7.791s-8.918,1.138-12.868,10.45
		c0,0-3.339,2.239-3.084,4.573c0.136,1.246,27.872-5.821,58.981-17.545c-6.6,10.719-14.356,28.003-11.803,47.362
		c1.806,13.693,1.561,24.196,0.685,31.76c-0.241-8.617-3.928-21.796-22.228-29.787c0,0,2.42,9.381,8.693,17.426
		c-2.359-1.051-5.303-1.925-8.964-2.391c0,0,4.509,8.831,15.613,12.178c-2.339-0.183-5.641,0.058-9.731,1.675
		c0,0,7.109,7.389,15.868,1.866c0.243-0.154,0.468-0.287,0.685-0.413c-0.131,1.073-0.274,2.083-0.426,3.033
		c-3.855,0.207-8.292,1.063-8.197,3.913c0.167,5.02-0.393,12.026-0.393,12.026s-4.887,7.112-0.684,16.303
		c0,0-0.519,3.906,1.332,5.326c1.821,1.397,43.218-83.052,43.73-130.15c17.896-7.945,34.852-17.111,46.335-26.812
		c0.833-0.266,1.603-0.599,2.286-1.019c9.057-5.577,1.849-23.997-17.585-42.931l-0.41-3.146c-0.296-1.936-0.645-3.866-0.966-5.802
		c-0.39-1.922-0.781-3.847-1.203-5.766c-0.507-1.898-0.936-3.819-1.508-5.702c-0.566-1.884-1.103-3.781-1.776-5.634
		c-0.611-1.875-1.348-3.706-2.085-5.538c-0.348-0.925-0.773-1.817-1.172-2.722c-0.416-0.896-0.78-1.818-1.241-2.694l-1.328-2.656
		c-0.461-0.876-0.954-1.737-1.439-2.602c-0.471-0.873-1.008-1.708-1.532-2.551c-0.521-0.845-1.045-1.688-1.621-2.499
		c-1.102-1.654-2.298-3.247-3.53-4.811c-1.051-1.305-2.154-2.569-3.296-3.801c0.785,0.568,1.562,1.147,2.33,1.739l2.118,1.713
		l2.049,1.795c1.331,1.234,2.655,2.48,3.904,3.799l0.95,0.978l0.904,1.02c0.594,0.688,1.228,1.342,1.781,2.064l1.709,2.127
		l1.603,2.21c0.555,0.724,1.013,1.511,1.523,2.266c0.501,0.76,1.014,1.515,1.457,2.312l1.382,2.362l1.253,2.435
		c0.436,0.804,0.806,1.639,1.174,2.476c0.363,0.839,0.765,1.662,1.111,2.509c0.649,1.71,1.386,3.395,1.913,5.153l0.85,2.621
		l0.711,2.664c0.525,1.769,0.804,3.584,1.213,5.384c0.369,1.809,0.611,3.646,0.923,5.468c-0.167-1.842-0.264-3.689-0.489-5.526
		c-0.287-1.829-0.476-3.688-0.894-5.496l-0.559-2.731l-0.703-2.7c-0.43-1.815-1.074-3.565-1.634-5.346
		c-0.297-0.885-0.666-1.743-1.004-2.613c-0.34-0.87-0.682-1.74-1.092-2.581l-1.177-2.547l-1.313-2.482
		c-0.421-0.838-0.913-1.635-1.395-2.439c-0.492-0.797-0.948-1.62-1.493-2.383l-1.582-2.327l-1.695-2.248
		c-0.549-0.763-1.182-1.458-1.774-2.187l-0.902-1.082l-0.95-1.04c-1.244-1.409-2.59-2.722-3.946-4.023l-2.086-1.896l-2.159-1.813
		c-1.467-1.175-2.964-2.313-4.502-3.395c-1.542-1.075-3.116-2.106-4.728-3.074c-1.16-0.676-2.333-1.328-3.519-1.96
		c5.028-5.28,11.392-14.253,16.615-28.93c3.667,8.036,11.273,23.382,20.793,35.243c13.51,16.834,41.427,38.317,41.427,38.317
		c6.005,21.276,3.664,2.595,3.664,2.595c22.092,22.599,5.927,1.965,5.927,1.965c17.56,19.91,1.924-1.544,1.924-1.544
		c21.13,23.372,2.019-2.411,2.019-2.411c27.739,31.115-17.133-23.811-26.635-33.187c-9.502-9.376-16.308-19.334-16.308-19.334
		c-4.897-5.181-9.919-20.071-13.013-30.57c13.525,5.406,28.677,6.646,40.907-4.979c10.627-10.102,6.325-20.689-2.131-29.07
		c19.421-0.085,33.562-18.434,23.343-48.449C360.291,62.247,400.183,42.488,400.183,42.488z M291.585,275.52
		c0.576-12.78-1.849-23.059-5.361-31.1c0.18,0.319,0.369,0.631,0.534,0.961c0.617,1.268,1.328,2.504,1.887,3.831
		c0.295,0.655,0.592,1.313,0.889,1.973c0.285,0.665,0.528,1.351,0.796,2.028c0.554,1.347,0.992,2.744,1.448,4.134
		c0.49,1.379,0.833,2.807,1.256,4.203c0.333,1.422,0.714,2.827,0.988,4.246c0.576,2.831,1.078,5.638,1.402,8.382
		c0.185,1.569,0.338,3.102,0.468,4.61C294.496,277.692,293.059,276.602,291.585,275.52z M281.716,49.141
		c0.232-0.04,0.463-0.085,0.697-0.113c0.381-0.038,0.765-0.023,1.148-0.039c0.379,0.044,0.761,0.072,1.137,0.134
		c0.355,0.102,0.771,0.177,1.079,0.298c0.351,0.174,0.751,0.307,1.062,0.516c0.296,0.226,0.617,0.409,0.901,0.663
		c0.271,0.272,0.557,0.531,0.819,0.814l0.71,0.921c0.214,0.324,0.401,0.667,0.604,1c0.218,0.325,0.339,0.703,0.514,1.053
		c0.174,0.351,0.318,0.715,0.432,1.092c0.097,0.255,0.17,0.518,0.246,0.779C289.574,52.752,286.599,50.128,281.716,49.141z
		 M275.065,48.773c-10.359,0.654-11.624,9.971-10.066,19.641c-0.237-0.803-0.41-1.625-0.616-2.436
		c-0.113-1.231-0.382-2.45-0.305-3.691c0.01-0.618-0.013-1.237,0.025-1.853l0.235-1.84l0.117-0.919
		c0.05-0.305,0.144-0.601,0.214-0.903l0.452-1.8c0.286-1.175,0.779-2.378,1.275-3.45c0.572-1.068,1.251-2.089,2.161-2.841
		c0.902-0.758,2.042-1.168,3.214-1.168c1.174-0.009,2.35,0.335,3.452,0.832c0.262,0.119,0.509,0.27,0.764,0.405
		C275.675,48.761,275.385,48.753,275.065,48.773z M280.145,48.492c1.029-0.409,2.124-0.646,3.225-0.675
		c1.1-0.034,2.211,0.13,3.252,0.515c1.025,0.362,2.116,0.86,2.833,1.611c0.785,0.759,1.405,1.703,1.892,2.708
		c0.484,1.008,0.853,2.081,1.101,3.183c0.493,2.206,0.62,4.499,0.415,6.767c-0.094,1.135-0.275,2.262-0.525,3.375
		c-0.255,1.111-0.558,2.215-0.954,3.288c-0.081,0.234-0.18,0.462-0.268,0.693c0.901-3.153,1.29-6.256,1.049-9.083l-0.024-0.806
		c-0.001-0.403-0.04-0.803-0.097-1.202c-0.056-0.398-0.083-0.802-0.163-1.197c-0.169-0.788-0.333-1.579-0.609-2.341
		c-0.111-0.389-0.253-0.768-0.427-1.135c-0.174-0.366-0.294-0.757-0.514-1.101c-0.205-0.351-0.394-0.712-0.613-1.055l-0.733-0.984
		c-0.273-0.305-0.574-0.589-0.861-0.884c-0.303-0.282-0.674-0.51-1.012-0.764c-0.349-0.234-0.716-0.359-1.074-0.544
		c-0.428-0.177-0.806-0.24-1.213-0.364c-0.406-0.076-0.82-0.114-1.231-0.167c-0.412,0.007-0.829-0.013-1.239,0.021
		c-0.781,0.077-1.554,0.22-2.299,0.453c-0.072-0.057-0.144-0.118-0.216-0.174C279.941,48.583,280.042,48.533,280.145,48.492z
		 M263.405,65.5c-0.272-1.118-0.47-2.252-0.623-3.389c-0.136-1.138-0.228-2.283-0.204-3.425c-0.008-1.143,0.13-2.278,0.324-3.395
		c0.234-1.109,0.542-2.203,1.003-3.234c0.476-1.032,1.005-2.047,1.695-2.923c0.683-0.886,1.497-1.666,2.447-2.216
		c0.944-0.562,2.028-0.847,3.126-0.88c1.1-0.044,2.209,0.17,3.269,0.531c1.065,0.354,2.08,0.866,3.05,1.451
		c0.241,0.149,0.473,0.318,0.71,0.478c-0.123,0.072-0.241,0.155-0.362,0.232c-0.087-0.002-0.165-0.013-0.253-0.015
		c-0.653-0.407-1.324-0.788-2.035-1.109c-1.175-0.52-2.458-0.898-3.794-0.881c-1.332,0.003-2.68,0.5-3.69,1.363
		c-1.023,0.856-1.742,1.965-2.342,3.1c-0.549,1.2-0.996,2.332-1.285,3.595l-0.431,1.851c-0.066,0.309-0.156,0.614-0.202,0.927
		l-0.105,0.945l-0.208,1.889c-0.028,0.632,0.006,1.268,0.006,1.901c-0.055,1.272,0.238,2.52,0.378,3.776
		c0.331,1.223,0.58,2.469,1.093,3.631c0.142,0.387,0.3,0.768,0.473,1.141c0.147,0.715,0.305,1.429,0.475,2.138
		c-0.127-0.304-0.272-0.601-0.394-0.906C264.677,69.931,263.922,67.744,263.405,65.5z M267.128,89.035
		c-0.026,0.032-0.049,0.068-0.075,0.101c-0.064-0.054-0.123-0.103-0.188-0.158c-0.035-0.031-0.075-0.059-0.111-0.089
		C266.884,88.941,267.01,88.991,267.128,89.035z M289.409,243.444c0.572,0.772,1.093,1.578,1.613,2.387
		c0.523,0.806,1.058,1.605,1.531,2.444l1.465,2.489l1.372,2.545c0.476,0.839,0.858,1.728,1.291,2.59
		c0.417,0.871,0.86,1.73,1.227,2.624l1.154,2.661c0.383,0.888,0.703,1.802,1.067,2.7c0.739,1.791,1.345,3.633,1.983,5.465
		c0.644,1.831,1.147,3.708,1.728,5.562l1.526,5.632c0.431,1.898,0.891,3.792,1.299,5.698l0.43,2.251
		c-2.691-2.58-5.605-5.166-8.737-7.729c-0.012-0.884-0.035-1.778-0.045-2.692c-0.066-1.362-0.133-2.756-0.268-4.168
		c-0.132-1.413-0.263-2.851-0.476-4.299c-0.166-1.454-0.431-2.913-0.71-4.381c-0.267-1.47-0.644-2.933-0.973-4.41
		c-0.421-1.456-0.762-2.941-1.254-4.383c-0.484-1.445-0.964-2.89-1.556-4.291c-0.287-0.703-0.55-1.414-0.856-2.105
		c-0.318-0.686-0.636-1.37-0.952-2.051c-1.252-2.733-2.809-5.261-4.365-7.658c-0.416-0.609-0.843-1.203-1.272-1.788
		c0.095,0.112,0.195,0.22,0.29,0.333C287.134,240.354,288.315,241.866,289.409,243.444z"/>
</g>
</svg>
