<?xml version="1.0" encoding="utf-8"?>
<!-- Generator: Adobe Illustrator 27.5.0, SVG Export Plug-In . SVG Version: 6.00 Build 0)  -->
<svg version="1.1" xmlns="http://www.w3.org/2000/svg" xmlns:xlink="http://www.w3.org/1999/xlink" x="0px" y="0px"
	 viewBox="0 0 500 500" style="enable-background:new 0 0 500 500;" xml:space="preserve">
<g id="BACKGROUND">
	<rect y="0" style="fill:#FFFFFF;" width="500" height="500"/>
</g>
<g id="OBJECTS">
	<g>
		<path style="fill-rule:evenodd;clip-rule:evenodd;fill:#21211E;" d="M404.948,39.806c-0.08,0.046-0.379,0.482-0.678,0.965
			c-0.287,0.494-0.678,1.045-0.861,1.217c-0.356,0.356-1.011,0.597-1.642,0.597c-0.551,0-1.413-0.597-1.918-1.344
			c-0.218-0.333-0.471-0.632-0.563-0.666c-0.184-0.069-0.586,0.253-0.586,0.482c0,0.367-0.861,2.113-1.24,2.503
			c-0.425,0.436-0.999,0.769-1.527,0.896c-0.494,0.126-1.803-0.333-2.63-0.896c-0.413-0.287-0.804-0.517-0.873-0.517
			c-0.264,0-0.39,0.322-0.494,1.332c-0.172,1.516-0.528,2.503-1.137,3.124l-0.494,0.505l-0.85-0.08l-0.838-0.08l-0.781,0.792
			c-0.907,0.896-1.849,1.413-3.147,1.746c-1.608,0.402-3.87,0.517-5.96,0.287c-0.792-0.092-1.906-0.172-2.48-0.184
			c-1.16-0.034-3.158,0.115-3.365,0.241c-0.069,0.046-0.149,0.207-0.161,0.356c-0.034,0.23,0.057,0.333,0.482,0.54
			c0.287,0.138,0.953,0.471,1.493,0.723c1.229,0.609,2.01,1.217,2.768,2.182c0.459,0.574,0.54,0.746,0.678,1.516
			c0.207,1.068-0.735,3.468-1.837,4.708c-0.907,1.011-1.711,1.355-4.249,1.826c-1.275,0.23-2.584,0.632-3.445,1.057
			c-0.402,0.195-0.517,0.322-0.517,0.528c0,0.345,0.057,0.367,1.78,0.815c2.09,0.54,2.699,0.953,3.296,2.262
			c0.769,1.677,0.345,2.699-1.872,4.571c-1.16,0.976-1.252,1.034-2.377,1.677c-0.551,0.322-1.056,0.678-1.114,0.804
			c-0.195,0.345,0.046,0.678,0.482,0.678c0.482,0,2.056,0.448,2.285,0.643c0.092,0.092,0.218,0.161,0.264,0.161
			s0.31,0.23,0.574,0.505c0.85,0.873,0.988,2.354,0.31,3.422c-0.666,1.045-1.711,2.136-2.469,2.561
			c-0.402,0.23-0.769,0.494-0.804,0.586c-0.103,0.276,0.115,0.574,0.586,0.792c0.609,0.276,1.378,1.045,1.734,1.723
			c0.287,0.528,0.31,0.689,0.31,1.86c0,1.125-0.034,1.321-0.241,1.608c-0.31,0.413-0.723,0.459-1.355,0.149
			c-0.517-0.241-1.654-1.39-2.366-2.366c-0.758-1.045-1.275-1.539-1.608-1.539c-0.459,0-0.701,0.345-0.804,1.183
			c-0.103,0.838-0.149,0.942-0.574,1.298c-0.884,0.758-1.091,1.125-1.321,2.343c-0.092,0.482-0.494,1.194-0.942,1.665
			c-0.184,0.184-0.448,0.551-0.609,0.792C361,92.78,361,92.849,361.115,93.78c0.126,0.988,0.046,1.619-0.241,1.975
			c-0.356,0.436-0.769,1.424-0.838,1.941c-0.046,0.448-0.011,0.723,0.195,1.206c0.264,0.666,0.264,0.689,0,2.458
			c-0.161,1.114-0.115,1.435,0.345,2.412c0.39,0.827,0.413,1.114,0.172,2.056c-0.253,0.976-0.115,1.263,0.953,1.941
			c0.597,0.379,0.678,0.551,0.62,1.194c-0.057,0.551,0.138,0.965,0.689,1.47c0.723,0.666,0.781,0.792,0.907,1.769
			c0.069,0.586,0.184,0.919,0.448,1.298c0.195,0.287,0.448,0.884,0.563,1.378c0.276,1.091,0.666,1.631,1.24,1.734
			c0.356,0.069,0.551,0.011,1.137-0.299c0.861-0.459,1.642-1.194,2.859-2.71c1.194-1.47,2.974-3.261,3.25-3.261
			c0.563,0,0.746,2.503,0.287,3.973c-0.276,0.861-0.494,1.125-1.642,2.044c-0.815,0.643-1.171,1.114-1.435,1.906
			c-0.299,0.896-0.643,1.413-1.734,2.538c-0.93,0.976-1.229,1.47-1.711,2.791c-0.23,0.632-0.838,1.367-1.344,1.631
			c-0.184,0.092-0.655,0.494-1.056,0.884c-0.712,0.701-1.011,1.206-1.458,2.481c-0.253,0.723-0.609,1.217-1.344,1.883
			c-1.114,1.011-1.275,1.24-1.642,2.377c-0.471,1.493-0.712,1.975-1.527,3.101c-0.999,1.367-1.148,1.654-1.447,2.745l-0.264,0.953
			l-0.873,0.701c-0.976,0.792-1.413,1.298-2.033,2.366c-0.413,0.712-0.425,0.758-0.413,1.837c0.011,0.609,0.069,1.286,0.138,1.504
			c0.172,0.597,0.138,1.045-0.092,1.435c-0.218,0.345-0.299,0.574-0.482,1.321c-0.092,0.345-0.057,0.494,0.253,1.022
			c0.413,0.746,0.39,1.102-0.115,1.86c-0.356,0.528-0.712,1.447-0.712,1.837c0,0.367,0.31,0.873,0.758,1.206
			c0.551,0.425,0.735,0.827,0.689,1.504c-0.069,0.758,0.103,1.321,0.528,1.78c1.034,1.079,1.022,1.057,1.183,2.216
			c0.161,1.206,0.287,1.458,0.919,1.964c0.23,0.184,0.563,0.448,0.723,0.574c0.172,0.138,0.54,0.586,0.827,0.999
			c0.701,1.011,1.057,1.24,2.125,1.344c0.482,0.046,0.884,0.103,0.907,0.126c0.023,0.023,0.149,0.264,0.287,0.528
			c0.207,0.425,0.299,0.482,0.815,0.597c0.322,0.069,0.884,0.126,1.252,0.126c0.792,0,1.275,0.299,2.021,1.229
			c0.838,1.057,1.413,1.263,2.469,0.896c0.689-0.241,1.447-0.218,2.056,0.08c0.322,0.161,0.723,0.241,1.068,0.241
			c0.471-0.011,0.689-0.103,1.504-0.655c1.171-0.781,1.665-0.999,2.159-0.93c0.218,0.023,0.678,0.069,1.022,0.115
			c0.574,0.069,0.701,0.046,1.378-0.31c0.597-0.31,0.861-0.54,1.286-1.125c0.953-1.298,1.079-1.424,1.78-1.688
			c1.034-0.402,1.378-0.758,1.585-1.642c0.092-0.413,0.207-0.999,0.241-1.309c0.046-0.448,0.149-0.643,0.425-0.896
			c0.207-0.172,0.597-0.528,0.861-0.781l0.505-0.459l-0.08-1.079c-0.08-1.079-0.08-1.102,0.264-1.711
			c0.402-0.712,0.712-1.677,0.712-2.228c0-0.276-0.115-0.505-0.413-0.838c-0.23-0.253-0.482-0.459-0.563-0.459
			c-0.299,0-0.953-0.884-1.034-1.39c-0.046-0.276-0.172-0.723-0.287-0.988c-0.184-0.413-0.322-0.54-0.953-0.838
			c-0.402-0.184-0.792-0.345-0.85-0.345c-0.069,0-0.322-0.241-0.551-0.528c-0.965-1.171-1.596-1.39-2.928-1.011l-0.655,0.184
			l-0.322-0.299c-0.172-0.161-0.505-0.345-0.735-0.413c-0.574-0.161-1.206,0.172-1.998,1.034c-0.517,0.563-0.701,0.689-1.114,0.758
			c-0.39,0.069-0.632,0.218-1.137,0.712c-0.356,0.345-0.85,0.723-1.114,0.838c-0.712,0.333-1.137,0.861-1.424,1.769
			c-0.149,0.436-0.436,1.057-0.655,1.367c-0.494,0.723-0.54,1.378-0.138,2.17c0.126,0.241,0.241,0.758,0.276,1.171
			c0.069,1.137,0.356,1.504,1.275,1.619c0.402,0.057,0.723,0.195,1.137,0.517c0.792,0.597,1.413,0.643,1.998,0.149
			c0.517-0.436,0.459-0.701-0.345-1.481c-1.183-1.171-1.435-2.021-0.919-3.066c0.666-1.309,2.01-2.343,3.422-2.63
			c1.562-0.322,3.147,0.574,3.916,2.193c1.183,2.48-0.85,6.316-4.146,7.809c-3.307,1.493-6.259,1.229-9.497-0.85
			c-0.93-0.597-2.664-2.458-3.273-3.503c-0.999-1.723-1.55-3.847-1.55-5.983c0-1.16,0.046-1.55,0.367-3.043
			c0.184-0.896,0.643-1.975,1.332-3.158c0.609-1.045,1.803-2.871,1.964-2.986c0.046-0.034,0.253-0.287,0.471-0.574
			c0.218-0.287,0.505-0.643,0.632-0.804c0.85-1.079,5.133-5.145,8.843-8.383c1.263-1.102,2.354-2.056,2.423-2.125
			c0.069-0.057,0.563-0.505,1.091-0.976c1.78-1.596,5.639-5.558,7.12-7.292c0.482-0.574,1.091-1.367,1.367-1.78
			c0.264-0.413,0.586-0.884,0.701-1.057c0.126-0.172,0.218-0.356,0.218-0.413c0-0.31,0.471-0.494,1.447-0.551
			c3.422-0.195,6.488-0.953,9.256-2.285c2.572-1.229,5.581-4.49,7.442-8.039c0.195-0.379,0.402-0.769,0.459-0.861
			c0.172-0.287,0.758-1.734,0.976-2.412c0.115-0.345,0.241-0.689,0.287-0.746c0.367-0.459,1.355-4.823,1.55-6.775
			c0.149-1.585,0.207-2.791,0.207-4.364c0-3.181-0.184-4.777-0.896-7.637c-1.39-5.616-3.411-9.589-9.026-17.857
			c-1.16-1.7-1.791-3.066-1.849-3.973c-0.034-0.471-0.012-0.505,0.276-0.54c0.322-0.034,1.022,0.345,1.39,0.758
			c0.115,0.126,0.413,0.735,0.666,1.355c0.264,0.632,0.574,1.252,0.712,1.401c0.126,0.138,0.563,0.356,0.965,0.482
			c0.735,0.23,0.735,0.23,2.48-0.011c2.768-0.379,3.836-0.31,5.076,0.31c0.85,0.436,1.275,1.022,1.493,2.09
			c0.184,0.884,0.758,2.492,1.068,2.974c0.264,0.413,0.643,0.333,1.068-0.23c1.378-1.803,3.388-2.745,5.845-2.745
			c1.034,0.011,1.401,0.103,2.664,0.701c0.907,0.425,2.193,1.585,2.745,2.446c1.435,2.274,2.515,3.859,2.687,3.927
			c0.103,0.034,0.379,0.069,0.62,0.069c0.528,0,1.424,0.264,2.435,0.701c1.435,0.62,3.261,0.965,3.514,0.655
			c0.069-0.08,0.207-0.448,0.31-0.804c0.207-0.712,0.494-1.252,1.057-2.01c0.517-0.666,0.666-1.194,0.574-2.01
			c-0.08-0.804-0.31-1.206-0.769-1.298c-0.184-0.046-0.356-0.115-0.39-0.172s-0.299-0.207-0.586-0.345
			c-0.597-0.299-2.056-1.367-2.745-2.033c-0.896-0.85-2.239-2.653-2.239-2.986c0-0.115,0.126-0.655,0.276-1.183
			c0.356-1.298,0.31-2.033-0.218-3.124c-0.609-1.252-0.873-1.585-1.964-2.412c-0.666-0.494-0.689-0.54-0.781-1.7
			c-0.149-1.665-1.711-3.962-5.064-7.464c-1.171-1.217-1.206-1.447-0.505-2.951c0.563-1.229,0.735-2.308,0.655-4.111
			c-0.046-0.942-0.126-1.413-0.299-1.814c-0.287-0.655-0.735-0.896-1.068-0.586c-0.126,0.115-0.218,0.241-0.218,0.299
			s-0.138,0.402-0.299,0.758s-0.413,0.884-0.54,1.171c-0.322,0.712-0.723,1.217-1.171,1.493c-0.413,0.253-0.861,0.299-0.861,0.08
			c-0.011-0.253-0.379-0.942-1.102-2.033c-0.287-0.413-1.068-1.263-1.55-1.665c-1.401-1.183-2.986-1.355-5.627-0.62
			c-0.666,0.184-0.953,0.103-1.642-0.471C405.19,39.691,405.144,39.668,404.948,39.806L404.948,39.806z"/>
		<path style="fill-rule:evenodd;clip-rule:evenodd;fill:#21211E;" d="M165.713,44.322c-7.249,0.347-13.429,2.029-20.825,5.66
			c-5.059,2.496-7.903,4.552-10.906,7.943c-2.189,2.456-3.471,4.645-4.752,8.076c-1.041,2.803-1.495,4.712-1.762,7.329
			c-0.36,3.724-0.067,5.9,1.602,11.827c1.548,5.5,2.016,7.969,2.029,10.746c0,2.069-0.254,3.324-0.948,4.752
			c-0.627,1.255-1.896,2.71-2.723,3.11c-1.535,0.748-2.336,0.681-8.236-0.574c-7.556-1.602-9.958-1.749-13.656-0.801
			c-3.337,0.854-5.794,2.216-7.742,4.325c-0.961,1.041-2.069,2.99-1.922,3.377c0.12,0.32,0.614,0.28,1.161-0.093
			c2.63-1.775,7.289-0.708,10.319,2.363c1.615,1.642,2.763,3.524,4.979,8.09c3.991,8.21,6.514,11.454,10.079,12.975
			c2.136,0.908,5.313,1.428,7.729,1.255c2.603-0.174,4.379-0.547,8.81-1.829c2.149-0.627,2.456-0.681,3.804-0.694
			c1.282-0.013,1.615,0.04,2.603,0.374c3.03,1.015,4.525,2.069,7.769,5.433c3.324,3.457,5.006,4.739,7.702,5.834
			c1.575,0.641,2.95,0.868,4.819,0.774c4.459-0.2,6.942-1.575,9.358-5.219c1.255-1.896,2.136-4.058,3.07-7.582
			c1.335-5.046,2.389-7.462,4.726-10.666c1.121-1.562,3.764-4.165,5.139-5.073c3.15-2.096,5.593-2.563,8.477-1.655
			c2.55,0.801,4.152,2.363,4.312,4.152c0.16,1.949-0.921,3.351-5.713,7.329c-4.592,3.818-6.661,6.114-8.076,8.957
			c-1.589,3.217-1.936,6.901-0.921,10.119c1.215,3.845,3.711,6.354,7.155,7.168c1.548,0.36,3.084,0.521,6.755,0.667
			c1.749,0.067,3.658,0.214,4.245,0.334c3.084,0.587,4.258,1.575,4.419,3.724c0.093,1.135-0.08,1.829-0.948,3.778
			c-0.761,1.722-0.974,2.803-0.761,3.858c0.574,2.897,3.137,5.179,6.835,6.114c2.523,0.641,3.618,0.748,7.542,0.788
			c4.005,0.027,5.286-0.093,8.664-0.801c4.285-0.894,10.372-2.977,14.043-4.832c4.298-2.149,6.635-3.845,11.253-8.156
			c2.737-2.55,4.031-3.551,5.527-4.272c1.068-0.521,2.403-0.921,2.563-0.774c0.374,0.374,0.788,3.804,0.681,5.58
			c-0.214,3.351-1.428,5.393-4.045,6.768c-1.682,0.881-3.11,1.255-5.46,1.375c-1.522,0.08-2.283,0.2-3.19,0.467
			c-2.536,0.748-7.342,3.164-10.666,5.353c-2.069,1.375-7.889,5.927-14.243,11.133c-1.575,1.282-3.23,2.63-3.684,2.964
			c-3.017,2.309-10.773,6.421-18.542,9.838c-12.869,5.66-18.275,8.263-23.388,11.253c-8.156,4.779-12.682,6.488-16.446,6.194
			c-1.856-0.147-2.149-0.267-3.925-1.642c-2.336-1.802-4.045-3.351-5.647-5.139c-1.815-2.029-3.017-2.91-3.671-2.71
			c-0.133,0.04-0.254,0.227-0.28,0.4c-0.04,0.294-0.174,0.2-1.508-0.961c-2.376-2.069-3.377-2.616-3.818-2.096
			c-0.133,0.174-0.133,0.32,0,0.828c0.093,0.347,0.214,0.748,0.24,0.894c0.053,0.2-0.08,0.12-0.507-0.294
			c-1.081-1.015-3.11-2.697-3.551-2.937c-0.547-0.294-0.894-0.133-0.948,0.441c-0.053,0.507,0.908,2.47,1.976,4.058
			c0.441,0.654,0.774,1.201,0.734,1.201c-0.187,0-1.695-1.055-2.843-1.976c-2.243-1.789-3.364-2.283-3.471-1.522
			c-0.093,0.641,1.642,3.377,3.965,6.274c2.002,2.496,3.244,3.751,5.78,5.874c1.869,1.548,2.964,2.683,3.377,3.497l0.187,0.36
			l-1.295,0.08c-1.962,0.12-4.819,0.814-6.181,1.508c-1.255,0.627-1.869,1.642-1.148,1.909c0.427,0.16,2.163,0.387,4.232,0.547
			c0.988,0.08,2.723,0.24,3.858,0.347c3.644,0.334,4.512,0.24,8.837-1.015c3.137-0.894,4.565-1.121,6.581-1.028
			c0.894,0.04,2.163,0.174,2.817,0.294c0.894,0.174,2.002,0.227,4.405,0.227c5.94,0.013,11.667-0.854,20.357-3.11
			c5.607-1.455,12.108-3.831,16.593-6.074c3.511-1.762,5.473-3.017,8.637-5.527c5.58-4.432,9.318-6.181,20.09-9.411
			c6.982-2.096,9.531-3.097,12.188-4.819l1.108-0.721l-0.107,0.908c-0.067,0.494-0.107,2.243-0.107,3.898
			c0.013,2.309,0.067,3.284,0.24,4.205c0.427,2.163,1.442,6.354,2.363,9.745c1.308,4.846,1.508,6.087,1.522,9.344
			c0.013,2.416-0.013,2.763-0.294,3.631c-0.307,0.974-0.881,1.882-1.522,2.349c-0.868,0.654-4.365,0.294-9.184-0.921
			c-11.934-3.03-17.941-4.245-22.76-4.592c-8.103-0.574-13.429-0.147-20.691,1.695c-6.261,1.575-12.682,3.965-18.021,6.701
			c-5.326,2.723-8.477,4.766-15.285,9.892c-6.781,5.099-14.577,12.375-19.53,18.181c-6.795,7.996-14.217,20.464-19.45,32.679
			c-3.337,7.769-7.075,19.543-8.864,27.833c-0.894,4.165-1.308,6.915-2.002,13.229c-0.974,8.784-0.934,8.25-0.948,18.008
			c0,8.276,0.027,9.198,0.307,12.281c0.32,3.511,0.534,5.286,0.961,7.809c0.147,0.841,0.36,2.256,0.467,3.137
			c0.507,3.911,1.815,9.131,3.351,13.389c1.442,3.965,4.218,9.945,6.087,13.042c2.389,3.991,4.499,6.982,7.876,11.16
			c6.741,8.383,13.322,14.604,20.531,19.41c3.484,2.323,5.553,3.511,9.478,5.486c5.353,2.67,9.918,4.579,15.205,6.327
			c10.986,3.644,20.17,4.953,30.716,4.405c6.928-0.374,10.506-0.974,15.712-2.683c4.419-1.442,7.422-2.67,11.293-4.605
			c5.713-2.857,9.998-5.62,14.51-9.384c1.896-1.575,7.142-6.781,8.81-8.757c1.842-2.163,4.525-5.86,4.872-6.701
			c0.013-0.013,1.241,0.587,2.737,1.335c8.463,4.245,17.114,6.608,26.898,7.355c5.326,0.414,9.358,0.521,12.869,0.36
			c7.556-0.36,12.295-1.215,19.97-3.618c12.054-3.764,21.772-9.585,28.701-17.167c4.098-4.485,6.101-7.622,9.411-14.737
			c1.522-3.23,2.256-5.113,3.618-9.211c1.882-5.66,3.591-12.028,6.127-22.827c3.017-12.882,5.366-20.825,8.77-29.688
			c2.723-7.075,6.581-14.203,10.466-19.303c2.87-3.778,6.488-7.289,9.611-9.318c1.268-0.828,1.468-1.161,0.761-1.255
			c-0.24-0.04-1.015-0.2-1.709-0.36c-3.391-0.801-4.152-0.854-12.335-0.908c-9.745-0.08-10.693,0-18.942,1.709
			c-5.46,1.135-6.795,1.468-10.265,2.603c-5.687,1.869-12.201,4.686-16.032,6.955c-3.858,2.283-5.94,3.871-8.637,6.581
			c-3.524,3.524-5.647,6.634-8.677,12.682c-1.682,3.364-2.59,5.486-5.406,12.548c-3.297,8.303-5.246,12.415-7.462,15.819
			c-2.296,3.511-6.02,7.062-10.693,10.172c-2.59,1.735-4.579,2.83-10.946,5.98c-3.297,1.642-6.635,3.391-7.409,3.871
			c-2.189,1.375-4.312,3.057-5.433,4.285c-2.096,2.296-4.686,6.101-5.42,7.956c-0.16,0.427-0.334,0.774-0.374,0.774
			c-0.093,0-0.347-1.722-0.467-3.137c-0.107-1.428,0.147-4.432,0.547-6.421c0.667-3.297,1.388-4.993,3.978-9.291
			c3.19-5.313,3.724-5.954,13.122-15.552c6.434-6.581,7.462-7.769,10.946-12.588c2.923-4.045,4.712-7.048,6.461-10.826
			c2.536-5.473,3.778-12.068,3.778-20.077c0-7.582-1.415-17.114-3.457-23.254c-0.654-2.002-3.578-9.064-4.031-9.758
			c-0.107-0.16-0.267-0.294-0.374-0.294c-0.24,0-0.534,0.494-0.641,1.041c-0.04,0.254-0.547,1.575-1.108,2.937
			c-3.551,8.597-6.661,12.655-14.19,18.542c-3.938,3.07-7.542,5.059-13.963,7.702c-12.455,5.113-17.781,7.689-23.014,11.133
			c-3.017,1.976-4.445,3.11-6.728,5.34c-5.286,5.179-8.53,10.479-11.026,18.021c-2.964,8.971-3.564,16.299-2.056,25.123
			c1.375,8.049,5.967,19.877,10.492,27.019c0.934,1.482,2.857,4.125,4.632,6.354c1.589,2.002,5.34,5.74,7.088,7.062
			c0.841,0.627,1.669,1.241,1.842,1.348c0.294,0.2,0.294,0.214-1.135,1.415c-2.109,1.789-3.23,2.63-5.313,4.005
			c-7.289,4.779-14.657,7.649-23.027,8.957c-1.268,0.2-2.336,0.24-6.207,0.24c-4.165-0.013-4.886-0.04-6.608-0.307
			c-2.163-0.334-5.42-1.068-7.262-1.615c-2.563-0.774-7.742-3.257-11.48-5.486c-9.838-5.887-19.97-16.953-26.204-28.607
			c-4.218-7.889-6.247-16.887-5.66-24.99c0.32-4.272,1.175-9.545,2.216-13.509c1.375-5.26,3.978-11.747,6.541-16.339
			c1.255-2.243,4.178-6.581,5.794-8.597c2.75-3.431,6.741-7.542,9.064-9.318c1.015-0.788,3.618-2.376,7.916-4.846
			c8.103-4.645,11.64-6.06,25.617-10.265c7.516-2.256,13.816-4.525,17.888-6.434c4.779-2.243,10.906-6.848,14.898-11.2
			c3.724-4.058,6.194-7.689,8.984-13.242c1.188-2.349,2.136-3.858,2.843-4.512c0.24-0.227,1.228-1.015,2.176-1.735
			c5.099-3.845,7.395-6.101,10.746-10.599c3.457-4.632,6.675-10.199,8.81-15.218c1.108-2.603,3.084-8.543,4.392-13.282
			c0.587-2.136,1.175-4.232,1.308-4.659l0.24-0.788l0.654,1.121c1.442,2.483,5.366,8.637,6.514,10.225
			c2.082,2.87,7.422,9.478,10.492,12.962c2.763,3.15,5.286,5.393,10.372,9.238c2.923,2.203,4.258,3.044,7.849,4.886
			c1.602,0.828,3.244,1.762,3.644,2.069c0.921,0.708,2.069,1.936,3.137,3.351c1.108,1.468,2.403,2.75,3.431,3.417
			c0.574,0.374,1.548,0.774,3.07,1.282c3.124,1.028,5.38,1.842,7.662,2.75c2.71,1.095,3.457,1.175,3.444,0.347
			c-0.027-1.148-3.671-4.846-6.901-6.968c-1.001-0.654-1.081-0.574,1.028-0.921c1.655-0.28,2.83-0.601,4.912-1.348
			c4.459-1.615,9.585-4.846,10.866-6.848c0.467-0.734,0.494-1.388,0.08-1.669c-0.681-0.481-1.735-0.174-7.516,2.176
			c-0.067,0.027,0.561-0.507,1.402-1.188c4.045-3.297,6.394-6.594,5.366-7.516c-0.32-0.294-0.988-0.294-1.535-0.013
			c-0.24,0.12-1.241,0.841-2.229,1.589c-2.096,1.575-3.07,2.256-3.07,2.123c0-0.04,0.174-0.307,0.374-0.574
			c1.255-1.589,2.697-4.138,2.697-4.726c0-0.667-0.587-0.801-1.508-0.347c-0.627,0.32-1.028,0.627-3.03,2.256
			c-0.774,0.627-1.495,1.215-1.602,1.295c-0.174,0.133-0.2,0.053-0.2-0.587c0-0.828-0.2-1.068-0.748-0.934
			c-0.187,0.053-1.709,1.108-3.391,2.363c-1.695,1.255-3.484,2.496-4.005,2.75c-1.375,0.681-2.656,0.894-5.366,0.908
			c-2.176,0.013-2.309,0-2.697-0.294c-0.214-0.16-0.467-0.294-0.534-0.294c-0.227,0-2.71-1.922-3.818-2.964
			c-1.976-1.829-5.66-6.314-9.291-11.32c-1.722-2.349-3.124-4.512-4.659-7.142c-3.084-5.286-5.607-9.064-10.546-15.752
			c-1.028-1.402-2.51-3.497-3.297-4.672c-0.774-1.175-1.802-2.723-2.283-3.431l-0.881-1.308l0.254-1.562
			c0.454-2.937,0.24-5.513-0.654-7.729c-0.641-1.589-1.295-2.496-2.883-3.991c-2.91-2.763-3.684-3.604-4.085-4.419l-0.374-0.788
			l-0.093-3.738c-0.067-2.937-0.147-4.085-0.374-5.326c-0.334-1.856-1.175-4.472-1.775-5.54c-1.175-2.056-3.271-3.351-6.915-4.272
			c-3.564-0.894-5.593-1.909-6.221-3.124c-0.254-0.467-0.507-3.177-0.427-4.525c0.08-1.428,0.801-2.883,2.122-4.298
			c1.148-1.228,2.243-1.976,4.258-2.897c2.029-0.921,3.19-1.682,4.365-2.857c1.589-1.589,2.149-3.11,2.269-6.141
			c0.08-2.136-0.067-3.497-0.627-5.954c-0.654-2.803-0.721-3.497-0.414-4.872c0.36-1.669,0.16-2.43-0.707-2.723
			c-0.254-0.08-1.201-0.12-2.229-0.107c-1.468,0.04-1.922,0-2.51-0.214c-1.428-0.494-2.483-1.882-3.417-4.485
			c-0.721-1.976-1.695-4.018-2.403-5.019l-0.614-0.854l0.267-0.494c0.134-0.28,0.654-1.175,1.135-1.976
			c1.041-1.722,1.709-3.351,2.536-6.247c1.028-3.524,1.201-4.752,1.201-8.236c0.013-3.351-0.187-5.006-0.854-7.395
			c-1.495-5.34-5.5-11.413-9.985-15.178c-3.244-2.71-7.729-5.046-12.174-6.327c-3.511-1.015-6.901-1.508-11.013-1.629
			c-6.768-0.187-11.187,0.654-18.395,3.511c-6.701,2.656-9.812,3.444-13.71,3.431c-2.536,0-3.578-0.187-5.687-0.974
			c-4.859-1.829-7.582-3.965-11.133-8.744c-9.344-12.562-14.991-17.073-24.295-19.423C174.163,44.629,169.437,44.148,165.713,44.322
			L165.713,44.322z M214.704,170.231c-0.04,0.04-0.147,0-0.24-0.093c-0.12-0.133-0.107-0.147,0.08-0.067
			C214.677,170.11,214.744,170.191,214.704,170.231z M186.671,313.226c-0.12,0.2-0.868,0.694-0.868,0.574
			c0-0.053,0.2-0.24,0.441-0.4C186.738,313.066,186.778,313.039,186.671,313.226z"/>
		<path style="fill-rule:evenodd;clip-rule:evenodd;fill:#21211E;" d="M60.551,39.771c-0.505,0.046-1.125,0.126-1.378,0.207
			c-0.264,0.069-1.355,0.126-2.584,0.126c-3.33,0-5.018,0.31-6.546,1.183c-0.942,0.54-3.284,2.331-3.571,2.733l-0.241,0.345
			l-0.884-0.08c-1.068-0.092-2.331,0.092-3.261,0.471c-1.849,0.746-3.767,2.285-4.571,3.663c-0.218,0.367-0.471,0.712-0.563,0.769
			c-0.092,0.046-0.723,0.345-1.401,0.666c-1.057,0.505-1.367,0.712-2.193,1.539c-0.528,0.517-1.183,1.263-1.447,1.654
			c-0.666,1.011-1.355,2.458-1.516,3.227c-0.115,0.597-0.218,0.746-1.102,1.665c-0.746,0.781-1.068,1.217-1.424,1.952
			c-0.528,1.114-0.873,2.572-0.976,4.157c-0.08,1.125-0.08,1.16-0.528,1.631c-0.632,0.701-1.527,2.113-1.826,2.882
			c-0.345,0.884-0.448,3.571-0.184,4.869c0.207,0.953,0.609,1.964,1.034,2.526l0.276,0.379l-0.172,1.367
			c-0.149,1.114-0.161,1.539-0.046,2.423c0.322,2.538,1.619,4.938,3.491,6.454l0.735,0.597l0.149,1.217
			c0.23,2.056,0.609,2.94,1.78,4.169c1.458,1.55,4.238,3.009,5.753,3.009c0.563,0,0.563,0,1.298,0.942
			c1.596,2.021,3.388,2.94,6.121,3.135c1.194,0.092,3.17-0.08,3.882-0.333c0.436-0.149,0.528-0.138,1.47,0.184
			c1.435,0.494,3.124,0.563,4.571,0.207c1.493-0.356,2.928-1.091,4.019-2.033c0.746-0.643,1.057-0.827,1.642-0.988
			c1.734-0.482,3.468-1.723,4.789-3.411c0.93-1.194,1.55-2.859,1.55-4.134c0-0.62,0.023-0.666,0.586-1.206
			c1.263-1.24,2.274-2.882,2.871-4.651c0.322-0.965,0.367-1.286,0.425-2.699c0.057-1.872-0.103-3.307-0.505-4.536
			c-0.241-0.712-0.264-0.896-0.149-1.148c0.276-0.597,0.563-1.55,0.678-2.216c0.31-1.918-0.62-4.352-2.102-5.489l-0.62-0.482
			l1.114-2.193c3.009-5.949,4.203-11.92,3.33-16.583c-0.046-0.299-0.069-0.574-0.046-0.62c0.126-0.207-0.942-1.952-1.769-2.905
			C67.453,40.896,64.398,39.472,60.551,39.771z"/>
		<path style="fill-rule:evenodd;clip-rule:evenodd;fill:#21211E;" d="M45.043,169.019c-0.62,0.23-1.137,1.252-1.091,2.147
			c0.046,0.689,0.333,1.504,0.666,1.872c0.161,0.184,0.207,0.345,0.149,0.574c-0.23,1.045-0.287,1.47-0.356,2.366
			c-0.069,0.976,0.034,1.918,0.31,2.664c0.172,0.448,1.068,1.723,1.355,1.929c0.23,0.161,0.218,0.356-0.218,1.975
			c-0.31,1.194-0.069,2.687,0.701,4.272c0.459,0.942,0.701,1.298,1.252,1.814l0.689,0.632l-0.517,1.057
			c-0.643,1.298-0.85,2.102-0.942,3.537c-0.08,1.194,0.195,3.055,0.655,4.421c0.322,0.953,1.057,2.446,1.435,2.928
			c0.861,1.079,2.17,2.193,3.434,2.928c0.195,0.115,0.184,0.184-0.161,1.148c-0.838,2.377-1.057,3.284-1.125,4.594
			c-0.138,2.882,0.471,5.018,2.239,7.809c1.424,2.251,4.662,4.41,7.901,5.283c2.745,0.735,6.73,0.666,11.759-0.218
			c2.607-0.459,3.882-0.586,5.972-0.574c1.826,0,2.113,0.034,3.147,0.322c2.102,0.586,3.399,1.24,4.352,2.182
			c0.494,0.505,0.517,0.586,0.574,1.906c0.046,1.125,0.218,1.55,0.758,1.918c0.459,0.31,1.011,0.333,2.067,0.092
			c2.549-0.609,6.006-3.48,8.532-7.12c0.781-1.125,1.079-1.677,1.631-3.02c0.953-2.377,1.206-4.513,0.942-8.234
			c-0.069-0.896-0.701-4.192-0.861-4.502c-0.057-0.115-0.253-0.62-0.425-1.125c-0.379-1.137-1.791-3.95-2.423-4.846
			c-0.149-0.195-0.264-0.39-0.264-0.425c0-0.195-2.159-3.055-3.17-4.203c-3.836-4.329-7.258-6.844-12.024-8.831
			c-0.907-0.379-3.238-1.034-4.731-1.321c-0.184-0.046-0.471-0.103-0.632-0.126c-0.161-0.034-0.701-0.092-1.206-0.126
			c-0.746-0.057-0.953-0.115-1.114-0.322c-0.115-0.126-0.207-0.276-0.207-0.322c0-0.115-0.953-1.596-1.16-1.814
			c-0.092-0.092-0.367-0.436-0.62-0.746c-0.815-1.011-1.837-1.941-2.768-2.492c-1.045-0.609-2.595-1.263-3.64-1.527
			c-0.861-0.218-2.618-0.367-3.606-0.322l-0.712,0.034l-0.379-0.494c-0.207-0.264-0.482-0.609-0.609-0.769
			c-0.436-0.551-1.378-1.413-2.021-1.849c-1.045-0.712-2.618-1.137-4.215-1.137h-0.712l-0.838-0.873
			c-1.125-1.194-1.941-1.539-3.732-1.55l-0.884-0.011l-0.597-0.563C46.732,169.145,45.721,168.766,45.043,169.019z"/>
		<path style="fill-rule:evenodd;clip-rule:evenodd;fill:#21211E;" d="M448.767,170.351c-0.873,0.253-1.952,0.701-2.561,1.068
			c-1.183,0.712-2.056,1.102-2.492,1.102c-0.23,0-0.723-0.103-1.102-0.23c-0.367-0.138-0.999-0.276-1.378-0.31
			c-0.597-0.057-0.804-0.023-1.321,0.218c-0.345,0.161-0.827,0.425-1.068,0.586c-0.482,0.333-0.827,0.379-1.102,0.161
			c-0.092-0.08-0.448-0.459-0.792-0.85c-0.712-0.827-1.148-1.068-1.952-1.068c-1.298,0-1.791,0.563-2.549,2.859
			c-0.781,2.366-1.022,2.768-1.7,2.768c-0.402,0-1.998-1.654-2.928-3.043c-0.632-0.93-0.919-1.148-1.539-1.137
			c-1.056,0.011-2.09,0.85-2.538,2.044c-0.31,0.838-0.459,1.906-0.459,3.296c0,1.539-0.287,2.17-0.976,2.17
			c-0.505,0-0.804-0.299-2.136-2.124c-1.895-2.572-2.607-3.238-3.87-3.56c-1.275-0.333-2.113-0.184-2.997,0.517
			c-0.746,0.586-0.999,1.206-0.896,2.193c0.092,0.758,0.184,0.999,0.942,2.572c0.976,2.021,1.252,3.445,0.815,4.272
			c-0.103,0.195-0.402,0.505-0.655,0.689c-1.654,1.148-1.814,1.298-2.458,2.239c-1.194,1.757-1.458,3.124-1.39,7.04
			c0.023,1.516,0.069,2.882,0.103,3.043c0.023,0.161,0.08,0.723,0.126,1.263c0.046,0.54,0.103,1.079,0.126,1.206
			c0.012,0.126,0.069,0.54,0.103,0.919s0.115,0.999,0.184,1.378c0.161,1.022,0.276,3.422,0.276,5.57c0,1.814-0.115,4.628-0.218,5.11
			c-0.023,0.138-0.08,0.551-0.126,0.919c-0.172,1.504-0.666,4.318-0.976,5.593c-0.402,1.596-0.942,3.043-1.734,4.616
			c-0.609,1.206-0.884,1.619-3.273,4.95c-0.827,1.148-1.677,2.412-1.906,2.814c-0.609,1.091-0.942,2.285-0.861,3.089
			c0.103,1.206,0.965,2.435,2.033,2.928c1.47,0.678,4.651-0.057,10.221-2.366c0.425-0.172,5.88-1.975,6.89-2.262
			c0.471-0.149,0.988-0.299,1.148-0.356s0.873-0.264,1.585-0.459c1.39-0.379,4.433-1.378,5.937-1.941
			c0.884-0.333,1.401-0.528,2.641-1.022c0.689-0.276,3.985-1.883,4.479-2.182c0.195-0.115,0.838-0.471,1.435-0.815
			c4.823-2.676,6.672-4.065,8.555-6.419c2.274-2.825,3.549-5.294,4.019-7.74c0.184-0.988,0.207-2.653,0.046-3.238
			c-0.069-0.23-0.057-0.367,0.023-0.425c0.115-0.069,1.056-0.241,2.228-0.39c0.253-0.034,0.586-0.092,0.746-0.115
			c0.161-0.023,0.517-0.08,0.804-0.115c0.861-0.103,2.102-0.425,2.526-0.643c0.563-0.299,0.735-0.448,1.079-0.953
			c0.574-0.861,0.333-2.01-0.609-2.859c-0.678-0.62-1.401-0.93-3.388-1.516c-1.929-0.551-2.584-0.827-3.078-1.298
			c-0.655-0.597-0.264-1.171,1.263-1.872c0.528-0.253,1.011-0.448,1.068-0.448c0.287,0,2.331-1.114,2.572-1.401
			c0.792-0.942-0.069-1.826-2.618-2.722c-2.17-0.758-3.411-1.504-3.411-2.044c0-0.31,0.367-0.62,1.378-1.137
			c0.999-0.517,1.723-1.183,1.723-1.585c0-0.345-0.367-0.666-1.585-1.378c-0.999-0.586-1.631-1.194-1.631-1.573
			c0-0.333,0.195-0.655,0.758-1.286c0.517-0.574,0.804-1.298,0.689-1.746c-0.115-0.471-0.54-0.861-1.516-1.401
			c-1.091-0.609-1.573-1.034-1.895-1.665c-0.436-0.861-0.287-1.309,1.056-3.204c1.298-1.814,2.262-4.18,2.136-5.237
			C450.696,170.466,449.869,170.029,448.767,170.351L448.767,170.351z"/>
		<path style="fill-rule:evenodd;clip-rule:evenodd;fill:#21211E;" d="M53.788,271.195c-1.367,0.379-3.388,1.55-3.996,2.308
			c-0.172,0.218-0.379,0.39-0.471,0.39c-0.08,0-0.425-0.149-0.746-0.333c-0.884-0.505-1.987-0.655-2.871-0.39
			c-0.735,0.218-1.125,0.436-1.849,0.999c-0.609,0.494-0.781,0.689-1.16,1.332c-0.126,0.218-0.287,0.39-0.345,0.379
			s-0.367-0.126-0.701-0.253c-0.85-0.31-1.55-0.253-2.469,0.195c-0.942,0.459-1.493,1.114-2.297,2.699
			c-0.367,0.746-0.62,1.114-0.712,1.079c-0.092-0.034-0.379-0.092-0.666-0.138c-1.435-0.218-2.572,0.804-3.445,3.078
			c-0.218,0.586-0.655,2.297-0.62,2.469c0,0.046-0.322,0.092-0.735,0.115c-1.711,0.069-2.733,0.942-3.261,2.779
			c-0.54,1.941-0.425,3.996,0.379,6.603c0.907,2.905,2.837,7.419,4.536,10.634c0.54,1.022,0.988,1.872,0.988,1.883
			c0,0.023-0.195,0.103-0.425,0.184c-0.551,0.172-1.034,0.505-1.206,0.827c-0.069,0.138-0.161,0.528-0.195,0.873l-0.069,0.62
			l-0.689,0.241c-0.953,0.333-1.252,0.781-1.171,1.757l0.057,0.701l-0.494,0.184c-2.17,0.838-1.424,4.1,1.424,6.27
			c0.207,0.161,0.517,0.39,0.678,0.528c1.229,0.942,4.054,2.366,5.834,2.928c1.148,0.367,1.194,0.402,1.321,0.792
			c0.345,1.091,1.045,1.803,1.941,2.01c0.218,0.057,0.781,0.08,1.252,0.08l0.838-0.023l0.769,0.597
			c0.413,0.322,1.079,0.873,1.47,1.217c2.079,1.803,4.961,3.526,7.269,4.341c1.918,0.678,2.733,0.528,3.101-0.54
			c0.23-0.689,0.299-0.758,0.689-0.85c0.436-0.092,0.988-0.551,1.217-1.011c0.23-0.425,0.241-1.263,0.046-1.814
			c-0.138-0.402-0.126-0.436,0.276-1.057c0.287-0.436,0.448-0.815,0.494-1.217c0.034-0.333,0.103-0.609,0.138-0.632
			c0.126-0.08,3.376-0.632,5.811-0.988c6.442-0.942,11.082-1.895,13.137-2.699c2.262-0.884,3.261-1.458,4.169-2.366
			c1.114-1.125,1.286-2.159,0.62-3.79c-0.057-0.126,0.103-0.322,0.563-0.666c0.678-0.505,1.585-1.39,1.849-1.803
			c0.253-0.367,0.459-1.194,0.494-1.883c0.023-0.746-0.287-1.757-0.746-2.354l-0.299-0.402l0.367-0.413
			c1.298-1.481,1.619-2.17,1.642-3.549c0.011-0.574-0.057-0.827-0.379-1.458c-0.218-0.436-0.528-0.919-0.701-1.079l-0.31-0.299
			l0.482-0.93c0.471-0.93,0.471-0.953,0.471-2.205c0-1.688-0.23-2.423-1.034-3.227c-0.31-0.322-0.666-0.632-0.781-0.701
			c-0.195-0.103-0.195-0.149,0.023-1.056c0.459-1.998,0.126-3.491-1.068-4.674c-0.574-0.574-1.688-1.321-1.964-1.309
			c-0.034,0-0.31,0-0.62,0h-0.563v-0.953c0-1.401-0.471-2.595-1.401-3.526c-0.551-0.551-0.896-0.735-1.837-0.976
			c-0.746-0.195-2.469-0.207-2.871-0.023c-0.149,0.069-0.207-0.103-0.333-1.022c-0.172-1.321-0.505-2.102-1.194-2.779
			c-0.815-0.815-1.194-1.068-1.975-1.286c-0.907-0.253-0.689-0.23-1.7-0.23h-0.838l-0.482-1.252
			c-0.39-1.011-0.574-1.332-0.965-1.677c-1.746-1.585-5.076-1.39-6.638,0.367c-0.241,0.276-0.471,0.494-0.517,0.494
			c-0.046,0-0.195-0.138-0.322-0.322c-0.563-0.723-1.309-1.435-1.711-1.642C55.706,271.057,54.569,270.988,53.788,271.195z"/>
		<path style="fill-rule:evenodd;clip-rule:evenodd;fill:#21211E;" d="M438.08,360.574c-1.102,0.115-2.4,0.264-2.871,0.333
			c-2.079,0.31-5.914,1.171-8.383,1.872c-0.884,0.253-2.768,0.678-3.904,0.896c-0.976,0.172-1.562,0.207-3.101,0.172
			c-1.045-0.023-2.044-0.08-2.239-0.126c-0.184-0.034-1.355-0.08-2.584-0.092c-2.01-0.012-2.331,0.011-3.135,0.253
			c-0.494,0.138-1.091,0.356-1.321,0.471c-0.678,0.345-1.504,1.137-1.608,1.539l-0.092,0.356l-0.942-0.034
			c-0.735-0.023-1.114,0.023-1.711,0.23c-0.678,0.218-0.884,0.367-1.642,1.125c-1.481,1.516-2.056,2.756-2.159,4.628
			c-0.103,2.102,0.379,3.445,1.746,4.904c0.459,0.482,0.919,0.999,1.022,1.16c0.241,0.345,0.253,0.827,0.034,1.24
			c-0.23,0.448-1.263,1.424-2.216,2.09c-0.873,0.609-1.378,1.275-1.481,1.975c-0.138,0.838,0.597,1.711,1.768,2.09
			c0.62,0.207,2.48,0.39,3.973,0.402c1.562,0.011,1.998,0.356,1.78,1.401c-0.126,0.597-0.735,1.378-2.538,3.33
			c-0.609,0.655-1.24,1.378-1.401,1.596c-2.09,2.928-2.538,3.905-2.538,5.581c0,0.965,0.023,1.068,0.322,1.458
			c0.413,0.54,0.769,0.781,1.424,0.942c0.689,0.172,1.998,0.011,2.733-0.345c0.701-0.333,3.939-3.33,4.938-4.548
			c1.723-2.125,3.17-3.204,4.306-3.204c0.379,0,0.609,0.069,0.781,0.23c0.781,0.723,0.919,1.837,0.643,5.053
			c-0.172,2.01-0.184,2.572-0.069,3.87c0.482,5.317,2.216,8.303,4.835,8.349c1.837,0.023,2.779-1.47,3.411-5.363
			c0.735-4.582,0.953-5.478,1.562-6.213c0.643-0.781,1.665-0.988,2.4-0.494c1.034,0.689,1.631,2.354,1.941,5.363
			c0.31,3.078,0.85,5.685,1.435,6.971c1.068,2.32,3.778,2.343,4.927,0.034c0.276-0.528,0.505-1.16,0.574-1.562
			c0.207-1.137,0.264-1.883,0.356-4.639c0.138-3.79,0.517-4.984,1.791-5.627c0.632-0.333,1.114-0.287,1.757,0.126
			c0.655,0.436,1.148,1.091,2.193,2.917c1.286,2.251,1.941,3.17,2.905,4.111c1.034,0.999,1.746,1.378,2.928,1.573
			c1.263,0.195,1.975-0.011,2.595-0.769c0.678-0.815,0.873-2.193,0.528-3.709c-0.218-0.953-0.322-1.217-1.194-3.147
			c-0.425-0.919-0.528-1.665-0.322-2.159c0.356-0.85,0.241-0.838,6.511-0.85c3.365,0,6.144-0.057,7.005-0.138
			c0.792-0.08,1.711-0.172,2.056-0.195c2.274-0.207,4.49-1.367,4.49-2.343c0-0.425-0.62-1.125-1.527-1.723l-0.746-0.482l0.287-0.517
			c0.356-0.643,0.367-1.286,0.034-1.826c-0.264-0.436-1.413-1.516-2.331-2.216c-1.355-1.011-2.836-2.09-3.813-2.756
			c-0.563-0.379-1.102-0.804-1.183-0.942c-0.08-0.126-0.172-0.632-0.207-1.125c-0.161-2.17-1.171-3.87-2.722-4.559
			c-0.333-0.149-0.988-0.333-1.458-0.402c-0.471-0.08-0.988-0.218-1.137-0.31c-0.253-0.161-0.264-0.207-0.218-1.332
			c0.126-2.814-0.425-3.594-3.33-4.685c-0.413-0.149-0.632-0.528-0.551-0.965c0.023-0.149,0.08-0.827,0.126-1.516
			c0.126-2.102-0.31-3.526-1.504-4.846c-1.424-1.562-3.526-2.526-6.419-2.928C443.994,360.31,440.503,360.333,438.08,360.574z"/>
		<path style="fill-rule:evenodd;clip-rule:evenodd;fill:#21211E;" d="M73.958,401.392c-0.379,0.299-1.114,1.562-1.573,2.699
			c-0.815,2.044-1.321,4.984-1.206,7.108c0.092,1.803,0.494,3.17,1.516,5.179c0.632,1.252,1.125,1.975,2.641,3.87
			c1.39,1.734,2.125,2.917,2.481,3.985c0.218,0.643,0.253,1.022,0.264,2.791l0.011,2.056l-0.299-0.069
			c-1.332-0.299-3.652-0.046-5.65,0.62c-1.447,0.482-1.814,0.701-5.225,2.974c-1.7,1.125-3.284,2.147-3.537,2.285
			c-0.632,0.322-1.16,0.436-2.779,0.643c-2.882,0.379-5.294,1.447-6.626,2.963c-0.299,0.333-0.735,0.999-0.965,1.47
			c-0.425,0.838-0.425,0.873-0.425,2.239c0,1.194,0.034,1.458,0.264,1.952c0.149,0.31,0.322,0.609,0.402,0.655
			c0.276,0.172,0.792,0.08,2.182-0.356c0.769-0.253,1.723-0.517,2.125-0.597c0.999-0.184,2.71-0.069,4.1,0.287
			c1.906,0.494,2.917,0.586,4.192,0.367c2.159-0.379,4.077-1.16,6.086-2.492c2.125-1.401,3.629-1.941,5.374-1.941
			c1.286,0,2.4,0.23,3.457,0.701l0.815,0.367l-0.23,0.356c-0.781,1.183-1.125,2.136-1.608,4.41c-0.678,3.193-1.286,4.662-2.986,7.2
			c-2.125,3.17-3.801,6.293-4.295,7.981c-0.942,3.273-0.494,6.798,1.068,8.337c0.988,0.988,1.769,1.079,2.779,0.31
			c1.057-0.804,1.86-1.964,3.101-4.513c1.321-2.699,2.228-4.134,3.48-5.489c1.194-1.298,1.78-1.814,3.916-3.434
			c3.801-2.894,5.225-4.513,6.247-7.063c0.586-1.435,0.723-2.274,0.678-3.882l-0.034-1.435l0.827,1.24
			c2.354,3.526,4.26,5.639,6.305,7.005c2.021,1.344,5.983,3.124,8.475,3.801c2.228,0.62,3.629,0.804,5.926,0.804
			c1.711,0,2.147-0.046,2.917-0.253c2.389-0.666,3.365-2.033,2.4-3.388c-0.471-0.666-1.883-1.665-3.537-2.515
			c-1.895-0.965-2.469-1.378-3.744-2.699c-1.918-1.975-2.607-3.112-4.123-6.81c-0.459-1.102-1.068-2.469-1.355-3.032
			c-0.655-1.252-1.791-2.664-2.791-3.514c-0.919-0.758-2.492-1.608-3.652-1.952l-0.838-0.264l1.527-0.758
			c2.538-1.252,4.169-2.515,5.455-4.215c0.345-0.471,1.263-1.906,2.01-3.181c2.791-4.697,3.882-5.753,8.085-7.832
			c2.722-1.355,3.158-1.711,3.158-2.641c0-0.884-0.85-1.573-2.699-2.205c-0.436-0.149-2.021-0.505-3.503-0.792
			c-2.515-0.482-2.791-0.517-4.134-0.471c-2.021,0.069-3.434,0.54-5.294,1.757c-1.814,1.194-3.055,2.549-4.961,5.386
			c-2.618,3.916-3.089,4.444-5.133,5.857c-0.54,0.367-1.286,0.942-1.665,1.275l-0.689,0.597l-0.31-1.608
			c-1.079-5.512-3.238-8.452-9.233-12.563c-2.94-2.01-3.985-3.158-5.558-6.018C75.601,401.369,74.889,400.657,73.958,401.392z"/>
		<g>
			<g>
				<path style="fill-rule:evenodd;clip-rule:evenodd;fill:#21211E;" d="M100.455,148.907c-5.963,0-6.19,9.257-0.223,9.257
					C106.194,158.165,106.421,148.907,100.455,148.907z"/>
				<path style="fill-rule:evenodd;clip-rule:evenodd;fill:#21211E;" d="M89.746,137.115c-4.638,0-4.814,7.2-0.174,7.2
					C94.21,144.315,94.386,137.115,89.746,137.115z"/>
			</g>
			<g>
				<path style="fill-rule:evenodd;clip-rule:evenodd;fill:#21211E;" d="M307.758,439.118c-1.038-1.062-2.757-1.885-4.267-1.857
					c-1.62,0.03-3.322,0.538-4.464,1.756c-1.086,1.158-1.857,2.641-1.857,4.267v0.712c0,1.626,0.609,3.289,1.756,4.464
					c1.038,1.062,2.757,1.885,4.267,1.857c1.62-0.03,3.322-0.538,4.464-1.756c1.086-1.158,1.857-2.641,1.857-4.267v-0.712
					C309.514,441.956,308.905,440.293,307.758,439.118z"/>
				<path style="fill-rule:evenodd;clip-rule:evenodd;fill:#21211E;" d="M337.643,435.955c-5.963,0-6.19,9.258-0.223,9.258
					C343.383,445.213,343.61,435.955,337.643,435.955z"/>
				<path style="fill-rule:evenodd;clip-rule:evenodd;fill:#21211E;" d="M323.373,450.517c-4.638,0-4.814,7.2-0.174,7.2
					C327.837,457.717,328.013,450.517,323.373,450.517z"/>
			</g>
			<g>
				<path style="fill-rule:evenodd;clip-rule:evenodd;fill:#21211E;" d="M448.046,289.226c-5.963,0-6.19,9.257-0.223,9.257
					C453.786,298.483,454.013,289.226,448.046,289.226z"/>
				<path style="fill-rule:evenodd;clip-rule:evenodd;fill:#21211E;" d="M430.927,280.995c-4.638,0-4.814,7.2-0.174,7.2
					C435.391,288.195,435.567,280.995,430.927,280.995z"/>
				<path style="fill-rule:evenodd;clip-rule:evenodd;fill:#21211E;" d="M460.83,272.962c-3.975,0-4.126,6.172-0.149,6.172
					C464.656,279.134,464.808,272.962,460.83,272.962z"/>
			</g>
			<g>
				<path style="fill-rule:evenodd;clip-rule:evenodd;fill:#21211E;" d="M319.161,83.972c-7.951,0-8.253,12.343-0.298,12.343
					C326.814,96.315,327.116,83.972,319.161,83.972z"/>
				<path style="fill-rule:evenodd;clip-rule:evenodd;fill:#21211E;" d="M332.296,68.388c-0.778-0.797-2.068-1.414-3.2-1.393
					c-2.459,0.046-4.74,1.931-4.74,4.517v0.712c0,1.219,0.457,2.467,1.317,3.348c0.778,0.797,2.068,1.414,3.2,1.393
					c2.459-0.046,4.741-1.931,4.741-4.517v-0.712C333.613,70.516,333.156,69.269,332.296,68.388z"/>
				<path style="fill-rule:evenodd;clip-rule:evenodd;fill:#21211E;" d="M314.113,52.354c-4.638,0-4.814,7.2-0.174,7.2
					C318.577,59.554,318.754,52.354,314.113,52.354z"/>
				<path style="fill-rule:evenodd;clip-rule:evenodd;fill:#21211E;" d="M324.773,39.137c-3.313,0-3.439,5.143-0.124,5.143
					C327.961,44.28,328.087,39.137,324.773,39.137z"/>
			</g>
			<g>
				<path style="fill-rule:evenodd;clip-rule:evenodd;fill:#21211E;" d="M47.071,363.897c-7.95,0-8.253,12.343-0.298,12.343
					C54.724,376.24,55.026,363.897,47.071,363.897z"/>
				<path style="fill-rule:evenodd;clip-rule:evenodd;fill:#21211E;" d="M40.624,383.247c-5.963,0-6.19,9.257-0.223,9.257
					C46.363,392.504,46.59,383.247,40.624,383.247z"/>
				<path style="fill-rule:evenodd;clip-rule:evenodd;fill:#21211E;" d="M25.616,394.564c-3.313,0-3.439,5.143-0.124,5.143
					C28.805,399.707,28.931,394.564,25.616,394.564z"/>
			</g>
		</g>
	</g>
</g>
</svg>
