<?xml version="1.0" encoding="utf-8"?>
<!-- Generator: Adobe Illustrator 27.5.0, SVG Export Plug-In . SVG Version: 6.00 Build 0)  -->
<svg version="1.1" xmlns="http://www.w3.org/2000/svg" xmlns:xlink="http://www.w3.org/1999/xlink" x="0px" y="0px"
	 viewBox="0 0 750 500" style="enable-background:new 0 0 750 500;" xml:space="preserve">
<g id="BACKGROUND">
</g>
<g id="OBJECTS">
	<g>
		<polygon points="54.639,120.443 69.942,116.84 59.275,128.389 70.047,139.841 54.712,136.378 50.18,151.433 45.511,136.421 
			30.208,140.023 40.874,128.474 30.103,117.022 45.438,120.485 49.97,105.43 		"/>
		<polygon points="608.163,89.475 611.685,78.406 614.96,89.55 626.307,87.066 618.293,95.475 626.117,104.059 614.829,101.323 
			611.307,112.392 608.032,101.248 596.685,103.731 604.699,95.323 596.874,86.739 		"/>
		<polygon points="518.615,72.798 530.116,62.079 526.583,77.398 541.616,81.998 526.583,86.599 530.116,101.918 518.615,91.199 
			507.114,101.918 510.647,86.599 495.614,81.998 510.647,77.398 507.114,62.079 		"/>
		<polygon points="134.902,275.437 124.121,263.994 139.459,267.445 143.979,252.387 148.66,267.396 163.96,263.781 
			153.302,275.339 164.083,286.782 148.745,283.331 144.225,298.389 139.544,283.38 124.244,286.995 		"/>
		<polygon points="81.427,100.671 76.543,97.217 82.524,97.346 83.073,91.389 85.951,96.633 91.385,94.131 88.282,99.245 
			93.167,102.699 87.186,102.57 86.637,108.527 83.758,103.283 78.325,105.786 		"/>
		<polygon points="102.104,139.594 106.48,135.515 105.136,141.344 110.856,143.095 105.136,144.845 106.48,150.674 
			102.104,146.596 97.728,150.674 99.072,144.845 93.352,143.095 99.072,141.344 97.728,135.515 		"/>
		<polygon points="180.535,253.668 184.911,249.589 183.567,255.419 189.287,257.169 183.567,258.919 184.911,264.749 
			180.535,260.67 176.159,264.749 177.503,258.919 171.783,257.169 177.503,255.419 176.159,249.589 		"/>
		<polygon points="327.125,364.833 331.501,360.754 330.157,366.584 335.877,368.334 330.157,370.084 331.501,375.914 
			327.125,371.835 322.749,375.914 324.093,370.084 318.373,368.334 324.093,366.584 322.749,360.754 		"/>
		<polygon points="379.7,380.247 382.407,377.724 381.575,381.329 385.113,382.412 381.575,383.495 382.407,387.1 379.7,384.578 
			376.993,387.1 377.825,383.495 374.287,382.412 377.825,381.329 376.993,377.724 		"/>
		<polygon points="545.707,114.015 548.413,111.492 547.582,115.097 551.12,116.18 547.582,117.262 548.413,120.868 
			545.707,118.345 543,120.868 543.831,117.262 540.293,116.18 543.831,115.097 543,111.492 		"/>
		<polygon points="589.873,57.246 592.58,54.724 591.748,58.329 595.286,59.412 591.748,60.494 592.58,64.1 589.873,61.577 
			587.166,64.1 587.998,60.494 584.46,59.412 587.998,58.329 587.166,54.724 		"/>
		<polygon points="654.37,99.244 657.076,96.722 656.245,100.327 659.783,101.41 656.245,102.492 657.076,106.098 654.37,103.575 
			651.663,106.098 652.495,102.492 648.956,101.41 652.495,100.327 651.663,96.722 		"/>
		<polygon points="610.872,145.742 613.578,143.219 612.747,146.825 616.285,147.907 612.747,148.99 613.578,152.595 
			610.872,150.073 608.165,152.595 608.997,148.99 605.459,147.907 608.997,146.825 608.165,143.219 		"/>
		<polygon points="354.744,397.529 363.716,397.622 356.228,402.566 360.633,410.383 352.608,406.37 348.04,414.093 
			347.503,405.136 338.531,405.043 346.019,400.099 341.614,392.282 349.639,396.295 354.207,388.572 		"/>
		<polygon points="72.074,31.599 78.638,25.481 76.621,34.225 85.202,36.851 76.621,39.476 78.638,48.22 72.074,42.102 65.51,48.22 
			67.526,39.476 58.945,36.851 67.526,34.225 65.51,25.481 		"/>
		<polygon points="645.448,142.844 652.012,136.726 649.996,145.47 658.576,148.096 649.996,150.721 652.012,159.465 
			645.448,153.347 638.884,159.465 640.9,150.721 632.32,148.096 640.9,145.47 638.884,136.726 		"/>
	</g>
	<g>
		<path d="M386.255,107.106c0.236-0.163,0.362-0.268,0.362-0.268S386.49,106.939,386.255,107.106z"/>
		<path d="M718.259,300.106c-1.355,1.889-2.748,3.53-4.164,4.953c0.007-0.195,0.031-0.388,0.033-0.583
			c-0.006,0.198-0.032,0.394-0.042,0.592c-16.559,16.616-36.342,3.232-36.342,3.232c32.889,9.223,38.95-20.432,38.95-20.432
			c-30.892,25.938-47.226-4.263-47.226-4.263c22.658,23.732,32.635-13.164,32.635-13.164c-10.429,21.765-19.908,20.533-30.131,8.89
			c0.62,0.562,1.256,1.107,1.933,1.606c1.921,1.414,4.232,2.564,6.706,2.486c2.48-0.053,4.695-1.404,6.411-3.046
			c1.732-1.67,3.122-3.643,4.36-5.682c1.228-2.05,2.299-4.188,3.286-6.36c-1.021,2.157-2.124,4.276-3.382,6.302
			c-1.267,2.014-2.683,3.956-4.419,5.577c-1.721,1.597-3.898,2.862-6.264,2.873c-2.36,0.039-4.571-1.095-6.43-2.51
			c-1.88-1.43-3.516-3.168-5.041-4.983c-1.521-1.822-2.926-3.744-4.274-5.704c-2.689-3.927-5.157-8.007-7.58-12.113
			c-4.823-8.227-9.528-16.539-14.527-24.688c-5.004-8.141-10.302-16.139-16.342-23.598c-3.021-3.725-6.232-7.309-9.701-10.646
			c-3.473-3.327-7.197-6.431-11.257-9.056c-4.025-2.638-8.314-4.946-12.841-6.672c-4.52-1.736-9.291-2.91-14.152-3.255
			c-4.856-0.367-9.779,0.109-14.483,1.373c-4.713,1.248-9.185,3.291-13.307,5.845c-4.116,2.572-7.898,5.646-11.317,9.065
			c-3.416,3.439-6.512,7.127-9.161,11.269l-0.682,1.066c-0.216-0.191-0.429-0.38-0.628-0.553
			c-5.581-6.008-12.295-11.399-19.579-16.062c-29.921-19.154-69.458,4.832-125.31,8.187c-16.074-0.863-21.137-8.982-21.137-8.982
			c0.916,0.428,1.807,0.815,2.686,1.182c1.122,0.595,2.363,1.212,3.73,1.801c0.879,0.359,1.78,0.771,2.755,1.099
			c0.484,0.171,0.972,0.36,1.478,0.524c0.511,0.149,1.03,0.3,1.556,0.453c2.117,0.563,4.414,1.034,6.85,1.106
			c2.428,0.078,4.992-0.231,7.45-1.078c2.464-0.839,4.731-2.278,6.697-3.986c1.988-1.701,3.599-3.745,5.054-5.793
			c1.45-2.06,2.694-4.183,3.822-6.261c1.107-2.064,2.178-4.059,3.193-5.951c0.501-0.938,1.072-1.794,1.58-2.655
			c0.564-0.817,1.088-1.629,1.639-2.368c1.096-1.486,2.24-2.73,3.319-3.767c1.107-1.003,2.181-1.756,3.139-2.246
			c0.962-0.481,1.788-0.709,2.362-0.802c0.576-0.092,0.892-0.05,0.892-0.05s-0.307-0.085-0.903-0.073
			c-0.591,0.013-1.479,0.12-2.525,0.529c-1.045,0.405-2.241,1.071-3.502,1.998c-1.245,0.943-2.517,2.172-3.768,3.622
			c-0.633,0.719-1.225,1.52-1.85,2.34c-0.568,0.854-1.207,1.712-1.772,2.645c-1.171,1.859-2.231,3.863-3.406,5.875
			c-0.798,1.367-1.634,2.759-2.526,4.13c1.741-2.793,3.306-5.995,4.741-9.552c7.778-19.279,24.513-17.869,24.513-17.869
			c-26.247-6.899-22.414,10.649-40.503,18.051c-18.089,7.402-30.663-11.647-30.663-11.647c30.026,19.65,43.501-10.088,43.501-10.088
			c-8.559,14.49-23.766,10.57-31.544,6.15c-5.332-3.029-14.283-10.123-22.144-9.621c0.92-0.2,1.899-0.288,2.918-0.257
			c2.009,0.055,4.135,0.536,6.249,1.244c2.118,0.71,4.232,1.641,6.326,2.646c2.095,1.006,4.171,2.09,6.245,3.129
			c2.075,1.035,4.147,2.039,6.271,2.797c0.521,0.206,1.077,0.338,1.604,0.507c0.549,0.124,1.134,0.277,1.656,0.336l0.785,0.086
			c0.324,0.028,0.55,0.009,0.827,0.015c0.528-0.001,1.05-0.003,1.564-0.004c2.06-0.124,3.976-0.515,5.672-1.084
			c1.692-0.591,3.137-1.378,4.341-2.171c1.21-0.792,2.136-1.651,2.871-2.37c1.451-1.471,2.039-2.502,2.039-2.502
			s-0.645,0.998-2.16,2.376c-0.766,0.673-1.723,1.47-2.951,2.181c-1.221,0.712-2.668,1.402-4.332,1.883
			c-1.669,0.46-3.528,0.734-5.502,0.747c-0.493-0.025-0.992-0.051-1.497-0.077c-0.239-0.017-0.536-0.021-0.731-0.049l-0.779-0.128
			c-0.524-0.089-0.969-0.248-1.466-0.384c-0.491-0.189-0.994-0.334-1.485-0.56c-1.98-0.829-3.954-1.917-5.951-3.052
			c-1.997-1.139-4.019-2.338-6.096-3.477c-2.077-1.138-4.208-2.222-6.427-3.102c-2.216-0.875-4.534-1.554-6.921-1.752
			c-2.375-0.21-4.835,0.147-6.92,1.123c-2.098,0.961-3.724,2.423-5.005,3.86c-0.339,0.408-0.663,0.808-0.968,1.207
			c2.8-7.603,6.705-12.873,19.819-6.4c28.509,14.07,40.711,0.339,40.711,0.339c-15.909,7.377-33.552-10.015-33.552-10.015
			c27.846,19.675,42.792-8.481,42.792-8.481s-12.847,20.936-41.393,3.667c-19.134-11.575-29.358-14.971-39.837-7.708l0.085-0.08
			l0.497-0.416c2.613-2.274,5.799-4.027,9.322-4.507c3.525-0.507,7.241,0.324,10.757,1.672c3.538,1.34,6.962,3.114,10.338,4.856
			c3.374,1.754,6.713,3.492,10.024,5.017c1.652,0.755,3.313,1.486,4.936,2.12c0.798,0.339,1.647,0.611,2.464,0.876
			c0.824,0.262,1.626,0.553,2.436,0.779c3.273,0.817,6.463,1.186,9.406,1.028c2.939-0.224,5.566-0.934,7.748-1.881
			c2.188-0.951,3.886-2.169,5.203-3.233c1.323-1.071,2.197-2.09,2.786-2.776c0.58-0.699,0.835-1.112,0.835-1.112
			s-0.27,0.403-0.874,1.078c-0.613,0.662-1.521,1.642-2.871,2.654c-1.345,1.005-3.065,2.143-5.245,2.994
			c-2.175,0.846-4.759,1.436-7.616,1.576c-2.865,0.065-5.95-0.389-9.104-1.277c-0.781-0.245-1.556-0.554-2.349-0.832
			c-0.797-0.285-1.584-0.561-2.383-0.929c-1.607-0.685-3.187-1.44-4.809-2.241c-3.228-1.607-6.484-3.43-9.809-5.289
			c-3.331-1.848-6.732-3.751-10.387-5.265c-3.632-1.489-7.689-2.54-11.766-2.058c-4.072,0.454-7.762,2.413-10.646,4.812
			l-0.553,0.443l-0.531,0.475l-0.997,0.898c-0.661,0.599-1.322,1.167-1.95,1.824c-0.634,0.636-1.261,1.264-1.88,1.886
			c-0.584,0.643-1.16,1.277-1.729,1.904c-1.026,1.154-1.986,2.305-2.896,3.447c9.282-16.5,16.919-24.575,42.546-11.828
			c31.435,15.636,45.654-12.512,45.654-12.512c-25.14,26.672-53.104-3.396-53.104-3.396c18.684,13.62,32.891,4.76,35.288,3.062
			c-2.07,1.432-13.036,7.6-29.537-8.725c-6.937-6.863-19.393-7.169-32.213-4.891c0.908-0.333,1.898-0.67,2.968-0.989
			c1.469-0.422,3.079-0.823,4.808-1.099c0.866-0.124,1.753-0.293,2.671-0.339c0.916-0.08,1.852-0.164,2.806-0.14
			c0.477-0.003,0.959-0.005,1.444-0.008c0.484,0.022,0.969,0.072,1.459,0.106c0.49,0.04,0.982,0.08,1.477,0.12
			c0.49,0.083,0.982,0.165,1.476,0.249c0.492,0.09,0.995,0.149,1.485,0.266l1.467,0.393c0.479,0.136,1.007,0.251,1.45,0.404
			l1.47,0.53c1.979,0.676,3.761,1.558,5.547,2.537c1.726,1.043,3.372,2.168,4.866,3.409c1.511,1.22,2.923,2.479,4.356,3.584
			c1.449,1.076,2.872,2.063,4.337,2.681c1.431,0.678,2.834,1.08,4.085,1.336c0.619,0.165,1.212,0.238,1.762,0.299
			c0.547,0.068,1.049,0.131,1.503,0.188c1.825,0.067,2.867,0.105,2.867,0.105s-1.037-0.089-2.853-0.244
			c-0.448-0.078-0.944-0.165-1.484-0.259c-0.541-0.087-1.123-0.188-1.726-0.38c-1.22-0.314-2.571-0.776-3.943-1.48
			c-1.402-0.652-2.75-1.663-4.13-2.767c-1.365-1.133-2.728-2.441-4.211-3.731c-1.467-1.312-3.117-2.535-4.862-3.676
			c-1.768-1.063-3.706-2.098-5.65-2.836l-1.457-0.564c-0.537-0.199-1.027-0.313-1.542-0.473l-1.525-0.445
			c-0.51-0.134-1.033-0.209-1.546-0.316c-0.515-0.099-1.029-0.197-1.54-0.295c-0.517-0.055-1.031-0.109-1.542-0.163
			c-0.512-0.048-1.02-0.111-1.526-0.146c-0.507-0.01-1.011-0.019-1.51-0.028c-1.001-0.047-1.981,0.017-2.941,0.077
			c-0.964,0.027-1.892,0.18-2.802,0.288c-1.769,0.241-3.417,0.608-4.93,1.002c19.111-9.325,32.447-0.33,32.447-0.33
			c-7.129-8.303-21.727-8.719-27.112-8.569c0.466-0.089,0.96-0.168,1.469-0.278c0.476-0.092,0.972-0.187,1.486-0.286
			c0.255-0.052,0.515-0.106,0.778-0.16c0.268-0.026,0.54-0.051,0.816-0.078c1.104-0.084,2.257-0.259,3.454-0.308
			c1.2,0.018,2.439-0.046,3.69,0.034c0.625,0.055,1.254,0.111,1.887,0.168l0.949,0.086l0.938,0.182l1.879,0.329
			c0.623,0.119,1.224,0.325,1.831,0.481c1.222,0.296,2.38,0.732,3.512,1.133c0.576,0.177,1.091,0.474,1.632,0.682
			c0.527,0.238,1.069,0.424,1.551,0.695c0.98,0.51,1.929,0.964,2.757,1.472c0.851,0.472,1.589,0.971,2.265,1.392
			c0.648,0.454,1.234,0.835,1.688,1.182c0.458,0.345,0.826,0.61,1.062,0.808c0.245,0.19,0.367,0.302,0.367,0.302
			s-0.093-0.136-0.289-0.377c-0.192-0.245-0.478-0.603-0.875-1.027c-0.389-0.433-0.89-0.931-1.482-1.487
			c-0.611-0.532-1.283-1.164-2.101-1.744c-0.785-0.629-1.698-1.22-2.68-1.827c-0.478-0.327-1.02-0.57-1.55-0.868
			c-0.54-0.277-1.075-0.6-1.666-0.824c-1.169-0.474-2.357-1.04-3.651-1.365c-0.641-0.177-1.275-0.405-1.934-0.543
			c-0.662-0.128-1.326-0.257-1.991-0.386l-0.999-0.176l-1.01-0.075c-0.672-0.047-1.342-0.094-2.006-0.141
			c-0.663-0.083-1.324,0.009-1.975,0.031c-0.65,0.036-1.292,0.072-1.923,0.108c-1.258,0.103-2.451,0.403-3.585,0.594
			c-0.283,0.053-0.562,0.106-0.836,0.157c-0.268,0.083-0.531,0.164-0.79,0.244c-0.515,0.167-1.012,0.328-1.49,0.483
			c-0.102,0.034-0.199,0.065-0.3,0.098c19.766-8.276,37.129,8.937,37.129,8.937c-31.634-33.226-48.788-7.444-67.622-1.633
			c-3.101,0.957-5.866,1.469-8.332,1.67c2.661-0.413,5.431-1.123,8.192-2.136c2.633-0.964,5.285-2.129,7.883-3.472
			c2.604-1.332,5.183-2.786,7.743-4.24c2.55-1.47,5.088-2.936,7.639-4.23c1.277-0.642,2.552-1.251,3.834-1.778
			c1.297-0.546,2.507-0.948,3.876-1.315c2.568-0.542,5.182-0.984,7.644-0.877c2.462,0.059,4.804,0.342,6.905,0.887
			c2.112,0.5,4.002,1.174,5.636,1.869c1.647,0.674,3.002,1.443,4.12,2.069c1.092,0.669,1.954,1.2,2.51,1.609
			c0.565,0.395,0.85,0.63,0.85,0.63s-0.259-0.263-0.783-0.715c-0.52-0.458-1.308-1.102-2.367-1.85
			c-1.077-0.716-2.391-1.6-4.013-2.413c-0.792-0.445-1.689-0.808-2.616-1.238c-0.955-0.356-1.95-0.775-3.036-1.064
			c-2.142-0.684-4.566-1.122-7.153-1.27c-0.649-0.021-1.307-0.042-1.972-0.064c-0.665,0.039-1.339,0.077-2.02,0.117
			c-0.341,0.024-0.685,0.037-1.028,0.07c-0.34,0.057-0.682,0.114-1.026,0.172c-0.697,0.124-1.361,0.217-2.103,0.371
			c-1.305,0.312-2.777,0.757-4.111,1.287c-1.36,0.518-2.695,1.121-4.009,1.778c-2.63,1.308-5.205,2.77-7.768,4.22
			c-2.551,1.471-5.09,2.932-7.638,4.26c-2.55,1.319-5.082,2.558-7.617,3.539c-2.531,0.981-5.039,1.763-7.469,2.262
			c-2.43,0.492-4.774,0.756-6.944,0.743c-0.796-0.004-1.559-0.036-2.306-0.081c-0.163-0.05-0.323-0.103-0.481-0.156
			c0.036-0.002,0.07,0.001,0.106-0.002c0.801-0.043,1.672-0.025,2.592-0.153c0.922-0.098,1.906-0.19,2.926-0.401
			c1.031-0.157,2.089-0.434,3.191-0.728c2.187-0.632,4.53-1.443,6.859-2.6c2.337-1.134,4.706-2.511,7.01-4.126
			c4.632-3.207,9.021-7.265,13.242-11.39c2.103-2.073,4.166-4.17,6.266-6.132c2.102-1.947,4.231-3.824,6.542-5.114
			c0.283-0.175,0.575-0.32,0.872-0.446c0.296-0.123,0.581-0.297,0.884-0.376l0.853-0.281c0.33-0.064,0.658-0.128,0.984-0.191
			c0.47-0.112,0.918-0.178,1.36-0.228c5.336,3.145,9.055,6.218,9.055,6.218s-2.224-2.909-6.051-6.31
			c2.227,0.098,4.322,0.622,6.203,1.242c2.067,0.688,3.872,1.587,5.436,2.439c1.571,0.848,2.853,1.741,3.911,2.471
			c2.084,1.509,3.158,2.526,3.158,2.526s-1.009-1.079-3.01-2.72c-1.017-0.796-2.254-1.774-3.791-2.728
			c-1.528-0.962-3.311-1.99-5.413-2.782c-2.089-0.792-4.458-1.516-7.074-1.647c-0.272-0.008-0.553-0.013-0.835-0.017
			c-0.333-0.277-0.678-0.554-1.03-0.832c15.039-0.972,25.267,12.966,25.267,12.966c-8.578-14.808-20.357-20.316-33.225-18.061
			c-8.986-4.456-20.771-5.971-33.079,4.419c-25.921,21.884-37.169,13.967-73.61,5.584c-10.308-2.371-18.401-1.116-24.709,1.903
			c0.779-0.466,1.569-0.913,2.38-1.318c1.012-0.503,2.054-0.947,3.098-1.369c1.074-0.34,2.113-0.798,3.217-1.024l1.635-0.411
			c0.546-0.134,1.108-0.176,1.661-0.269c0.556-0.075,1.109-0.177,1.666-0.231l1.68-0.06c1.121-0.096,2.237,0.026,3.354,0.117
			c1.124,0.028,2.216,0.313,3.316,0.525c1.091,0.187,2.213,0.511,3.336,0.805l3.358,0.898c4.485,1.203,8.99,2.393,13.547,3.393
			c4.561,0.978,9.162,1.825,13.818,2.32c2.326,0.256,4.667,0.4,7.01,0.462c2.343,0.067,4.693-0.014,7.033-0.208
			c2.339-0.221,4.663-0.599,6.954-1.131c2.283-0.573,4.507-1.362,6.642-2.341c2.116-1.026,4.111-2.278,5.944-3.732
			c1.819-1.478,3.388-3.222,4.794-5.066c-1.522,1.757-3.202,3.356-5.049,4.736c-1.874,1.343-3.885,2.473-5.995,3.373
			c-2.128,0.863-4.335,1.496-6.57,1.991c-2.25,0.44-4.526,0.73-6.815,0.866c-2.292,0.098-4.587,0.144-6.883,0.013
			c-2.294-0.118-4.587-0.317-6.868-0.626c-4.569-0.564-9.099-1.463-13.597-2.501c-4.5-1.042-8.972-2.225-13.445-3.455l-3.363-0.918
			c-1.119-0.304-2.231-0.614-3.43-0.821c-1.178-0.222-2.346-0.513-3.552-0.543c-1.197-0.093-2.393-0.212-3.594-0.107l-1.798,0.076
			c-0.596,0.06-1.186,0.17-1.78,0.253c-0.59,0.102-1.191,0.153-1.771,0.298l-1.739,0.445l-0.869,0.224
			c-0.285,0.089-0.563,0.199-0.845,0.298l-1.684,0.609c-1.097,0.461-2.188,0.948-3.243,1.492c-1.903,0.986-3.7,2.15-5.421,3.411
			c4.459-12.445,5.22-19.627-9.312,0.86c-0.1-0.343-0.179-0.692-0.302-1.027c-0.142-0.339-0.272-0.683-0.428-1.015l-0.546-0.958
			l-0.652-0.883l-0.742-0.799l-0.812-0.713c-0.567-0.437-1.148-0.849-1.759-1.203c-0.607-0.357-1.225-0.695-1.862-0.978
			c-0.63-0.301-1.274-0.559-1.917-0.82c-0.647-0.244-1.299-0.498-1.946-0.715c-0.65-0.229-1.309-0.427-1.886-0.707
			c-0.582-0.277-1.13-0.649-1.427-1.162c-0.323-0.505-0.255-1.156-0.018-1.746c0.533-1.189,1.553-2.16,2.57-3.046
			c1.038-0.883,2.158-1.679,3.328-2.393c-1.214,0.638-2.387,1.361-3.494,2.186c-0.553,0.413-1.083,0.862-1.573,1.359
			c-0.486,0.499-0.943,1.045-1.265,1.7c-0.305,0.641-0.452,1.506-0.055,2.21c0.366,0.701,1,1.152,1.625,1.491
			c0.643,0.347,1.295,0.574,1.924,0.832c0.641,0.251,1.255,0.525,1.878,0.795c0.615,0.285,1.231,0.567,1.824,0.886
			c0.6,0.306,1.18,0.644,1.74,1.001c0.565,0.354,1.088,0.755,1.593,1.172l0.711,0.669l0.632,0.73l0.542,0.79l0.443,0.845
			c0.124,0.293,0.224,0.596,0.339,0.891c0.067,0.202,0.115,0.411,0.163,0.62c-2.124-1.944-5.301-3.749-9.853-5.297
			c-24.565-8.352-4.725-13.743-4.725-13.743s-10.564-4.875-15.743-0.431c-4.193,3.597-7.565,12.851-0.65,18.084
			c0,0-17.348-2.779-8.936-22.066c0,0-20.188,17.003,3.315,28.796c0,0-17.258-4.424-16.624-15.933c0,0-6.822,11.597-1.184,21.376
			c-0.236-0.287-0.47-0.575-0.707-0.857c-0.42-0.457-0.706-0.995-1.05-1.489c-0.313-0.512-0.7-0.979-0.944-1.51
			c-0.259-0.523-0.506-1.042-0.771-1.542c-0.278-0.496-0.41-1.035-0.617-1.533c-0.198-0.503-0.375-0.998-0.485-1.494
			c-0.126-0.492-0.273-0.966-0.373-1.43c-0.146-0.934-0.322-1.797-0.358-2.576c-0.087-0.778-0.062-1.459-0.077-2.026
			c0.032-0.562,0.032-1.013,0.074-1.314c0.024-0.306,0.056-0.467,0.056-0.467s-0.264,0.602-0.523,1.734
			c-0.093,0.567-0.264,1.262-0.292,2.072c-0.092,0.811-0.06,1.728-0.013,2.736c0.138,0.99,0.206,2.101,0.569,3.206
			c0.172,0.552,0.271,1.154,0.518,1.711c0.225,0.567,0.478,1.139,0.727,1.725c0.239,0.592,0.62,1.117,0.933,1.692
			c0.339,0.558,0.633,1.163,1.079,1.66c0.832,1.037,1.631,2.142,2.641,3.036l1.165,1.102L38,54.333l115.792,42.541
			c-0.099,0.005-0.198,0.012-0.298,0.016l-2.058,0.106l-2.059-0.055c-0.69,0.007-1.371-0.074-2.056-0.136
			c-0.683-0.074-1.378-0.087-2.055-0.21l-2.043-0.331l-2.025-0.451c-0.685-0.125-1.335-0.366-2.008-0.544
			c-0.676-0.173-1.32-0.433-1.982-0.654c-0.669-0.208-1.307-0.488-1.958-0.748c-0.659-0.247-1.272-0.583-1.923-0.858
			c-0.625-0.318-1.265-0.625-1.873-0.982c-0.628-0.332-1.23-0.705-1.82-1.109c0.492,0.515,1.015,1.015,1.566,1.474
			c0.545,0.473,1.133,0.885,1.711,1.321c0.599,0.397,1.188,0.826,1.821,1.175c0.626,0.361,1.246,0.745,1.9,1.057
			c0.648,0.326,1.298,0.658,1.976,0.921c0.676,0.264,1.336,0.592,2.033,0.804c0.69,0.234,1.382,0.475,2.085,0.677l2.131,0.526
			c0.71,0.188,1.44,0.264,2.161,0.401c0.723,0.136,1.451,0.232,2.183,0.27l2.197,0.165l2.202-0.004l1.103-0.005
			c0.367-0.009,0.731-0.065,1.096-0.096l2.191-0.222c0.145-0.01,0.287-0.042,0.431-0.061c-0.063,0.065-0.125,0.132-0.187,0.197
			c-0.496,0.455-0.969,0.938-1.519,1.334l-0.799,0.624l-0.853,0.551c-0.549,0.401-1.152,0.714-1.758,1.025
			c-0.304,0.153-0.595,0.334-0.91,0.465l-0.954,0.377l-0.955,0.381c-0.325,0.108-0.662,0.184-0.993,0.279
			c-0.668,0.164-1.312,0.445-2.005,0.523l-2.06,0.354c-0.694,0.083-1.398,0.083-2.099,0.151l-1.057,0.08
			c-0.353,0.012-0.707-0.017-1.062-0.024l-2.135-0.069c-0.717-0.008-1.422-0.148-2.137-0.216l-2.152-0.25
			c-1.413-0.291-2.843-0.561-4.292-0.816c1.346,0.561,2.711,1.107,4.093,1.633c0.704,0.213,1.42,0.391,2.134,0.587
			c0.718,0.175,1.427,0.422,2.161,0.538l2.214,0.327c0.371,0.049,0.74,0.12,1.114,0.15l1.126,0.045
			c0.753,0.026,1.508,0.061,2.264,0.039l2.272-0.201c0.382-0.02,0.759-0.078,1.132-0.166l1.127-0.231
			c0.373-0.087,0.752-0.157,1.122-0.26l1.095-0.372l1.096-0.376c0.363-0.132,0.706-0.317,1.06-0.474
			c0.706-0.321,1.411-0.648,2.066-1.073l0.995-0.612l0.935-0.703c0.084-0.059,0.159-0.131,0.241-0.193
			c-20.928,31.293-53.922,85.469-39.573,96.536c19.153,14.772,29.571,2.483,31.522-13.171c11.973-0.71,32.772-3.889,45.531-16.83
			c10.637,26.616,8.592,61.015,8.592,61.015s-7.607,28.57,7.182,55.026c-10.523,21.862-52.278,38.322-63.546,51.696
			c-13.15,15.608-14.09,26.814-27.294,37.625c-13.205,10.811-12.563,20.4-12.563,20.4c-12.121,12.398-20.983,30.09-20.983,30.09
			s17.65,5.131,24.537,1.321s13.629-20.412,13.629-20.412s0.309-0.136,0.847-0.445c22.007,16.179,31.479,3.563,31.479,3.563
			c-6.198,0.918-10.502-4.319-12.587-7.682c6.094,8.916,19.139,3.804,20.191,3.372c-0.524,0.212-4.094,1.508-9.941-0.031
			c-6.344-1.669-7.679-10.35-7.679-10.35c9.682,10.35,13.355,6.01,13.355,6.01c-6.344-1.669-9.682-9.348-9.682-9.348
			c17.695,11.352,23.371,3.339,23.371,3.339c-15.692,3.005-22.035-11.352-22.035-11.352c13.689,15.024,23.371,7.679,23.371,7.679
			c-12.687-1.335-10.684-10.35-10.684-10.35c17.695,12.353,23.705-3.005,23.705-3.005s-2.671,3.673-12.019,4.34
			c-3.603,0.257-7.599-2.164-10.887-4.874c3.863,2.166,8.6,2.12,14.56-2.137c8.744-6.245,12.813-2.561,13.303-2.058
			c-0.554-0.581-5.825-5.733-14.973-1.948c-9.682,4.006-16.693-6.677-16.693-6.677c13.689,6.009,19.03-5.676,19.03-5.676
			c-9.014,7.679-17.027,1.002-17.027,1.002c8.013,3.339,12.353-3.005,12.353-3.005c-7.611-0.617-7.489-4.908-6.275-8.113
			c2.014-1.922,3.274-3.04,3.274-3.04s13.319-0.684,38.232-13.227c3.021-1.521,5.997-2.771,8.919-3.823
			c-0.438,11.174-1.8,25.518-5.372,40.005c-7.645,31.005-23.346,56.771-23.346,56.771l1.157,7.983l-16.258,23.64
			c14.524,11.563,27.184-0.308,27.184-0.308l6.591-23.079c9.575,11.538,30.427,5.914,30.427,5.914c-10,1-20-9.667-20-9.667
			c30.333,15.333,36.333-1,36.333-1c-15.333,7-26.333-11-26.333-11c8.333,11,19.667,8,19.667,8c-12.333-3.333-15.667-14-15.667-14
			c19,12,25.667,4,25.667,4C250,418,241,410,241,410c28,12.667,33-7,33-7c-4.669,6.052-11.487,6.36-16.971,5.257
			c9.926,0.967,13.305-8.924,13.305-8.924c-19.667,13.333-32.333-7-32.333-7s12.667,13.667,25,3c12.333-10.667,23.333-2,23.333-2
			s-9.333-12-22-6.333c-12.667,5.667-20.667-3-20.667-3c15,7,22.667-6,22.667-6c-16.333,9-23-2.667-23-2.667
			c6.667,4.667,12.333,1.333,12.333,1.333c-15.257,0-12.437-11.617-11.542-14.401c10.188-22.103,23.549-32.52,30.714-36.796
			c6.631,1.371,13.837,2.444,21.713,3.141c68.337,6.053,113.084-6.451,138.905-27.031c-3.871,37.553-14.82,80.795-17.683,92.826
			c-4.071,17.105-61.045,69.992-61.045,69.992c10.272,12.678,26.747,8.226,26.747,8.226l8.371-13.955l5.477-0.977
			C431.373,486.236,454.5,470.5,454.5,470.5c-32,1-41-17-41-17c38,23.5,50.5,11,50.5,11c-18.5,1-29-10-29-10c25,12.5,36.5-1,36.5-1
			c-7.073,3.998-16.793,2.744-26.094-0.368c13.137,3.17,21.718-2.572,29.594-11.132c11.5-12.5,21-7,21-7s-9-11-28,2.5s-35-7-35-7
			c19.5,15.5,32.5-5.5,32.5-5.5c-20,11.5-32-2-32-2c12.5,4,16.5-1.5,16.5-1.5c-16.518,0.768-13.558-7.607-11.3-11.532
			c7.609-7.507,13.223-12.751,13.223-12.751c2.316-24.2,8.837-47.749,38.146-78.781c1.643,1.402,3.4,2.671,5.295,3.768
			c34.761,20.134,73.565,73.908,82.18,95.391c8.615,21.483,0.031,48.95,0.031,48.95c17.841,4.535,26.092-6.086,26.092-6.086
			l0.867-15.8l1.463-11.027C623.087,436.93,638,427,638,427c-16,2.667-22-6.667-22-6.667c30,12.667,42-12.667,42-12.667
			c-4.532,5.665-12.168,8.119-20.299,8.881c4.254-1.928,8.094-5.439,12.299-10.881C661.333,391,670.667,393,670.667,393
			s-8.501-5.252-23.834,10.081c-15.333,15.333-41.29,2.96-41.29,2.96c24,9.333,37.791-13.708,37.791-13.708
			c-12.221,8.555-25.351,9.281-33.723,8.554c9.003-0.275,13.723-6.554,13.723-6.554c-28.387,11.713-43.212-19.419-43.212-19.419
			s-0.029,0.111-0.071,0.275c-0.843-4.741-1.264-8.533-1.412-10.652c-0.625-8.941-1.793-8.517-19.783-26.209
			c-17.99-17.692-8.794-37.271-3.962-72.591c3.32-24.265-11.578-43.603-21.23-53.331c20.345-13.226,32.633-11.355,41.325-1.249
			c0.553,0.767,1.088,1.55,1.585,2.358c3.097,5.077,5.291,10.72,7.195,16.429c1.895,5.724,3.475,11.567,5.01,17.427l4.565,17.618
			c1.565,5.869,3.221,11.723,5.115,17.51c1.897,5.784,4.011,11.513,6.565,17.06c2.544,5.547,5.503,10.928,9.047,15.925
			c3.543,4.989,7.698,9.582,12.495,13.415c4.792,3.833,10.212,6.881,15.975,8.967c1.438,0.526,2.898,0.994,4.372,1.405
			c1.497,0.412,2.952,0.738,4.43,1.111c1.502,0.289,3.002,0.62,4.511,0.859c1.513,0.204,3.017,0.483,4.542,0.59l2.281,0.214
			l2.29,0.095c1.525,0.101,3.056-0.002,4.582-0.002c3.05-0.174,6.098-0.475,9.092-1.099c2.989-0.63,5.934-1.472,8.777-2.592
			c2.831-1.145,5.56-2.537,8.129-4.182c1.49-0.949,2.916-1.997,4.283-3.117C712.348,322.94,718.612,310.149,718.259,300.106z
			 M144.082,399.011c0.044,0.108,0.096,0.204,0.142,0.31C144.131,399.123,144.082,399.011,144.082,399.011z M248.067,405.037
			C248.026,405.015,248,405,248,405C248.023,405.013,248.044,405.024,248.067,405.037z M605.925,413.497
			C603.309,412.84,602.892,412.598,605.925,413.497L605.925,413.497z M540.689,197.476c3.319-3.339,6.986-6.332,10.959-8.831
			c3.98-2.48,8.28-4.457,12.798-5.666c4.51-1.225,9.221-1.694,13.886-1.355c4.669,0.319,9.273,1.435,13.661,3.107
			c3.788,1.433,7.401,3.302,10.862,5.436c-37.651-21.268-61.723,6.631-69.224,17.466c-0.108,0.063-0.22,0.124-0.328,0.188
			l-0.482,0.285c-0.003-0.033-0.001-0.055-0.005-0.091c-0.023-0.152-0.043-0.354-0.209-0.647c-0.007-0.015-0.023-0.028-0.032-0.043
			C534.924,203.821,537.695,200.499,540.689,197.476z M531.457,210.257c0.043,0.032,0.073,0.067,0.124,0.097
			c0.08,0.039,0.15,0.055,0.223,0.077c-0.022,0.035-0.039,0.065-0.06,0.099C531.649,210.44,531.551,210.346,531.457,210.257z
			 M530.919,209.246c0.008,0.072,0.019,0.149,0.037,0.239c0.031,0.113,0.088,0.32,0.249,0.532c-0.198-0.185-0.38-0.351-0.57-0.524
			L530.919,209.246z M282.679,72.604c0.23-0.067,0.452-0.131,0.684-0.199l0.749-0.221l0.728-0.296
			c0.488-0.198,0.979-0.398,1.473-0.599c0.981-0.418,2.011-0.77,2.973-1.282c1.899-1.073,3.913-1.998,5.719-3.341
			c0.904-0.647,1.868-1.251,2.715-1.933c0.829-0.695,1.655-1.388,2.475-2.075c0.417-0.352,0.832-0.703,1.246-1.052
			c0.391-0.341,0.78-0.681,1.166-1.019c0.755-0.7,1.574-1.296,2.37-1.897c1.594-1.197,3.229-2.222,4.832-3.101
			c0.797-0.448,1.621-0.784,2.389-1.177c0.797-0.318,1.561-0.659,2.317-0.917c0.761-0.242,1.484-0.507,2.195-0.676
			c0.353-0.096,0.697-0.189,1.032-0.28c0.34-0.07,0.669-0.137,0.989-0.203c1.185-0.246,2.242-0.35,3.141-0.414
			c-4.242,1.868-8.544,4.481-12.839,7.817C299.766,66.934,290.324,70.67,282.679,72.604z M395.892,189.594
			c0.135-0.132,0.265-0.274,0.397-0.41C396.158,189.322,396.026,189.459,395.892,189.594z M395.815,189.668
			c-0.348,0.347-0.698,0.69-1.066,1.017c-1.797,1.586-3.826,2.898-6.035,3.67c-0.077,0.029-0.156,0.046-0.233,0.074
			C391.206,193.39,393.633,191.784,395.815,189.668z M336.687,55.233c-0.243,0.036-0.487,0.072-0.732,0.109
			c-0.433,0.106-0.715,0.204-1.083,0.309c-0.357,0.087-0.669,0.262-1.008,0.392c-0.338,0.133-0.666,0.285-0.978,0.463
			c-2.565,1.336-4.806,3.211-7.012,5.128c-2.199,1.933-4.335,3.971-6.488,5.973c-4.269,4.033-8.64,7.928-13.155,10.94
			c-2.254,1.504-4.511,2.822-6.733,3.889c-2.213,1.092-4.419,1.841-6.473,2.429c-0.518,0.132-1.025,0.262-1.52,0.388
			c-0.297,0.075-0.592,0.129-0.885,0.181c8.72-3.535,16.891-10.843,30.076-22.627c5.25-4.692,10.256-7.168,14.884-8.17
			C335.954,54.834,336.323,55.033,336.687,55.233z M314.736,50.08c3.359-0.818,7.033-0.493,10.67,0.458
			c-0.907,0.311-1.815,0.645-2.729,1.027c-0.186-0.017-0.378-0.033-0.584-0.045c-0.958-0.037-2.131-0.052-3.468,0.084
			c-1.343,0.096-2.842,0.377-4.45,0.8c-0.804,0.21-1.619,0.502-2.476,0.773c-0.826,0.344-1.701,0.665-2.558,1.082
			c-1.717,0.827-3.494,1.792-5.187,3.001c-0.85,0.599-1.726,1.197-2.534,1.897c-0.81,0.665-1.631,1.337-2.457,2.015
			c-0.827,0.678-1.66,1.362-2.497,2.048c-0.845,0.665-1.741,1.199-2.609,1.808c-1.678,1.278-3.625,2.199-5.435,3.25
			c-0.011,0.007-0.023,0.011-0.034,0.017C299.109,61.771,305.817,52.252,314.736,50.08z M424,442.5
			c1.97,1.375,3.857,2.596,5.682,3.703C417.044,439.411,410.575,433.128,424,442.5z M695.262,333.813
			c-2.563,1.588-5.277,2.922-8.085,4.01c-2.82,1.063-5.735,1.85-8.688,2.427c-2.958,0.572-5.965,0.822-8.969,0.95
			c-1.505-0.022-3.01,0.054-4.513-0.062l-2.254-0.112l-2.246-0.23c-1.501-0.117-2.983-0.406-4.472-0.619
			c-1.484-0.248-2.945-0.584-4.418-0.878c-1.459-0.381-2.962-0.734-4.385-1.138c-1.443-0.416-2.87-0.886-4.275-1.413
			c-5.628-2.091-10.894-5.112-15.544-8.894c-4.654-3.784-8.681-8.307-12.116-13.23c-3.435-4.931-6.305-10.249-8.77-15.745
			c-4.933-11.008-8.377-22.643-11.465-34.344l-4.515-17.622c-0.752-2.901-1.516-5.802-2.325-8.694
			c12.177,36.324,21.054,89.076,65.064,99.145c17.49,4.001,31.57,1.733,42.096-3.627
			C695.34,333.761,695.302,333.788,695.262,333.813z"/>
		<path d="M194.445,372.914c0.032,0.034,0.051,0.055,0.051,0.055S194.479,372.949,194.445,372.914z"/>
		<path d="M165.709,405.051c0.044-0.018,0.075-0.031,0.075-0.031S165.753,405.033,165.709,405.051z"/>
	</g>
</g>
</svg>
