<?xml version="1.0" encoding="utf-8"?>
<!-- Generator: Adobe Illustrator 27.5.0, SVG Export Plug-In . SVG Version: 6.00 Build 0)  -->
<svg version="1.1" xmlns="http://www.w3.org/2000/svg" xmlns:xlink="http://www.w3.org/1999/xlink" x="0px" y="0px"
	 viewBox="0 0 500 500" style="enable-background:new 0 0 500 500;" xml:space="preserve">
<g id="BACKGROUND">
	<rect style="fill:#FFFFFF;" width="500" height="500"/>
</g>
<g id="OBJECTS">
	<g>
		<path style="fill:#231F20;" d="M450.075,219.732c0,0-7.752-1.95-13.891-1.313c-6.14,0.637-20.683,3.201-27.148,5.453
			c-3.173,1.105-16.783,5.076-29.818,8.833c-2.039-1.258-3.965-4.216-6.475-5.155c-2.728-1.021-5.83,0.698-9.91,2.884
			c-4.08,2.186-8.523,6.465-8.523,6.465l1.368-4.014c-16.316-0.145-35.194-10.194-35.194-10.194
			c4.503-7.51,3.034-15.293,2.131-18.864c-0.902-3.572-0.351-7.116-0.351-7.116c0.249-2.269-0.29-4.12-1.215-5.748
			c2.613,1.046,5.432,1.626,8.244,1.892c-1.956-0.701-3.308-2.502-4.232-4.364c-0.923-1.861-1.543-3.879-2.662-5.629
			c-0.907-1.418-2.151-2.594-3.582-3.474c0.699,0.02,1.399,0.001,2.097-0.084c3.217-0.392,6.368-2.109,7.986-4.917
			c-2.961,0.811-6.096,0.196-9.165,0.107c-1.847-0.054-3.825,0.173-5.495,0.903c-0.069-0.878-0.273-1.751-0.944-2.278
			c-0.519-0.408-1.176-0.493-1.848-0.439c-0.004-0.434,0.009-0.692,0.009-0.692c-0.674-2.8,2.017-10.626,3.832-10.471
			c1.815,0.155,3.586,2.612,5.82,6.29c1.18,1.943,3.232,2.516,4.905,2.623c1.175,0.076,2.016-1.029,1.723-2.169
			c-0.656-2.552,0.252-5.598,1.131-7.095c1.127-1.918,0.034-1.817,0.034-1.817c-0.846-0.296-1.589-0.672-2.249-1.104
			c0.592-0.262,1.176-0.551,1.827-0.581c0.808-0.036,1.576,0.345,2.219,0.803s1.214,1.006,1.908,1.397
			c1.325,0.746,3.057,0.829,4.445,0.215c0.312-0.138,0.637-0.348,0.688-0.664c0.047-0.286-0.158-0.57-0.426-0.723
			c-0.269-0.153-0.59-0.2-0.903-0.234c-1.611-0.173-3.389-0.106-4.661-1.042c-0.869-0.639-1.323-1.632-2.017-2.432
			c-1.117-1.289-2.913-2.058-4.695-2.009c-0.754,0.021-1.507,0.2-2.159,0.533c-1.517-3.764-0.993-7.741-0.993-7.741
			c0.442,0.476,0.951,0.936,1.493,1.377c-0.112,0.545-0.224,1.091-0.336,1.636c0.605,0.342,1.21,0.684,1.815,1.027
			c0.186-0.395,0.373-0.79,0.559-1.184c0.714,0.467,1.433,0.893,2.121,1.276c-0.118,0.432-0.236,0.865-0.353,1.297
			c0.584,0.351,1.205,0.64,1.85,0.861c0.28-0.304,0.513-0.647,0.721-1.004c1.092,0.529,1.832,0.835,1.832,0.835l-0.419-3.522
			c2.414,0.53,3.945,2.861,4.649,4.086c0.704,1.225,1.813,0.276,1.813,0.276c0.973-6.647-6.072-12.232-6.072-12.232
			c0.776-1.261,0.981-2.788,0.883-4.346c18.445-0.337,31.568-2.822,31.768-6.536c0.189-3.527-11.326-7.2-28.161-9.537l-3.8-9.863
			l-1.691-0.274l-3.824-22.248l-4.88-4.697l-2.124-3.069c0,0-1.237-5.113-2.682-5.625c-1.445-0.512-7.689-3.537-10.195-5.645
			c-2.505-2.107-3.397-6.244-3.397-6.244c-1.266,2.885,1,11.289,1,11.289l3.193,4.18l-1.439,5.669c0,0,2.206,5.131,1.45,6.692
			c-0.756,1.561-9.936,19.324-9.936,19.324l-2.939,1.641l-1.134,6.51c-17.563,0.453-29.909,2.897-30.102,6.499
			c-0.162,3.018,8.253,6.142,21.231,8.445c-1.161,1.724-2.501,3.271-4.341,4.183c-3.777,1.873-8.926,0.686-11.909,3.664
			c-1.776,1.773-2.321,4.683-4.483,5.959c-2.227,1.314-5.07,0.28-7.631,0.632c-2.914,0.401-5.223,2.546-7.552,4.342
			c-2.329,1.796-5.3,3.391-8.096,2.478c1.548,1.815,4.246,2.237,6.588,1.785c2.342-0.452,4.473-1.62,6.678-2.53
			c4.217-1.74,8.813-2.552,13.371-2.363c-4.796,2.546-9.593,5.092-14.389,7.639c-2.493,1.324-5.068,2.673-7.877,2.95
			c-2.95,0.292-5.93-0.627-8.872-0.257c-4.964,0.625-8.675,4.664-12.245,8.17c-3.57,3.506-8.234,6.931-13.125,5.878
			c2.247,2.33,5.96,2.68,9.064,1.761c3.104-0.919,5.771-2.885,8.438-4.72c2.667-1.835,5.513-3.616,8.718-4.073
			c2.308-0.329,4.663,0.053,6.984-0.16c3.25-0.298,6.269-1.74,9.208-3.159c5.494-2.653,10.988-5.305,16.481-7.957
			c-0.067,2.762-2.622,4.817-5.179,5.862c-2.557,1.045-5.399,1.535-7.618,3.182c-3.003,2.229-4.403,6.252-7.641,8.124
			c-3.7,2.139-8.534,0.77-12.497,2.368c-3.986,1.607-6.202,5.78-9.321,8.737c-5.028,4.767-12.926,6.23-19.328,3.582
			c6.235,4.991,15.974,4.934,22.15-0.13c3.588-2.942,6.212-7.413,10.667-8.709c3.771-1.097,8.075,0.392,11.624-1.289
			c3.585-1.699,5.222-6.096,8.719-7.97c1.661-0.89,3.585-1.12,5.39-1.661c1.805-0.541,3.655-1.555,4.336-3.313
			c-0.448,6.232-4.841,12.004-10.727,14.096c-4.931,1.753-10.673,1.117-15.124,3.87c-3.106,1.921-5.082,5.212-6.668,8.501
			c-1.587,3.289-2.938,6.758-5.272,9.567c-2.333,2.809-5.951,4.896-9.546,4.252c4.422,2.441,10.512,1.299,13.707-2.613
			c2.341-2.866,3.099-6.746,5.302-9.718c3.185-4.297,8.739-5.957,13.891-7.391c5.153-1.434,10.703-3.178,13.778-7.554
			c-1.472,4.534-4.778,8.442-9.006,10.644c-3.453,1.799-7.667,2.65-10.005,5.764c-1.617,2.154-1.979,4.961-2.746,7.544
			c-1.469,4.945-4.835,9.525-9.618,11.457c5.975,0.52,12.07-3.295,14.213-8.898c0.897-2.344,1.17-4.951,2.507-7.075
			c1.247-1.982,3.298-3.329,5.43-4.297c0.84-0.381,1.703-0.709,2.569-1.029c-0.44,3.362-1.426,9.522-3.08,12.79
			c-2.349,4.642-4.028,8.003-6.039,11.843c-2.011,3.84-1.563,5.787-1.563,5.787l-2.627,2.213l1.393,3.258
			c0,0-11.343,1.726-18.399,16.135c-7.057,14.41-5.816,17.18-16.789,25.052c-9.805,7.035-11.498,8.303-11.402,14.606
			c-5.258,1.389-9.971,2.636-13.708,3.626c-1.331-0.243-2.662-0.486-3.993-0.729c1.332-1.918,2.96-3.63,4.807-5.059
			c-4.429,0.898-8.647,2.778-12.307,5.428c-0.014-0.073-0.027-0.147-0.041-0.221c-0.141-0.754-0.292-1.531-0.724-2.165
			c-0.432-0.633-1.225-1.088-1.964-0.886c-0.552,0.151-0.953,0.618-1.291,1.08c-0.577,0.789-1.065,1.639-1.478,2.524
			c-0.119-0.511-0.279-1.009-0.572-1.44c-0.432-0.633-1.225-1.088-1.964-0.886c-0.552,0.151-0.953,0.618-1.291,1.08
			c-0.712,0.972-1.296,2.034-1.756,3.147c-40.969-2.99-82.552,2.626-121.238,16.445c6.809,0.087,13.618,0.175,20.427,0.263
			c-7.482,2.955-14.964,5.909-22.446,8.864c8.443-0.218,16.886-0.436,25.33-0.654c-7.567,3.692-15.134,7.384-22.701,11.075
			c7.421-0.646,14.841-1.292,22.262-1.938c-6.04,4.904-12.831,8.88-20.064,11.747c7.026-0.294,14.052-0.588,21.077-0.883
			c-5.203,4.014-11.2,6.995-17.542,8.721c6.481-0.158,12.962-0.316,19.443-0.474c-5.178,4.383-11.133,7.845-17.504,10.178
			c41.645-1.915,82.491-18.234,113.991-45.542c0.62-0.538,1.24-1.084,1.844-1.646c0.92,0.877,2.216,1.526,3.206,0.825
			c0.664-0.47,0.856-1.359,0.958-2.166c0.049-0.39,0.072-0.78,0.104-1.17c0.208,0.28,0.419,0.557,0.646,0.822
			c0.909,1.06,2.458,2.043,3.598,1.236c0.664-0.47,0.856-1.359,0.958-2.166c0.062-0.488,0.096-0.978,0.131-1.467
			c4.452-0.635,8.842-1.707,13.083-3.205c-1.62-0.475-3.24-0.951-4.859-1.426l11.489-2.11c0,0,2.641-0.716,6.945-1.917
			c3.451,4.079,9.512,7.015,14.64,9.838c-0.582,0.735-1.156,1.333-1.719,1.624c-1.831,0.945-2.524,4.823-4.04,5.399
			c-1.516,0.576-2.223,3.397-2.223,3.397s-8.228,3.964-14.645,7.561c0,0-7.586-0.048-11.91,2.024
			c-4.323,2.072-6.277,3.329-6.277,3.329l1.08,8.767l3.905-1.892c0,0-2.311,3.798-2.263,9.275c0.049,5.477,3.46,23.406,18.755,27.91
			c0,0,2.435,0.299,2.655-2.597c0,0,3.131,0.206,4.535-2.786c1.403-2.991-9.349-12.463-9.522-21.725c0,0-0.399-4.807,4.421-9.376
			c4.82-4.569,12.98-9.022,12.98-9.022l2.158-0.023l0.946-1.809c0,0,2.192,0.222,3.655-0.254c1.463-0.475,2.983-1.987,2.983-1.987
			l3.496,0.282l1.522-2.213c0,0,5.068-1.096,9.354-2.556c0.967-0.329,1.903-0.686,2.78-1.04c0.314,0.599,0.623,1.234,0.925,1.929
			c5.343,12.303,7.52,21.454,20.712,24.974c-0.54,1.906,0.165,5.036-0.867,5.93c-1.232,1.068-0.524,4.232-0.524,4.232
			s-6.265,6.669-10.897,12.398c0,0-7.637,2.28-10.934,5.773s-4.626,5.407-4.626,5.407l5.49,8.828l2.968-3.176
			c0,0-0.411,4.678,2.39,10.386c2.801,5.708,15.234,23.391,32.846,23.399c0,0,2.593-0.436,1.359-3.529c0,0,3.246-0.747,3.151-4.303
			c-0.095-3.557-15.644-10.15-20.472-19.773c0,0-2.816-4.9-0.275-11.154c2.541-6.254,8.492-13.413,8.492-13.413l2.154-0.687
			l0.041-2.18c0,0,2.311-0.441,3.54-1.388c1.229-0.946,1.995-2.992,1.995-2.992l3.65-0.78l0.416-2.779c0,0,3.968-2.365,7.401-4.996
			c4.966,1.39,9.165,3.283,12.382,6.344c7.62,7.252,7.773,16.303,30.813,19.806c0,0,10.019-8.699,6.766-24.756
			c-3.253-16.057-2.217-19.592,1.945-26.139c4.162-6.547,2.004-12.081-3.964-21.241c-5.968-9.16,1.497-19.523-7.36-29.707
			c-8.857-10.184-12.042-12.667-12.042-12.667s2.408,0.853,4.361,0.082c1.954-0.771,2.307-2.38,2.307-2.38s3.023,2.48,5.781,1.886
			c2.758-0.595,3.788-3.807,3.788-3.807s2.386,1.984,4.836,0.576c2.45-1.408,3.303-3.816,3.303-3.816s1.082-0.343,1.908-1.373
			l3.755-1.092c0.182,2.296,2.063,3.376,3.839,4.098c2.085,0.847,4.358,0.243,4.358,0.243s2.886,1.185,4.349,0.728
			c1.463-0.457,2.307-2.38,2.307-2.38s3.057,0.704,4.367-0.241c1.31-0.945,1.688-3.846,1.688-3.846s3.063,0.381,4.565-2.176
			c0.607-1.033,0.72-2.548,0.749-4.05l43.469-12.641l9.049-1.279c0,0,6.455,4.533,10.332,5.184c3.876,0.652,9.37-0.309,9.37-0.309
			l2.919-7.427L450.075,219.732z"/>
		<path style="fill:#231F20;" d="M178.726,188.788c-11.512,1.937-9.071,5.422-9.783,11.444c-0.62,5.244-3.848,6.613-4.673,6.88
			c-0.091-0.159-0.187-0.312-0.292-0.446c0.035-0.501,0.041-1.309-0.162-2.188c0,0-0.17,0.891-0.847,1.416
			c-0.211-0.077-0.427-0.124-0.647-0.103c-0.221,0.021-0.424,0.109-0.616,0.225c-0.765-0.386-1.101-1.229-1.101-1.229
			c-0.032,0.901,0.128,1.693,0.258,2.178c-0.078,0.152-0.143,0.32-0.202,0.494c-0.861-0.105-4.29-0.834-5.897-5.864
			c-1.845-5.777-0.112-9.663-11.782-9.373c0,0,5.13,2.415,2.495,8.475c0,0,3.154-1.351,3.498,1.66
			c0.344,3.011,0.429,3.706,0.429,3.706s1.988-1.878,3.858-0.663c1.787,1.162,3.943,3.374,7.166,3.26
			c-0.023,0.309-0.029,0.627,0.003,0.958c0.07,0.727,0.433,1.373,0.865,1.903c0.31,0.795,0.764,1.795,1.282,2.395
			c0,0-0.047-0.628-0.082-1.257c0.305,0.229,0.521,0.356,0.521,0.356s0.188-0.166,0.443-0.449c0.086,0.624,0.159,1.249,0.159,1.249
			c0.395-0.688,0.65-1.756,0.803-2.595c0.323-0.603,0.556-1.306,0.486-2.033c-0.032-0.331-0.099-0.641-0.18-0.941
			c3.186-0.502,4.881-3.084,6.415-4.565c1.604-1.549,3.914-0.083,3.914-0.083s-0.049-0.698-0.284-3.72
			c-0.235-3.021,3.118-2.296,3.118-2.296C174.149,192.135,178.726,188.788,178.726,188.788z"/>
		<path style="fill:#231F20;" d="M142.151,135.407c0,0,10.714-6.591,12.842,6.855c0,0,4.456-6.198,12.819,0.095
			c4.461,3.357,8.111,4.843,10.558,5.506c-0.003,0.265-0.024,0.522-0.01,0.793c0.081,1.552,0.793,2.961,1.662,4.129
			c0.584,1.72,1.457,3.89,2.505,5.214c0,0-0.042-1.34-0.057-2.681c0.627,0.515,1.075,0.806,1.075,0.806s0.414-0.336,0.985-0.914
			c0.124,1.335,0.222,2.672,0.222,2.672c0.904-1.426,1.547-3.675,1.949-5.446c0.743-1.252,1.305-2.727,1.224-4.279
			c-0.021-0.404-0.079-0.789-0.137-1.174c4.712-8.032,16.061-4.458,16.061-4.458c-3.611-11.437,9.347-7.003,9.347-7.003
			c-7.703-9.208,7.513-12.117,7.513-12.117c-9.121-4.943-26.041-2.636-27.452,5.095c-1.033,5.663-4.697,12.022-6.587,15.026
			c-0.155-0.285-0.31-0.572-0.488-0.821c0.121-1.063,0.209-2.781-0.141-4.669c0,0-0.444,1.88-1.934,2.933
			c-0.441-0.183-0.896-0.304-1.368-0.28c-0.472,0.025-0.911,0.192-1.331,0.42c-1.592-0.893-2.229-2.716-2.229-2.716
			c-0.151,1.914,0.114,3.613,0.346,4.658c-0.15,0.264-0.273,0.564-0.397,0.861c-2.551-1.392-7.019-4.409-10.911-10.029
			c-5.835-8.425-10.211-18.339-16.6-18.819c-13.346-1.002-24.622,11.123-24.622,11.123S143.778,123.181,142.151,135.407z"/>
		<path style="fill:#231F20;" d="M86.689,168.085c0,0,8.69-5.346,10.416,5.56c0,0,3.615-5.027,10.398,0.077
			c3.618,2.723,6.579,3.928,8.564,4.466c-0.003,0.215-0.019,0.424-0.008,0.644c0.066,1.259,0.643,2.402,1.348,3.349
			c0.474,1.395,1.182,3.155,2.032,4.229c0,0-0.034-1.087-0.046-2.175c0.509,0.418,0.872,0.654,0.872,0.654s0.336-0.273,0.799-0.741
			c0.101,1.083,0.18,2.167,0.18,2.167c0.733-1.157,1.255-2.98,1.581-4.417c0.603-1.016,1.058-2.212,0.993-3.471
			c-0.017-0.328-0.064-0.64-0.111-0.953c3.822-6.514,13.027-3.616,13.027-3.616c-2.928-9.277,7.582-5.68,7.582-5.68
			c-6.248-7.469,6.094-9.828,6.094-9.828c-7.398-4.01-21.122-2.138-22.266,4.133c-0.838,4.593-3.81,9.751-5.343,12.188
			c-0.126-0.231-0.252-0.464-0.396-0.666c0.098-0.862,0.169-2.256-0.114-3.787c0,0-0.36,1.525-1.569,2.379
			c-0.358-0.148-0.727-0.247-1.109-0.227c-0.383,0.02-0.739,0.156-1.08,0.341c-1.291-0.724-1.808-2.203-1.808-2.203
			c-0.122,1.552,0.093,2.931,0.28,3.778c-0.121,0.214-0.221,0.457-0.322,0.698c-2.069-1.129-5.693-3.576-8.85-8.134
			c-4.732-6.833-8.282-14.875-13.465-15.264c-10.825-0.813-19.971,9.022-19.971,9.022S88.008,158.169,86.689,168.085z"/>
	</g>
</g>
<g id="DESIGNED_BY_FREEPIK">
	<g>
		<g id="XMLID_319_">
			<g id="XMLID_338_">
				<path id="XMLID_346_" style="fill:#1C252C;" d="M260.104,465.465c-0.432,0.443-0.803,0.931-1.108,1.453l-0.465-0.241
					c-0.067-0.298-0.349-0.503-0.659-0.466c-0.331,0.039-0.568,0.339-0.529,0.67c0.039,0.331,0.339,0.568,0.67,0.529
					c0.066-0.008,0.127-0.026,0.184-0.052l0.451,0.234c-0.251,0.554-0.433,1.139-0.539,1.744l0.746,0.132
					c0.23-1.306,0.85-2.507,1.792-3.473L260.104,465.465z"/>
				<path id="XMLID_345_" style="fill:#1C252C;" d="M265.592,463.163c-0.171,0-0.341,0.006-0.51,0.017l-0.074-0.626
					c0.188-0.149,0.296-0.389,0.266-0.645c-0.046-0.393-0.402-0.674-0.795-0.628c-0.393,0.046-0.674,0.402-0.628,0.795
					c0.03,0.254,0.189,0.461,0.404,0.564l0.074,0.624c-0.714,0.116-1.403,0.332-2.06,0.646l0.327,0.684
					c0.934-0.447,1.942-0.673,2.995-0.673c0.496,0,0.993,0.053,1.475,0.158l0.161-0.741
					C266.692,463.222,266.142,463.163,265.592,463.163z"/>
				<path id="XMLID_344_" style="fill:#1C252C;" d="M272.194,465.711c0.331-0.04,0.566-0.341,0.526-0.672
					c-0.04-0.331-0.342-0.566-0.672-0.526c-0.309,0.038-0.535,0.304-0.53,0.609l-0.416,0.363c-0.418-0.43-0.889-0.813-1.408-1.139
					l-0.404,0.641c1.134,0.715,2.021,1.726,2.563,2.925l0.69-0.313c-0.251-0.554-0.568-1.072-0.942-1.545l0.402-0.351
					C272.065,465.716,272.129,465.719,272.194,465.711z"/>
				<path id="XMLID_343_" style="fill:#1C252C;" d="M265.044,473.372c-0.386,0.023-0.775,0.035-1.157,0.035
					c-0.88,0-1.733-0.061-2.478-0.179c-0.39-0.062-0.846-0.155-1.27-0.292c1.046,1.861,3.069,3.125,5.388,3.125
					c2.855,0,5.262-1.916,5.95-4.504c-0.682,0.449-1.505,0.825-2.459,1.123C267.839,473.047,266.463,473.286,265.044,473.372z"/>
				<path id="XMLID_339_" style="fill:#1C252C;" d="M265.592,464.68c-3.352,0-6.08,2.666-6.08,5.943
					c0,0.426,0.046,0.849,0.137,1.261c0.673,0.483,2.706,0.89,5.348,0.731c2.879-0.173,5.297-0.957,6.672-2.159
					c-0.006-0.195-0.021-0.39-0.045-0.582C271.244,466.913,268.65,464.68,265.592,464.68z M263.432,471.194
					c-1.02,0-1.85-0.83-1.85-1.85c0-1.02,0.83-1.85,1.85-1.85c1.02,0,1.85,0.83,1.85,1.85
					C265.282,470.365,264.452,471.194,263.432,471.194z M268.17,470.286c-0.75,0-1.36-0.61-1.36-1.36s0.61-1.361,1.36-1.361
					c0.75,0,1.361,0.61,1.361,1.361S268.92,470.286,268.17,470.286z"/>
			</g>
			<path id="XMLID_336_" style="fill:#1C252C;" d="M281.595,466.547c-0.295-0.116-0.805-0.309-1.382-0.237
				c-0.551,0.069-0.844,0.341-0.844,1.007v0.866h2.228v1.717h-2.228v5.455h-1.932v-5.455h-1.34v-1.717h1.34v-0.888
				c0-1.68,0.896-2.783,2.568-2.783c0.643,0,1.157,0.122,1.59,0.308L281.595,466.547z"/>
			<path id="XMLID_334_" style="fill:#1C252C;" d="M286.298,469.879c-0.177-0.03-0.358-0.046-0.526-0.046
				c-0.895,0-1.51,0.548-1.51,1.614v3.908h-1.932v-7.172h1.873v0.785c0.451-0.673,1.14-0.977,2.021-0.977
				c0.414,0,0.848,0.128,1.094,0.337L286.298,469.879z"/>
			<path id="XMLID_331_" style="fill:#1C252C;" d="M293.965,471.757c0,0.222-0.015,0.489-0.037,0.651h-5.085
				c0.207,1.036,0.933,1.488,1.843,1.488c0.622,0,1.295-0.252,1.813-0.688l1.133,1.243c-0.814,0.748-1.85,1.088-3.057,1.088
				c-2.198,0-3.723-1.495-3.723-3.753c0-2.258,1.48-3.797,3.627-3.797C292.544,467.99,293.958,469.522,293.965,471.757z
				 M288.851,471.091h3.175c-0.177-0.918-0.733-1.436-1.562-1.436C289.554,469.655,289.021,470.203,288.851,471.091z"/>
			<path id="XMLID_328_" style="fill:#1C252C;" d="M301.618,471.757c0,0.222-0.015,0.489-0.037,0.651h-5.085
				c0.207,1.036,0.932,1.488,1.843,1.488c0.622,0,1.295-0.252,1.814-0.688l1.132,1.243c-0.814,0.748-1.85,1.088-3.057,1.088
				c-2.198,0-3.723-1.495-3.723-3.753c0-2.258,1.48-3.797,3.627-3.797C300.197,467.99,301.611,469.522,301.618,471.757z
				 M296.504,471.091h3.175c-0.178-0.918-0.733-1.436-1.562-1.436C297.207,469.655,296.674,470.203,296.504,471.091z"/>
			<path id="XMLID_325_" style="fill:#1C252C;" d="M309.964,471.764c0,2.154-1.495,3.775-3.471,3.775
				c-0.962,0-1.643-0.378-2.109-0.933v3.708h-1.924v-10.133h1.887v0.792c0.466-0.585,1.155-0.984,2.139-0.984
				C308.469,467.99,309.964,469.61,309.964,471.764z M304.287,471.764c0,1.132,0.747,1.976,1.843,1.976
				c1.14,0,1.85-0.881,1.85-1.976c0-1.095-0.711-1.976-1.85-1.976C305.035,469.788,304.287,470.632,304.287,471.764z"/>
			<path id="XMLID_322_" style="fill:#1C252C;" d="M313.067,465.836c0,0.696-0.54,1.229-1.236,1.229
				c-0.696,0-1.229-0.533-1.229-1.229c0-0.696,0.533-1.243,1.229-1.243C312.527,464.592,313.067,465.14,313.067,465.836z
				 M312.809,475.354h-1.932v-7.172h1.932V475.354z"/>
			<path id="XMLID_320_" style="fill:#1C252C;" d="M316.032,470.736l2.702-2.554h2.368l-3.479,3.375l3.501,3.797h-2.376
				l-2.716-2.901v2.901H314.1v-10.658h1.932V470.736z"/>
		</g>
		<g>
			<path style="fill:#1C252C;" d="M184.412,475.289v-1.055c-0.527,0.718-1.391,1.23-2.387,1.23c-1.846,0-3.149-1.406-3.149-3.706
				c0-2.256,1.289-3.721,3.149-3.721c0.952,0,1.816,0.469,2.387,1.245v-3.765h1.099v9.77H184.412z M184.412,473.37v-3.208
				c-0.395-0.615-1.245-1.143-2.124-1.143c-1.421,0-2.27,1.172-2.27,2.739c0,1.567,0.85,2.724,2.27,2.724
				C183.168,474.483,184.017,473.986,184.412,473.37z"/>
			<path style="fill:#1C252C;" d="M186.932,471.744c0-2.051,1.465-3.706,3.486-3.706c2.139,0,3.398,1.67,3.398,3.794v0.279h-5.727
				c0.088,1.333,1.025,2.446,2.549,2.446c0.805,0,1.626-0.322,2.182-0.894l0.527,0.718c-0.703,0.703-1.655,1.084-2.812,1.084
				C188.44,475.465,186.932,473.956,186.932,471.744z M190.403,468.947c-1.509,0-2.256,1.274-2.314,2.358h4.643
				C192.718,470.25,192.015,468.947,190.403,468.947z"/>
			<path style="fill:#1C252C;" d="M194.607,474.351l0.571-0.791c0.469,0.542,1.362,1.011,2.329,1.011c1.084,0,1.67-0.513,1.67-1.216
				c0-1.714-4.38-0.659-4.38-3.281c0-1.098,0.952-2.036,2.636-2.036c1.201,0,2.051,0.454,2.622,1.026l-0.513,0.762
				c-0.424-0.513-1.201-0.894-2.109-0.894c-0.967,0-1.567,0.483-1.567,1.113c0,1.552,4.38,0.527,4.38,3.281
				c0,1.187-0.952,2.138-2.783,2.138C196.306,475.465,195.325,475.113,194.607,474.351z"/>
			<path style="fill:#1C252C;" d="M201.477,466.471c0-0.41,0.337-0.747,0.732-0.747c0.41,0,0.747,0.337,0.747,0.747
				c0,0.41-0.337,0.732-0.747,0.732C201.814,467.203,201.477,466.881,201.477,466.471z M201.667,475.289v-7.075h1.099v7.075H201.667
				z"/>
			<path style="fill:#1C252C;" d="M204.582,477.105l0.556-0.82c0.586,0.703,1.289,0.967,2.3,0.967c1.172,0,2.27-0.571,2.27-2.124
				v-1.011c-0.513,0.718-1.377,1.26-2.373,1.26c-1.845,0-3.149-1.377-3.149-3.662c0-2.27,1.289-3.677,3.149-3.677
				c0.952,0,1.802,0.469,2.373,1.245v-1.069h1.098v6.87c0,2.344-1.641,3.076-3.369,3.076
				C206.237,478.16,205.417,477.926,204.582,477.105z M209.709,473.253v-3.091c-0.381-0.615-1.23-1.143-2.109-1.143
				c-1.421,0-2.27,1.128-2.27,2.695c0,1.553,0.849,2.695,2.27,2.695C208.478,474.41,209.328,473.868,209.709,473.253z"/>
			<path style="fill:#1C252C;" d="M217.413,475.289v-4.629c0-1.245-0.63-1.641-1.582-1.641c-0.865,0-1.685,0.527-2.095,1.099v5.17
				h-1.099v-7.075h1.099v1.025c0.498-0.586,1.465-1.201,2.519-1.201c1.48,0,2.256,0.747,2.256,2.285v4.966H217.413z"/>
			<path style="fill:#1C252C;" d="M219.932,471.744c0-2.051,1.465-3.706,3.486-3.706c2.139,0,3.398,1.67,3.398,3.794v0.279h-5.727
				c0.088,1.333,1.025,2.446,2.549,2.446c0.806,0,1.626-0.322,2.183-0.894l0.527,0.718c-0.703,0.703-1.655,1.084-2.812,1.084
				C221.441,475.465,219.932,473.956,219.932,471.744z M223.404,468.947c-1.509,0-2.256,1.274-2.314,2.358h4.643
				C225.718,470.25,225.015,468.947,223.404,468.947z"/>
			<path style="fill:#1C252C;" d="M233.35,475.289v-1.055c-0.527,0.718-1.392,1.23-2.388,1.23c-1.846,0-3.149-1.406-3.149-3.706
				c0-2.256,1.289-3.721,3.149-3.721c0.952,0,1.817,0.469,2.388,1.245v-3.765h1.098v9.77H233.35z M233.35,473.37v-3.208
				c-0.396-0.615-1.245-1.143-2.124-1.143c-1.421,0-2.27,1.172-2.27,2.739c0,1.567,0.849,2.724,2.27,2.724
				C232.105,474.483,232.954,473.986,233.35,473.37z"/>
			<path style="fill:#1C252C;" d="M239.692,475.289v-9.77h1.098v3.765c0.572-0.776,1.421-1.245,2.388-1.245
				c1.845,0,3.149,1.465,3.149,3.721c0,2.299-1.304,3.706-3.149,3.706c-0.996,0-1.86-0.513-2.388-1.23v1.055H239.692z
				 M242.9,474.483c1.436,0,2.285-1.157,2.285-2.724c0-1.568-0.85-2.739-2.285-2.739c-0.864,0-1.728,0.527-2.109,1.143v3.208
				C241.171,473.986,242.036,474.483,242.9,474.483z"/>
			<path style="fill:#1C252C;" d="M247.528,477.061c0.161,0.073,0.425,0.117,0.601,0.117c0.483,0,0.805-0.161,1.055-0.747
				l0.469-1.069l-2.959-7.148h1.187l2.358,5.8l2.344-5.8h1.201l-3.545,8.51c-0.425,1.025-1.143,1.421-2.08,1.435
				c-0.234,0-0.601-0.044-0.806-0.103L247.528,477.061z"/>
		</g>
	</g>
</g>
</svg>
