<?xml version="1.0" encoding="utf-8"?>
<!-- Generator: Adobe Illustrator 27.5.0, SVG Export Plug-In . SVG Version: 6.00 Build 0)  -->
<svg version="1.1" xmlns="http://www.w3.org/2000/svg" xmlns:xlink="http://www.w3.org/1999/xlink" x="0px" y="0px"
	 viewBox="0 0 500 500" style="enable-background:new 0 0 500 500;" xml:space="preserve">
<g id="BACKGROUND">
</g>
<g id="OBJECTS">
	<g>
		<path d="M88.171,199.653c0,0-5.178-21.556,4.252-32.508c0,0,2.128,6.5,12.276,9.25v-3l1.473,2.375l1.146-0.25v-2.75l1.964,2.75
			c0,0,5.565-6.5,0.982-15.375c0,0,16.515,3.806,22.915,23.625c0,0-5.074-8.25-16.531-14.25c0,0,0.982,3.5-1.146,6.125
			c-2.128,2.625-3.273,3.375-3.273,5s-1.492,2.875-1.492,2.875s-1.782-0.125-2.6-0.375c-0.818-0.25-1.473-1.75-2.128-2.25
			s-1.964-2-4.583-1.75c-2.619,0.25-5.729-1.375-7.365-3.625C94.059,175.52,88.171,184.528,88.171,199.653z"/>
		<path d="M382.79,140.509c0,0-6.632-24.698,5.445-37.246c0,0,2.725,7.447,15.721,10.598v-3.437l1.886,2.721l1.467-0.286v-3.151
			l2.515,3.151c0,0,7.127-7.447,1.258-17.616c0,0,21.15,4.36,29.345,27.069c0,0-6.498-9.452-21.171-16.327
			c0,0,1.258,4.01-1.467,7.018c-2.725,3.008-4.192,3.867-4.192,5.729c0,1.862-1.91,3.294-1.91,3.294s-2.282-0.143-3.33-0.43
			c-1.048-0.286-1.886-2.005-2.725-2.578c-0.838-0.573-2.515-2.292-5.869-2.005c-3.354,0.286-7.336-1.575-9.432-4.153
			C390.331,112.858,382.79,123.179,382.79,140.509z"/>
		<path d="M162.574,286.925c0,0,4.217-17.553-3.462-26.471c0,0-1.733,5.293-9.996,7.532v-2.443l-1.2,1.934l-0.933-0.204v-2.239
			l-1.599,2.239c0,0-4.531-5.293-0.8-12.52c0,0-13.448,3.099-18.659,19.237c0,0,4.132-6.718,13.461-11.604c0,0-0.8,2.85,0.933,4.988
			c1.733,2.138,2.666,2.748,2.666,4.071c0,1.323,1.215,2.341,1.215,2.341s1.451-0.102,2.117-0.305
			c0.666-0.204,1.199-1.425,1.733-1.832c0.533-0.407,1.599-1.629,3.732-1.425c2.133,0.203,4.665-1.12,5.998-2.952
			C157.779,267.274,162.574,274.609,162.574,286.925z"/>
		<path d="M335.852,284.971c0,0-9.314-9.328-17.797-7.956c0,0,2.632,3.1,0.87,9.098l-1.52-0.933l0.745,1.485l-0.483,0.503
			l-1.394-0.855l0.783,1.851c0,0-5.025,0.799-8.097-4.284c0,0-3.208,9.553,4.846,18.96c0,0-2.603-5.137-2.08-12.81
			c0,0,1.468,1.586,3.46,1.324c1.992-0.262,2.728-0.609,3.552-0.104c0.823,0.505,1.921,0.138,1.921,0.138s0.491-0.942,0.619-1.434
			c0.128-0.492-0.429-1.291-0.478-1.778c-0.05-0.487-0.403-1.617,0.538-2.867c0.941-1.249,1.085-3.331,0.454-4.86
			C321.791,280.45,328.187,280.267,335.852,284.971z"/>
		<path d="M131.678,66.523c0,0,8.142,14.562,11.43,18.79c0,0-0.783,7.203,4.697,13.779l2.818-3.288l-0.626,3.288l0.626,1.096
			l3.288-1.879l-2.192,4.541c0,0,7.203,2.662,16.754-2.818c0,0,7.672,1.722,20.042-1.096c0,0-18.163,4.071-20.199,12.84
			c0,0-10.961-7.516-19.259,0c0,0-0.626-1.722-2.818-1.253c-2.192,0.47-5.011,3.445-5.011,3.445s2.662-3.601,2.035-5.637
			c-0.626-2.035-4.071-1.096-4.071-1.096s2.036-7.829-5.793-12.996C133.4,94.238,139.82,81.085,131.678,66.523z"/>
		<path d="M382.895,239.953c0,0,16.167,11.447,21.851,14.299c0,0,2.841,8.12,12.074,12.368l1.341-4.964l1.009,3.844l1.231,0.855
			l2.564-3.694l-0.029,5.987c0,0,9.08-0.827,16.517-11.581c0,0,9.103-2.074,20.921-11.414c0,0-17.387,13.643-15.089,24.081
			c0,0-15.587-2.456-20.642,9.84c0,0-1.551-1.526-3.661,0.097c-2.109,1.623-3.61,6.252-3.61,6.252s1.013-5.22-0.698-7.081
			c-1.711-1.862-4.923,0.905-4.923,0.905s-1.818-9.431-12.849-10.969C398.901,268.777,399.062,251.4,382.895,239.953z"/>
		<path d="M94.9,245.454c0,0-10.194,7.218-13.778,9.016c0,0-1.791,5.12-7.614,7.799l-0.845-3.13l-0.636,2.424l-0.776,0.539
			l-1.617-2.329l0.019,3.775c0,0-5.725-0.521-10.415-7.302c0,0-5.74-1.308-13.192-7.197c0,0,10.964,8.603,9.515,15.184
			c0,0,9.829-1.548,13.016,6.204c0,0,0.978-0.962,2.308,0.062c1.33,1.024,2.277,3.942,2.277,3.942s-0.639-3.291,0.44-4.465
			c1.079-1.174,3.104,0.571,3.104,0.571s1.146-5.947,8.102-6.917C84.807,263.63,84.706,252.673,94.9,245.454z"/>
	</g>
	<g>
		<defs>
			<rect id="SVGID_1_" width="500" height="500"/>
		</defs>
		<clipPath id="SVGID_00000127017139596792402280000006621215129688617107_">
			<use xlink:href="#SVGID_1_"  style="overflow:visible;"/>
		</clipPath>
		<g style="clip-path:url(#SVGID_00000127017139596792402280000006621215129688617107_);">
			<path d="M-5,372.539c0,0,27.263,3.97,31.354,5.716c4.091,1.746,17.387,11.387,21.478,15.233
				c4.091,3.846,31.705,11.061,35.796,15.287c4.091,4.226,24.546,33.009,28.637,33.118c4.091,0.108,36.819,6.339,41.933,8.224
				c5.114,1.884,42.88,18.552,50.941,20.361c8.062,1.809,49.022,0.607,54.801,0c5.778-0.607,29.22-5.737,37.934-2.107
				c8.714,3.63,36.328-1.669,41.442-2.429c5.114-0.76,37.842,0.76,43.978,0c6.136-0.76,31.705-25.158,37.842-24.049
				c6.136,1.108,18.409-10.009,22.5-11.45c4.091-1.441,9.205-22.254,13.296-23.848c4.091-1.593,17.387-22.719,23.523-24.156
				C486.59,381,505,374.977,505,374.977v133.827H-5V372.539z"/>
			<path d="M329.56,474.595c2.855-6.889,21.412-20.668,29.025-26.983c7.613-6.315,12.372-9.76,18.557-13.205
				c6.186-3.445,16.654-4.019,24.267,2.296c7.613,6.315,15.805,7.219,25.27,16.527c9.465,9.308,13.747,23.087,8.989,31.124
				C430.911,492.393,329.56,474.595,329.56,474.595z"/>
		</g>
	</g>
	<g>
		<g>
			<path d="M377.447,472.177c0,0-1.929-159.245,0-161.612c1.93-2.367,16.921,0.789,18.499,4.734
				c1.578,3.945-9.678,156.877-9.678,156.877H377.447z"/>
			<path d="M341.503,350.807c4.919-1.155,85.217,0,88.373,0c3.156,0,4.734,18.148,0,18.148c-4.734,0-88.373-2.367-88.373-3.156
				S336.501,351.981,341.503,350.807z"/>
		</g>
		<g>
			<path d="M70.547,413.259c0,0-6.831-118.319-5.172-120.318c1.66-1.999,18.809-2.036,19.362,2.489
				c0.553,4.525-3.319,123.088-3.319,123.088L70.547,413.259z"/>
			<path d="M40.486,322.451c2.855-0.514,69.35,1.752,71.43,3.555c2.08,1.802,3.467,8.006,0,11.212
				c-3.468,3.207-67.963,2.527-71.43,2.566C37.018,339.823,36.894,323.097,40.486,322.451z"/>
		</g>
	</g>
	<g>
		<path d="M124.948,446.999c0,0-10.353-14.516-8.972-28.481c0,0,2.656,12.373,8.972,19.219c0,0-6.902-27.317-16.564-36.635
			c0,0,16.909,14.259,22.431,36.635c0,0,3.451-14.204,0-29.733c0,0,7.592,15.529,5.176,32.093c0,0,5.867-7.833,18.98-8.23
			c0,0-14.149,5.509-13.458,17.74L124.948,446.999z"/>
		<path d="M371.086,442.892c0,0-8.409-8.471-6.727-24.374c0,0-5.466,8.484-2.102,21.098c0,0-8.409-8.02-11.353-30.079
			c0,0-2.943,13.26,5.466,30.92c0,0-7.148-18.229-26.069-21.939c0,0,12.614,8.063,22.285,27.825c0,0-10.512-4.625-22.285,0
			c0,0,15.978-4.232,26.069,12.811C356.369,459.153,363.097,444.906,371.086,442.892z"/>
		<path d="M414.71,451.116c0,0-0.868-19.763-7.809-27.572c0,0,7.375,4.524,11.28,14.193c0,0,1.302-19.597-9.111-36.635
			c0,0,11.714,12.808,15.618,33.243c0,0-4.302-25.552,11.732-51.582c0,0-9.698,24.953-3.557,53.908c0,0,4.876-12.693,3.557-22.238
			c0,0,5.481,20.021-2.474,35.173L414.71,451.116z"/>
		<path d="M470.154,386.684c0,0-4.191-7.737-11.284-8.382c0,0,8.382-2.32,14.185,6.094c0,0-5.481-13.402-17.086-23.288
			c0,0,15.797,3.591,20.955,23.288c0,0-10.316-14.798-8.382-40.911c0,0,2.579,21.277,11.606,37.719c0,0-2.257-10.214,8.704-27.029
			c0,0-6.77,15.683-3.224,30.222C485.629,384.396,478.536,388.941,470.154,386.684z"/>
		<path d="M17.11,383.153c0,0-0.976-19.821-7.322-25.679c0,0,6.346,4.169,11.715,15.752c0,0-2.441-17.705-14.156-36.742
			c0,0,11.715,12.743,19.037,30.29c0,0-1.464-25.839,8.786-48.566c0,0-7.81,30.744-2.441,55.019c0,0,2.441-9.01,12.203-13.602
			c0,0-10.739,13.107-9.763,27.689C35.171,387.313,25.408,381.008,17.11,383.153z"/>
	</g>
	<path d="M289.59,181.72c-0.09-0.11-0.48-0.59-1.06-1.31C289.26,181.15,289.53,181.62,289.59,181.72z"/>
	<path d="M397.3,176.56c-1.43-0.22-5.3,0.33-6.51-1.77c-1.21-2.09-1.66-5.29-2.87-6.07c-1.21-0.77-4.3-0.11-4.3-0.11
		s-0.89-2.54-3.98-2.98c-3.09-0.44-7.72,0.89-10.59,1.11c-2.87,0.22-4.63,0.33-4.63-0.22c0-0.56,0.77-2.32,2.2-2.32
		c1.44,0,3.09-0.77,3.64-1.88c0.56-1.1-0.22-2.2-1.54-1.98c-1.32,0.22-2.32,1.21-4.41,1.54c-2.1,0.33-3.65,1.21-5.19,5.19
		c0,0-5.63-0.11-10.82,1.43c-5.18,1.55-6.62,4.64-10.92,10.37c-4.3,5.74-4.75,7.73-12.14,14.79c-7.39,7.06-9.71,9.05-9.71,9.05
		s-6.62-0.44-14.23-0.33c-7.62,0.11-17.22,1.55-18.22,0.89c-0.99-0.66-3.64-14.99-5.4-20.09c0,0,2.86,0.44,5.4,2.65
		c2.55,2.2,5.08,2.2,5.08,2.2s-4.96-2.2-7.28-6.07c-2.32-3.85-4.18-8.04-5.18-10.03c0.29,0.16,4.98,2.83,8.93,5.4
		c1.94,1.26,3.16,2.31,3.9,3.08c-1.31-1.63-3.61-4.43-5.45-6.5c-2.75-3.09-5.29-3.42-7.72-6.84c-2.42-3.42-3.53-14.35-6.29-21.85
		c-2.76-7.51-4.85-8.06-7.94-9.27c-3.09-1.22-4.86-1.33-4.86-1.33s1.88-3.86,2.76-4.3c0.88-0.44,1.99,0.99,2.98-0.77
		c0.99-1.77-0.11-3.09,2.76-4.86c2.87-1.76,5.08-1.1,7.5,1c2.43,2.09,9.94,1.21,17.33,1.1c7.39-0.11,12.69-1.66,13.9-2.98
		c1.22-1.32,1.11-1.65,2.87-3.42c1.77-1.77,1.77-4.19,1.77-4.19c-0.55-0.01-2.53,0.58-3.27,0.28c-0.73-0.29-0.58-1.83,0.3-2.42
		c0.88-0.58,1.39-1.98,1.1-2.49c-0.3-0.51-1.4-1.83-1.98-2.05c-0.59-0.22-3.23,0.88-3.74,1.98c-0.51,1.1,0.59,2.56,0.59,3.88
		s-0.37,2.57-0.59,2.79c-0.22,0.22-1.47,0.51-1.69,0.29c-0.22-0.22,0.59-2.86,0.3-3.74c-0.3-0.88-1.84-2.64-2.42-2.64
		c-0.59,0-2.28,2.64-2.35,3.3c-0.07,0.66,0.88,3.59,0.81,3.81c-0.08,0.22-4.11,0.88-4.33,0.44c-0.22-0.44,1.18-2.85,1.03-3.59
		c-0.15-0.73-1.83-2.49-2.71-2.42c-0.88,0.08-2.64,3.01-2.64,3.67c0,0.66,1.39,2.56,1.17,2.78c-0.22,0.22-2.93,0.81-3.23,0.59
		c-0.29-0.22-0.22-4.03-0.58-4.25c-0.37-0.22-2.57-2.2-3.01-2.05c-0.44,0.14-0.88,2.78-0.29,3.88c0.59,1.1,1.39,2.79,1.17,3.15
		c-0.22,0.37-4.47,0.52-5.42-0.14c-0.96-0.66-5.13-6.89-6.89-11.88c-1.76-4.98-1.03-5.72-0.66-5.86c0.36-0.15,2.86,0.22,3,0.95
		c0.15,0.73,0.44,4.25,1.61,4.98c1.18,0.74,2.06-1.24,3.01-1.9c0.95-0.66,1.32,1.24,2.42,2.86c1.1,1.61,1.83,0.95,2.49-0.08
		c0.66-1.02,1.36-3.15,1.74-3.15c0.39,0,1.27,0.15,1.27,0.15s3.37,4.98,4.54,4.69c1.18-0.29,0.81-4.98,1.1-4.98c0.3,0,0.96,0,0.96,0
		s1.83,4.1,3.44,3.73c1.61-0.36,2.57-4.83,2.93-4.91c0.37-0.07,0.96,0.44,1.25,0.88c0.29,0.44,0.88,2.42,2.42,1.83
		c1.54-0.58,2.05-4.1,2.42-6.37c0.37-2.28-1.03-2.06-2.49-3.89c-1.47-1.83-1.03-3.74,0.14-4.69c1.18-0.95,2.94-3.59,2.57-6.45
		c-0.37-2.86-3.15-4.69-3.15-4.69s1.32-0.74,0.95-3.38c0,0,2.71-1.39,3.52-3.74c0.8-2.34-2.2-3.66-3.45-4.39c0,0,1.69-1.32,1.1-2.72
		c-0.58-1.39-1.62-1.4-1.36-2.47c0.49-1.98,2.23-5.2,2.23-9.88c0-4.67-2.02-7.22-7.96-9.34c-5.95-2.13-13.6-3.83-17.11-5.53
		c-3.5-1.7-8.07-2.65-9.56-2.33c-1.48,0.31-2.76,1.8-2.76,1.8s-1.06-2.34-1.8-2.44c-0.75-0.11-3.3,1.17-4.25,1.06
		c-0.96-0.11-1.7-3.51-5.74-3.19c-4.04,0.32-4.78,3.72-4.78,3.72s-1.91-0.95-4.04-0.21c-2.01,0.7-1.64,2.18-1.6,2.33
		c-0.24-0.1-3.53-1.51-7.11,0.64c-3.71,2.23-3.82,6.48-2.76,9.03c0,0-1.27,0.43-1.27,2.55c0,2.13,1.8,2.34,1.8,2.34
		s-1.48,1.91-1.06,4.35c0.39,2.27,2.07,3.25,2.31,3.39c-0.33-0.09-2.88-0.74-3.48,0.76c-0.64,1.59,1.28,8.28,3.19,12.21
		c1.91,3.93,2.87,8.39,2.87,8.39s-5.21-1.7-10.41,0c-5.21,1.7-5.63,7.33,0,17.53c5.63,10.2,9.66,7.76,12,6.27
		c2.34-1.49,5.42-5.42,5.42-5.42s-0.11,5.95-3.19,12.54c-3.08,6.58-4.46,8.18-6.16,8.6c-1.7,0.43-13.39-4.57-26.66,4.14
		c-13.28,8.71-19.34,25.07-19.66,27.3c-0.31,2.23,0.54,2.87-2.33,9.78c-2.87,6.9-5.74,8.07-7.44,19.44
		c-1.7,11.36-1.27,21.77-1.7,24.32c-0.42,2.55-1.7,6.37-5.2,11.37c-3.43,4.87-4.93,13.29-4.99,13.69c0.2-0.26,3.39-4.39,6.47-6.04
		c3.19-1.7,3.51-5,5.63-6.7c0,0,0.64,2.98,0.64,4.89c0,1.91,0,4.25,0.64,4.04c0.64-0.22,2.02-2.34,2.44-2.02
		c0.43,0.32,0.96,5.1,1.7,8.5c0.75,3.4,1.81,5.63,1.7,6.48c-0.1,0.85-2.76,0.31-4.03,3.61c-1.28,3.29,0.74,6.8,3.71,12
		c2.98,5.21,4.68,9.77,6.27,13.81c1.59,4.04,7.12,11.05,9.45,15.51c2.34,4.46,2.87,7.33,3.62,10.73c0.74,3.4,1.16,7.43,1.7,7.33
		c0.53-0.11,2.55-5.84,2.01-10.52c0,0,2.66,3.51,6.38,7.22c3.72,3.72,9.66,12.65,12.96,17c3.29,4.36,3.93,5.31,3.93,5.31
		s-0.85,10.31-8.71,32.61c-7.86,22.31-5.63,19.23-8.18,25.6c-2.55,6.38-11.582,22.447-13.492,26.167c-1.91,3.71-3.82,7.01-5.84,7.86
		c-2.02,0.85-3.93,2.01-5.42,3.4c-1.49,1.38,0.21,1.16,2.34,0.53c2.12-0.64,4.14,0.85,6.27-0.11c2.12-0.96,3.29-0.74,3.29-0.74
		s0.1,1.06-1.49,5.52c-1.59,4.46-5.1,8.39-5.95,10.84c-0.85,2.44-2.65,4.14-2.87,4.35c-0.21,0.21-0.42-2.34-1.38-3.19
		c-0.95-0.85-2.01-1.27-2.97,0.11c-0.96,1.38-1.28,3.19-2.66,4.46c-1.38,1.28-1.59,2.02-2.01,4.36c-0.43,2.33-1.6,1.91-2.87,3.08
		c-1.28,1.17-2.45,2.87-0.75,4.88c1.7,2.02,4.68,4.68,6.91,6.8c2.23,2.13,4.78,4.25,5.95,3.19c1.17-1.06,2.33-3.93,3.4-3.82
		c1.06,0.1,2.12,1.59,2.97,3.5c0.85,1.91,1.28,4.25,7.01,5.95c5.74,1.7,11.58,2.87,17.21,1.59c5.63-1.27,12.22-2.65,13.38-4.03
		c1.17-1.38,1.81-6.16,0.32-6.16c-1.48,0-11.26-0.43-16.36-0.96c-5.09-0.53-7.33-4.57-8.92-6.8c-1.59-2.23-1.59-7.22-2.23-7.33
		c-0.64-0.11-1.49,1.28-1.81,1.06c-0.31-0.21,3.09-10.83,4.15-14.12c1.06-3.3,2.76-6.06,2.76-6.06s1.81-0.32,2.23,0.11
		c0.43,0.42,3.08,3.08,4.14,8.07c1.07,4.99,0.43,6.69,2.98,10.3c0,0-0.21-4.67,0.53-8.71c0.74-4.03,0.85-7.43,0.42-10.3
		c-0.42-2.87,1.81-3.61,1.54-7.33c-0.26-3.72-0.26-5.95,1.44-10.09c1.7-4.14,10.092-20.637,12.632-25.097
		c2.55-4.46,2.66-11.9,5.1-15.3c2.45-3.4,3.3-7.65,4.15-10.41c0.85-2.76,1.59-5.2,2.44-4.67c0.85,0.53,4.4,9.47,5.63,12.53
		c0.69,1.72,1.19,2.72,0.19,3.9c-1,1.19-0.94,2.88,0.37,4.32c1.32,1.43,1.82,1.75,1.25,4.12c-0.56,2.38-0.75,4.57-1.81,7.25
		c-1.06,2.69-0.94,3.25-1.31,5.19c-0.38,1.94-0.81,2.13-0.06,4.13s1.81,0.31,1.18,3.5c-0.62,3.18-2.06,4.62-0.56,9.69
		c1.5,5.06,3.25,5.75,2.94,8.06c-0.31,2.31-1.38,5.31-1.81,8c-0.44,2.69-1.07,3.63-1.57,4.69s1.63-0.38,2.57-1.81
		c0.93-1.44,1.25-2.82,1.75-3.19c0.5-0.38,0.81,3.06-1.07,6.94c-1.87,3.87-1.12,5.12-2.18,8.12c-1.07,3,0.43,6.63-0.07,7.81
		c-0.5,1.19,2.07-1.31,2.19-3.93c0.13-2.63-1.62-3.5,0.63-5.94s1.62-1.75,2.75-4.5c0,0,1.25,3.31,2.25,7.37
		c1,4.07,2.43,7.82,2.25,8.13c-0.19,0.31-3.38-2-4-1.69c-0.63,0.31-0.88,1.57-1.25,3.13c-0.38,1.56-0.57,1.81,0.31,5
		c0.87,3.19,1.56,5.75,1.62,6.69c0.07,0.93-1,1.43-1.18,3.62c-0.19,2.19,1,4,2.12,4.5c1.13,0.5,3.82-0.87,7.88,0
		c4.06,0.88,6.87,1.04,8.37,0.12c1.5-0.93,1.57-5.31,1.88-5.18c0.31,0.12,2.5,0.81,4.12,2.56c1.63,1.75,3.32,1.44,9.19,1
		c5.88-0.44,15.5-3.37,18.69-3.87c3.19-0.5,4.69-1.13,5.32-1.94c0.62-0.81,0.5-6.25,0-6.81c-0.5-0.57-10.19-1.07-13.57-0.88
		c-3.37,0.19-14.69-1.81-16.31-2.87c-1.63-1.07-5.88-6.88-6.94-7.19c-1.06-0.32-2.81,1.93-3.13,1.87
		c-0.31-0.06-1.12-15.25-0.43-15.44c0.68-0.18,3.87,2.57,6.68,4.25c2.82,1.69,3.76,4.07,4.57,6.69c0.81,2.63,1.44-0.5,1.25-3.31
		c-0.19-2.81-3.44-5.19-4.57-7.5c-1.12-2.31-1.87-5-2.5-7.32c-0.62-2.31,0.57-9.68,0.32-13.25c-0.25-3.56-0.07-9.75-0.5-14.56
		c-0.44-4.81,0.93-4.31-0.13-10.38c-1.06-6.06-1.62-8.12-1.31-11.44c0.31-3.31,0.12-6.25-0.81-7.62c-0.94-1.38-3.38-5-2.19-6.31
		c1.19-1.32,1-5.19-1.06-6.88c-2.07-1.69-3.82-1.69-5.94-7c-2.13-5.31-5.56-10.13-7.57-13.69c-2-3.56-4.81-8.31-4.75-9.44
		c0.07-1.12,0.07-3.06,0.38-6.5c0.31-3.44-0.63-4.5-0.13-6.38c0.5-1.87,2.5-7.5,2.13-10.18c0,0,2.06-0.13,3.12,1
		c1.07,1.12,2.51,1.5,2.94,1.62c0.44,0.13-1.75-2.56-2.56-4.69c-0.81-2.12-2.94-3.5-3.75-5.12c-0.81-1.63-1.69-2.94-2.31-7
		c-0.63-4.07-1.45-13.3-1.57-19.13c-0.16-8.78-2.48-17.5-3.47-20.59c-1-3.09-2.32-8.94-3.09-11.03c-0.78-2.1-2.21-6.18-4.97-6.84
		c-2.76-0.67-3.4,0.99-4.35,0.77c-0.95-0.22-5.58-3.53-5.25-4.64c0.33-1.1,0.88-1.43,2.43-1.32c1.54,0.11,22.9-2.98,28.11-4.75
		c0,0,5.99,12.8,7.09,16.34c1.1,3.53,2.87,5.07,1.99,6.62c-0.89,1.54,2.2,5.63,5.73,7.34c3.54,1.71,5.52-0.61,6.63-2.27
		c1.1-1.65,5.18-4.19,9.15-7.5c3.98-3.31,11.81-13.02,12.8-13.57c1-0.56,1,0.77,2.87,1.76c1.88,0.99,1.66,2.1,0.67,3.97
		c-1,1.88-1.77,2.65-3.09,6.96c-1.33,4.3,1.87,7.28,5.18,5.62c3.31-1.65,0.89-6.62,4.09-10.04c3.2-3.42,4.85-5.85,1.32-9.49
		c0,0,3.42,0.44,6.51,0.44c3.09,0,5.74,0.22,4.86,3.2c-0.89,2.98-0.34,8.72,2.53,10.82c2.87,2.09,5.74,0.88,5.3-2.43
		c-0.44-3.31-0.66-5.41,0.88-8.94c1.55-3.53,1.44-6.62-5.51-8.72c0,0,6.07,0.67,9.6,0.67c3.53,0,4.74,4.08,9.93,4.74
		c5.18,0.66,6.07-0.33,7.06-2.98c0.99-2.65-2.65-2.43-5.19-3.42c-2.53-0.99-5.84-3.75-9.16-4.41c-3.31-0.66-13.68,0-14.67,0
		s-0.99,0-0.99,0s0.77-1.77-1.77-2.87c-2.54-1.11-5.52,0.22-5.96,0c-0.44-0.22,4.3-7.06,7.06-11.37c2.76-4.3,7.73-11.92,8.94-14.01
		c1.22-2.1,2.65-2.76,3.97-1.77c1.33,1,1.11,2.65,0.33,5.3c-0.77,2.65,1.33,2.54,2.54,5.52c1.22,2.98-0.11,6.62,3.87,6.18
		c3.97-0.45,3.31-6.4,2.09-9.94c-1.21-3.53-0.77-4.85,0.44-7.94c1.22-3.09,1.88-4.97,3.09-5.3c1.22-0.33,6.29,0.66,11.15-0.66
		c4.85-1.32,6.29-2.98,6.95-1.1c0.66,1.87,1.21,8.49,4.64,10.81c3.42,2.32,6.95,2.1,8.27,0c1.33-2.1-0.22-2.43-3.09-3.97
		c-2.87-1.55-3.42-3.64-3.53-7.39c0,0,1.66,3.75,5.19,5.07c3.53,1.33,5.07,1.77,6.62,0.11C398.18,179.43,398.73,176.78,397.3,176.56
		z M299.13,75.61c-0.08,0.75-1.13,4.89-4.9,5.46c-3.77,0.57-7.09-3.58-7.09-3.58C287.59,77.26,299.2,74.85,299.13,75.61z
		 M284.05,85.25c1.43,0.15,1.28,0.76,1.51,3.7c0.23,2.94,2.64,5.35,0.98,6.14c-1.66,0.8-2.56-1.85-3.46-1.02
		c-0.89,0.83-2.66,1.51-2.95,0.68C279.15,91.96,282.62,85.1,284.05,85.25z M276.67,77.94c0.6,0.23-2.42,5.88-6.71,6.33
		c-4.3,0.46-9.57-6.33-9.57-6.33S276.06,77.72,276.67,77.94z M204.528,437.897c-1.29,4.57-5.14,11.71-5.14,11.71
		c-0.96-0.08-1.84-1.2-1.84-1.2c-0.73-1.76,2.56-8.02,4.97-12.91c2.41-4.9,4.25-8.27,4.73-8.75c0.48-0.48,2.41-0.88,2.41-0.88
		S205.808,433.327,204.528,437.897z M270.26,434.8c0.12-0.59,2.63,0.96,2.95,1.36c0.32,0.4,3.53,14.44,3.53,14.76
		c0,0.32-4.25,0.32-4.41-0.56C272.17,449.48,269.96,436.32,270.26,434.8z M241.04,282.12c0.14,5.61,0.71,9.63,0.71,9.63
		s-5.88-3.88-8.83-11.64c-2.94-7.75-6.24-9.62-6.53-13.35c-0.29-3.73-2.3-6.75-2.3-6.75c0.72-0.72,11.92-3.45,13.36-2.73
		c1.43,0.72,0.86,5.31,2.15,9.19C240.89,270.35,240.89,276.52,241.04,282.12z M244.95,206.54c-0.47-0.11,0-2.69-1.05-4.91
		c-1.06-2.23-1.88-3.4-1.41-3.87c0.47-0.46,3.63-4.9,4.68-10.23c1.06-5.33,5.39-13.06,8.2-19.03c0,0,1.29,6.68,0.93,10.42
		c-0.35,3.75-2.69,7.96-2.34,11.47c0.35,3.51-0.82,6.2-0.93,6.79c-0.12,0.58,3.28-3.04,3.34-5.38c0.05-2.35,1.69-6.91,1.69-6.91
		s1.76,4.21,2.58,6.44c0.81,2.22,4.21,10.18,5.61,13.69C266.25,205.02,245.42,206.66,244.95,206.54z M302.09,217.39
		c-2.37,1.55-11.02,8.57-12.08,8.57c-1.06,0-4.43-9.63-3.92-9.71c3.68-0.57,20.82-3.84,20.73-3.1
		C306.74,213.88,304.46,215.84,302.09,217.39z"/>
</g>
</svg>
